<mxfile host="app.diagrams.net" agent="Mozilla/5.0 (Windows NT 10.0; Win64; x64) AppleWebKit/537.36 (KHTML, like Gecko) Chrome/135.0.0.0 Safari/537.36 Edg/135.0.0.0" version="26.2.12">
  <diagram name="第 1 页" id="lPCZRCDjE5-AbNdkFInT">
    <mxGraphModel dx="1013" dy="1978" grid="1" gridSize="10" guides="1" tooltips="1" connect="1" arrows="1" fold="1" page="1" pageScale="1" pageWidth="1169" pageHeight="827" math="0" shadow="0">
      <root>
        <mxCell id="0" />
        <mxCell id="1" parent="0" />
        <mxCell id="6iBz3VEfDVyDtMxZ7u2R-1" style="edgeStyle=orthogonalEdgeStyle;rounded=0;orthogonalLoop=1;jettySize=auto;html=1;fontSize=18;entryX=0.5;entryY=0;entryDx=0;entryDy=0;" parent="1" source="6iBz3VEfDVyDtMxZ7u2R-2" target="6iBz3VEfDVyDtMxZ7u2R-11" edge="1">
          <mxGeometry relative="1" as="geometry" />
        </mxCell>
        <mxCell id="6iBz3VEfDVyDtMxZ7u2R-2" value="Input" style="rounded=0;whiteSpace=wrap;html=1;labelBackgroundColor=none;strokeColor=default;fillColor=none;align=center;fontStyle=0;fontSize=18;direction=east;" parent="1" vertex="1">
          <mxGeometry x="147" y="103" width="76" height="30" as="geometry" />
        </mxCell>
        <mxCell id="6iBz3VEfDVyDtMxZ7u2R-3" style="edgeStyle=orthogonalEdgeStyle;rounded=0;orthogonalLoop=1;jettySize=auto;html=1;fontSize=18;entryX=0;entryY=0.5;entryDx=0;entryDy=0;" parent="1" source="6iBz3VEfDVyDtMxZ7u2R-24" target="6iBz3VEfDVyDtMxZ7u2R-37" edge="1">
          <mxGeometry relative="1" as="geometry">
            <Array as="points">
              <mxPoint x="270" y="599" />
              <mxPoint x="270" y="740" />
            </Array>
          </mxGeometry>
        </mxCell>
        <mxCell id="6iBz3VEfDVyDtMxZ7u2R-4" value="" style="group;strokeColor=default;dashed=1;dashPattern=8 8;fontSize=18;container=0;movable=1;resizable=1;rotatable=1;deletable=1;editable=1;locked=0;connectable=1;direction=east;" parent="1" vertex="1" connectable="0">
          <mxGeometry x="130" y="148" width="106" height="759" as="geometry" />
        </mxCell>
        <mxCell id="6iBz3VEfDVyDtMxZ7u2R-5" value="" style="group;strokeColor=default;dashed=1;dashPattern=8 8;fontSize=18;container=0;direction=east;rotation=-180;" parent="1" vertex="1" connectable="0">
          <mxGeometry x="252" y="330" width="302" height="577" as="geometry" />
        </mxCell>
        <mxCell id="6iBz3VEfDVyDtMxZ7u2R-6" value="" style="group;dashed=1;dashPattern=8 8;strokeColor=default;spacingTop=0;spacingLeft=0;fontSize=18;container=0;movable=1;resizable=1;rotatable=1;deletable=1;editable=1;locked=0;connectable=1;direction=east;" parent="1" vertex="1" connectable="0">
          <mxGeometry x="570" y="330" width="123" height="580" as="geometry" />
        </mxCell>
        <mxCell id="6iBz3VEfDVyDtMxZ7u2R-7" value="Neck" style="text;html=1;align=center;verticalAlign=middle;resizable=0;points=[];autosize=1;strokeColor=none;fillColor=none;labelBackgroundColor=none;fontStyle=1;fontSize=15;" parent="1" vertex="1">
          <mxGeometry x="373" y="930" width="60" height="30" as="geometry" />
        </mxCell>
        <mxCell id="6iBz3VEfDVyDtMxZ7u2R-8" value="Head" style="text;html=1;align=center;verticalAlign=middle;resizable=0;points=[];autosize=1;strokeColor=none;fillColor=none;labelBackgroundColor=none;fontStyle=1;fontSize=15;" parent="1" vertex="1">
          <mxGeometry x="605" y="930" width="60" height="30" as="geometry" />
        </mxCell>
        <mxCell id="6iBz3VEfDVyDtMxZ7u2R-9" value="BackBone" style="text;html=1;align=center;verticalAlign=middle;resizable=0;points=[];autosize=1;strokeColor=none;fillColor=none;labelBackgroundColor=none;fontStyle=1;fontSize=15;" parent="1" vertex="1">
          <mxGeometry x="133" y="920" width="90" height="30" as="geometry" />
        </mxCell>
        <mxCell id="6iBz3VEfDVyDtMxZ7u2R-10" style="edgeStyle=orthogonalEdgeStyle;rounded=0;orthogonalLoop=1;jettySize=auto;html=1;fontSize=18;entryX=0.5;entryY=0;entryDx=0;entryDy=0;" parent="1" source="6iBz3VEfDVyDtMxZ7u2R-11" target="6iBz3VEfDVyDtMxZ7u2R-13" edge="1">
          <mxGeometry relative="1" as="geometry" />
        </mxCell>
        <mxCell id="6iBz3VEfDVyDtMxZ7u2R-11" value="Conv" style="rounded=0;whiteSpace=wrap;html=1;labelBackgroundColor=none;strokeColor=default;fillColor=none;align=center;fontStyle=0;fontSize=18;direction=east;" parent="1" vertex="1">
          <mxGeometry x="150" y="161" width="70.00000000000004" height="30" as="geometry" />
        </mxCell>
        <mxCell id="6iBz3VEfDVyDtMxZ7u2R-12" style="edgeStyle=orthogonalEdgeStyle;rounded=0;orthogonalLoop=1;jettySize=auto;html=1;fontSize=18;entryX=0.5;entryY=0;entryDx=0;entryDy=0;" parent="1" source="6iBz3VEfDVyDtMxZ7u2R-13" target="6iBz3VEfDVyDtMxZ7u2R-15" edge="1">
          <mxGeometry relative="1" as="geometry" />
        </mxCell>
        <mxCell id="6iBz3VEfDVyDtMxZ7u2R-13" value="Conv" style="rounded=0;whiteSpace=wrap;html=1;labelBackgroundColor=none;strokeColor=default;fillColor=none;align=center;fontStyle=0;fontSize=18;direction=east;" parent="1" vertex="1">
          <mxGeometry x="150" y="231" width="70.00000000000004" height="30" as="geometry" />
        </mxCell>
        <mxCell id="6iBz3VEfDVyDtMxZ7u2R-14" style="edgeStyle=orthogonalEdgeStyle;rounded=0;orthogonalLoop=1;jettySize=auto;html=1;fontSize=18;entryX=0.5;entryY=0;entryDx=0;entryDy=0;" parent="1" source="6iBz3VEfDVyDtMxZ7u2R-15" target="6iBz3VEfDVyDtMxZ7u2R-17" edge="1">
          <mxGeometry relative="1" as="geometry" />
        </mxCell>
        <mxCell id="6iBz3VEfDVyDtMxZ7u2R-15" value="C3K2" style="rounded=0;whiteSpace=wrap;html=1;labelBackgroundColor=none;strokeColor=default;fillColor=none;align=center;fontStyle=0;fontSize=18;direction=east;" parent="1" vertex="1">
          <mxGeometry x="150" y="300" width="70.00000000000004" height="30" as="geometry" />
        </mxCell>
        <mxCell id="6iBz3VEfDVyDtMxZ7u2R-16" style="edgeStyle=orthogonalEdgeStyle;rounded=0;orthogonalLoop=1;jettySize=auto;html=1;fontSize=18;entryX=0.5;entryY=0;entryDx=0;entryDy=0;" parent="1" source="6iBz3VEfDVyDtMxZ7u2R-17" target="6iBz3VEfDVyDtMxZ7u2R-20" edge="1">
          <mxGeometry relative="1" as="geometry" />
        </mxCell>
        <mxCell id="6iBz3VEfDVyDtMxZ7u2R-17" value="Conv" style="rounded=0;whiteSpace=wrap;html=1;labelBackgroundColor=none;strokeColor=default;fillColor=none;align=center;fontStyle=0;fontSize=18;direction=east;" parent="1" vertex="1">
          <mxGeometry x="150" y="370" width="70.00000000000004" height="30" as="geometry" />
        </mxCell>
        <mxCell id="6iBz3VEfDVyDtMxZ7u2R-18" style="edgeStyle=orthogonalEdgeStyle;rounded=0;orthogonalLoop=1;jettySize=auto;html=1;fontSize=18;entryX=0.5;entryY=0;entryDx=0;entryDy=0;" parent="1" source="6iBz3VEfDVyDtMxZ7u2R-20" target="6iBz3VEfDVyDtMxZ7u2R-22" edge="1">
          <mxGeometry relative="1" as="geometry" />
        </mxCell>
        <mxCell id="6iBz3VEfDVyDtMxZ7u2R-20" value="C3K2" style="rounded=0;whiteSpace=wrap;html=1;labelBackgroundColor=none;strokeColor=default;fillColor=none;align=center;fontStyle=0;fontSize=18;direction=east;" parent="1" vertex="1">
          <mxGeometry x="150" y="439" width="70.00000000000004" height="30" as="geometry" />
        </mxCell>
        <mxCell id="6iBz3VEfDVyDtMxZ7u2R-21" style="edgeStyle=orthogonalEdgeStyle;rounded=0;orthogonalLoop=1;jettySize=auto;html=1;fontSize=18;entryX=0.5;entryY=0;entryDx=0;entryDy=0;" parent="1" source="6iBz3VEfDVyDtMxZ7u2R-22" target="6iBz3VEfDVyDtMxZ7u2R-24" edge="1">
          <mxGeometry relative="1" as="geometry" />
        </mxCell>
        <mxCell id="6iBz3VEfDVyDtMxZ7u2R-22" value="Conv" style="rounded=0;whiteSpace=wrap;html=1;labelBackgroundColor=none;strokeColor=default;fillColor=none;align=center;fontStyle=0;fontSize=18;direction=east;" parent="1" vertex="1">
          <mxGeometry x="150" y="509" width="70.00000000000004" height="30" as="geometry" />
        </mxCell>
        <mxCell id="6iBz3VEfDVyDtMxZ7u2R-23" style="edgeStyle=orthogonalEdgeStyle;rounded=0;orthogonalLoop=1;jettySize=auto;html=1;fontSize=18;entryX=0.5;entryY=0;entryDx=0;entryDy=0;" parent="1" source="6iBz3VEfDVyDtMxZ7u2R-24" target="6iBz3VEfDVyDtMxZ7u2R-26" edge="1">
          <mxGeometry relative="1" as="geometry" />
        </mxCell>
        <mxCell id="6iBz3VEfDVyDtMxZ7u2R-24" value="C3K2" style="rounded=0;whiteSpace=wrap;html=1;labelBackgroundColor=none;strokeColor=default;fillColor=none;align=center;fontStyle=0;fontSize=18;direction=east;" parent="1" vertex="1">
          <mxGeometry x="150" y="579" width="70.00000000000004" height="30" as="geometry" />
        </mxCell>
        <mxCell id="6iBz3VEfDVyDtMxZ7u2R-25" style="edgeStyle=orthogonalEdgeStyle;rounded=0;orthogonalLoop=1;jettySize=auto;html=1;fontSize=18;entryX=0.5;entryY=0;entryDx=0;entryDy=0;" parent="1" source="6iBz3VEfDVyDtMxZ7u2R-26" target="6iBz3VEfDVyDtMxZ7u2R-28" edge="1">
          <mxGeometry relative="1" as="geometry" />
        </mxCell>
        <mxCell id="6iBz3VEfDVyDtMxZ7u2R-26" value="Conv" style="rounded=0;whiteSpace=wrap;html=1;labelBackgroundColor=none;strokeColor=default;fillColor=none;align=center;fontStyle=0;fontSize=18;direction=east;" parent="1" vertex="1">
          <mxGeometry x="150" y="648" width="70.00000000000004" height="30" as="geometry" />
        </mxCell>
        <mxCell id="6iBz3VEfDVyDtMxZ7u2R-27" style="edgeStyle=orthogonalEdgeStyle;rounded=0;orthogonalLoop=1;jettySize=auto;html=1;fontSize=18;entryX=0.5;entryY=0;entryDx=0;entryDy=0;" parent="1" source="6iBz3VEfDVyDtMxZ7u2R-28" target="6iBz3VEfDVyDtMxZ7u2R-30" edge="1">
          <mxGeometry relative="1" as="geometry" />
        </mxCell>
        <mxCell id="6iBz3VEfDVyDtMxZ7u2R-28" value="C3K2" style="rounded=0;whiteSpace=wrap;html=1;labelBackgroundColor=none;strokeColor=default;fillColor=none;align=center;fontStyle=0;fontSize=18;direction=east;" parent="1" vertex="1">
          <mxGeometry x="150" y="718" width="70.00000000000004" height="30" as="geometry" />
        </mxCell>
        <mxCell id="6iBz3VEfDVyDtMxZ7u2R-29" style="edgeStyle=orthogonalEdgeStyle;rounded=0;orthogonalLoop=1;jettySize=auto;html=1;fontSize=18;entryX=0.5;entryY=0;entryDx=0;entryDy=0;" parent="1" source="6iBz3VEfDVyDtMxZ7u2R-30" target="6iBz3VEfDVyDtMxZ7u2R-33" edge="1">
          <mxGeometry relative="1" as="geometry" />
        </mxCell>
        <mxCell id="6iBz3VEfDVyDtMxZ7u2R-30" value="SPPF" style="rounded=0;whiteSpace=wrap;html=1;labelBackgroundColor=none;strokeColor=default;fillColor=none;align=center;fontStyle=0;fontSize=18;direction=east;" parent="1" vertex="1">
          <mxGeometry x="150" y="788" width="70.00000000000004" height="30" as="geometry" />
        </mxCell>
        <mxCell id="6iBz3VEfDVyDtMxZ7u2R-31" style="edgeStyle=orthogonalEdgeStyle;rounded=0;orthogonalLoop=1;jettySize=auto;html=1;entryX=0.5;entryY=1;entryDx=0;entryDy=0;" parent="1" source="6iBz3VEfDVyDtMxZ7u2R-33" target="6iBz3VEfDVyDtMxZ7u2R-35" edge="1">
          <mxGeometry relative="1" as="geometry" />
        </mxCell>
        <mxCell id="6iBz3VEfDVyDtMxZ7u2R-67" style="edgeStyle=orthogonalEdgeStyle;rounded=0;orthogonalLoop=1;jettySize=auto;html=1;entryX=0;entryY=0.5;entryDx=0;entryDy=0;" parent="1" source="6iBz3VEfDVyDtMxZ7u2R-33" target="6iBz3VEfDVyDtMxZ7u2R-58" edge="1">
          <mxGeometry relative="1" as="geometry">
            <Array as="points">
              <mxPoint x="400" y="875" />
              <mxPoint x="400" y="798" />
            </Array>
          </mxGeometry>
        </mxCell>
        <mxCell id="6iBz3VEfDVyDtMxZ7u2R-33" value="Biformer" style="rounded=0;whiteSpace=wrap;html=1;labelBackgroundColor=none;strokeColor=default;fillColor=none;align=center;fontStyle=0;fontSize=18;direction=east;" parent="1" vertex="1">
          <mxGeometry x="145" y="855" width="80.00000000000004" height="30" as="geometry" />
        </mxCell>
        <mxCell id="6iBz3VEfDVyDtMxZ7u2R-34" value="" style="edgeStyle=orthogonalEdgeStyle;rounded=0;orthogonalLoop=1;jettySize=auto;html=1;fontSize=18;" parent="1" source="6iBz3VEfDVyDtMxZ7u2R-35" target="6iBz3VEfDVyDtMxZ7u2R-37" edge="1">
          <mxGeometry relative="1" as="geometry" />
        </mxCell>
        <mxCell id="6iBz3VEfDVyDtMxZ7u2R-35" value="DySample" style="rounded=0;whiteSpace=wrap;html=1;labelBackgroundColor=none;strokeColor=default;fillColor=none;align=center;fontStyle=0;fontSize=18;direction=east;" parent="1" vertex="1">
          <mxGeometry x="280" y="801" width="100" height="30" as="geometry" />
        </mxCell>
        <mxCell id="6iBz3VEfDVyDtMxZ7u2R-36" value="" style="edgeStyle=orthogonalEdgeStyle;rounded=0;orthogonalLoop=1;jettySize=auto;html=1;fontSize=18;" parent="1" source="6iBz3VEfDVyDtMxZ7u2R-37" target="6iBz3VEfDVyDtMxZ7u2R-39" edge="1">
          <mxGeometry relative="1" as="geometry" />
        </mxCell>
        <mxCell id="6iBz3VEfDVyDtMxZ7u2R-37" value="Concat" style="rounded=0;whiteSpace=wrap;html=1;labelBackgroundColor=none;strokeColor=default;fillColor=none;align=center;fontStyle=0;fontSize=18;direction=east;" parent="1" vertex="1">
          <mxGeometry x="290" y="720" width="80" height="30" as="geometry" />
        </mxCell>
        <mxCell id="6iBz3VEfDVyDtMxZ7u2R-38" value="" style="edgeStyle=orthogonalEdgeStyle;rounded=0;orthogonalLoop=1;jettySize=auto;html=1;fontSize=18;" parent="1" source="6iBz3VEfDVyDtMxZ7u2R-39" target="6iBz3VEfDVyDtMxZ7u2R-42" edge="1">
          <mxGeometry relative="1" as="geometry" />
        </mxCell>
        <mxCell id="6iBz3VEfDVyDtMxZ7u2R-39" value="C3K2" style="rounded=0;whiteSpace=wrap;html=1;labelBackgroundColor=none;strokeColor=default;fillColor=none;align=center;fontStyle=0;fontSize=18;direction=east;" parent="1" vertex="1">
          <mxGeometry x="295" y="615" width="70" height="30" as="geometry" />
        </mxCell>
        <mxCell id="6iBz3VEfDVyDtMxZ7u2R-40" style="edgeStyle=orthogonalEdgeStyle;rounded=0;orthogonalLoop=1;jettySize=auto;html=1;fontSize=18;entryX=0.5;entryY=1;entryDx=0;entryDy=0;" parent="1" source="6iBz3VEfDVyDtMxZ7u2R-42" target="6iBz3VEfDVyDtMxZ7u2R-44" edge="1">
          <mxGeometry relative="1" as="geometry" />
        </mxCell>
        <mxCell id="6iBz3VEfDVyDtMxZ7u2R-41" style="edgeStyle=orthogonalEdgeStyle;rounded=0;orthogonalLoop=1;jettySize=auto;html=1;entryX=0;entryY=0.5;entryDx=0;entryDy=0;exitX=1;exitY=0.5;exitDx=0;exitDy=0;fontSize=18;" parent="1" source="6iBz3VEfDVyDtMxZ7u2R-39" target="6iBz3VEfDVyDtMxZ7u2R-51" edge="1">
          <mxGeometry relative="1" as="geometry" />
        </mxCell>
        <mxCell id="6iBz3VEfDVyDtMxZ7u2R-42" value="DySample" style="rounded=0;whiteSpace=wrap;html=1;labelBackgroundColor=none;strokeColor=default;fillColor=none;align=center;fontStyle=0;fontSize=18;direction=east;" parent="1" vertex="1">
          <mxGeometry x="280" y="489" width="100" height="30" as="geometry" />
        </mxCell>
        <mxCell id="6iBz3VEfDVyDtMxZ7u2R-43" style="edgeStyle=orthogonalEdgeStyle;rounded=0;orthogonalLoop=1;jettySize=auto;html=1;fontSize=18;entryX=0;entryY=0.5;entryDx=0;entryDy=0;" parent="1" source="6iBz3VEfDVyDtMxZ7u2R-44" target="6iBz3VEfDVyDtMxZ7u2R-47" edge="1">
          <mxGeometry relative="1" as="geometry" />
        </mxCell>
        <mxCell id="6iBz3VEfDVyDtMxZ7u2R-44" value="Concat" style="rounded=0;whiteSpace=wrap;html=1;labelBackgroundColor=none;strokeColor=default;fillColor=none;align=center;fontStyle=0;fontSize=18;direction=east;" parent="1" vertex="1">
          <mxGeometry x="290" y="370" width="80" height="30" as="geometry" />
        </mxCell>
        <mxCell id="6iBz3VEfDVyDtMxZ7u2R-45" style="edgeStyle=orthogonalEdgeStyle;rounded=0;orthogonalLoop=1;jettySize=auto;html=1;fontSize=18;entryX=0.5;entryY=0;entryDx=0;entryDy=0;" parent="1" source="6iBz3VEfDVyDtMxZ7u2R-47" target="6iBz3VEfDVyDtMxZ7u2R-49" edge="1">
          <mxGeometry relative="1" as="geometry" />
        </mxCell>
        <mxCell id="6iBz3VEfDVyDtMxZ7u2R-46" value="" style="edgeStyle=orthogonalEdgeStyle;rounded=0;orthogonalLoop=1;jettySize=auto;html=1;" parent="1" source="6iBz3VEfDVyDtMxZ7u2R-47" target="6iBz3VEfDVyDtMxZ7u2R-61" edge="1">
          <mxGeometry relative="1" as="geometry" />
        </mxCell>
        <mxCell id="6iBz3VEfDVyDtMxZ7u2R-47" value="C3K2" style="rounded=0;whiteSpace=wrap;html=1;labelBackgroundColor=none;strokeColor=default;fillColor=none;align=center;fontStyle=0;fontSize=18;direction=east;" parent="1" vertex="1">
          <mxGeometry x="457" y="370" width="70" height="30" as="geometry" />
        </mxCell>
        <mxCell id="6iBz3VEfDVyDtMxZ7u2R-66" style="edgeStyle=orthogonalEdgeStyle;rounded=0;orthogonalLoop=1;jettySize=auto;html=1;entryX=0.5;entryY=0;entryDx=0;entryDy=0;" parent="1" source="6iBz3VEfDVyDtMxZ7u2R-49" target="6iBz3VEfDVyDtMxZ7u2R-51" edge="1">
          <mxGeometry relative="1" as="geometry" />
        </mxCell>
        <mxCell id="6iBz3VEfDVyDtMxZ7u2R-49" value="Conv" style="rounded=0;whiteSpace=wrap;html=1;labelBackgroundColor=none;strokeColor=default;fillColor=none;align=center;fontStyle=0;fontSize=18;direction=east;" parent="1" vertex="1">
          <mxGeometry x="457" y="462" width="70" height="30" as="geometry" />
        </mxCell>
        <mxCell id="6iBz3VEfDVyDtMxZ7u2R-50" style="edgeStyle=orthogonalEdgeStyle;rounded=0;orthogonalLoop=1;jettySize=auto;html=1;fontSize=18;entryX=0.5;entryY=0;entryDx=0;entryDy=0;" parent="1" source="6iBz3VEfDVyDtMxZ7u2R-51" target="6iBz3VEfDVyDtMxZ7u2R-54" edge="1">
          <mxGeometry relative="1" as="geometry">
            <mxPoint x="492" y="501" as="targetPoint" />
          </mxGeometry>
        </mxCell>
        <mxCell id="6iBz3VEfDVyDtMxZ7u2R-51" value="Concat" style="rounded=0;whiteSpace=wrap;html=1;labelBackgroundColor=none;strokeColor=default;fillColor=none;align=center;fontStyle=0;fontSize=18;direction=east;" parent="1" vertex="1">
          <mxGeometry x="452" y="536" width="80" height="30" as="geometry" />
        </mxCell>
        <mxCell id="6iBz3VEfDVyDtMxZ7u2R-52" style="edgeStyle=orthogonalEdgeStyle;rounded=0;orthogonalLoop=1;jettySize=auto;html=1;fontSize=18;entryX=0.5;entryY=0;entryDx=0;entryDy=0;" parent="1" source="6iBz3VEfDVyDtMxZ7u2R-54" target="6iBz3VEfDVyDtMxZ7u2R-56" edge="1">
          <mxGeometry relative="1" as="geometry" />
        </mxCell>
        <mxCell id="6iBz3VEfDVyDtMxZ7u2R-53" value="" style="edgeStyle=orthogonalEdgeStyle;rounded=0;orthogonalLoop=1;jettySize=auto;html=1;" parent="1" source="6iBz3VEfDVyDtMxZ7u2R-54" target="6iBz3VEfDVyDtMxZ7u2R-62" edge="1">
          <mxGeometry relative="1" as="geometry" />
        </mxCell>
        <mxCell id="6iBz3VEfDVyDtMxZ7u2R-54" value="C3K2" style="rounded=0;whiteSpace=wrap;html=1;labelBackgroundColor=none;strokeColor=default;fillColor=none;align=center;fontStyle=0;fontSize=18;direction=east;" parent="1" vertex="1">
          <mxGeometry x="457" y="621" width="70" height="30" as="geometry" />
        </mxCell>
        <mxCell id="6iBz3VEfDVyDtMxZ7u2R-55" style="edgeStyle=orthogonalEdgeStyle;rounded=0;orthogonalLoop=1;jettySize=auto;html=1;fontSize=18;entryX=0.5;entryY=0;entryDx=0;entryDy=0;" parent="1" source="6iBz3VEfDVyDtMxZ7u2R-56" target="6iBz3VEfDVyDtMxZ7u2R-58" edge="1">
          <mxGeometry relative="1" as="geometry" />
        </mxCell>
        <mxCell id="6iBz3VEfDVyDtMxZ7u2R-56" value="Conv" style="rounded=0;whiteSpace=wrap;html=1;labelBackgroundColor=none;strokeColor=default;fillColor=none;align=center;fontStyle=0;fontSize=18;direction=east;" parent="1" vertex="1">
          <mxGeometry x="457" y="704" width="70" height="30" as="geometry" />
        </mxCell>
        <mxCell id="6iBz3VEfDVyDtMxZ7u2R-57" value="" style="edgeStyle=orthogonalEdgeStyle;rounded=0;orthogonalLoop=1;jettySize=auto;html=1;fontSize=18;" parent="1" source="6iBz3VEfDVyDtMxZ7u2R-58" target="6iBz3VEfDVyDtMxZ7u2R-60" edge="1">
          <mxGeometry relative="1" as="geometry" />
        </mxCell>
        <mxCell id="6iBz3VEfDVyDtMxZ7u2R-58" value="Concat" style="rounded=0;whiteSpace=wrap;html=1;labelBackgroundColor=none;strokeColor=default;fillColor=none;align=center;fontStyle=0;fontSize=18;direction=east;" parent="1" vertex="1">
          <mxGeometry x="452" y="778" width="80" height="30" as="geometry" />
        </mxCell>
        <mxCell id="6iBz3VEfDVyDtMxZ7u2R-59" value="" style="edgeStyle=orthogonalEdgeStyle;rounded=0;orthogonalLoop=1;jettySize=auto;html=1;" parent="1" source="6iBz3VEfDVyDtMxZ7u2R-60" target="6iBz3VEfDVyDtMxZ7u2R-63" edge="1">
          <mxGeometry relative="1" as="geometry" />
        </mxCell>
        <mxCell id="6iBz3VEfDVyDtMxZ7u2R-60" value="C3K2" style="rounded=0;whiteSpace=wrap;html=1;labelBackgroundColor=none;strokeColor=default;fillColor=none;align=center;fontStyle=0;fontSize=18;direction=east;" parent="1" vertex="1">
          <mxGeometry x="457" y="843" width="70" height="30" as="geometry" />
        </mxCell>
        <mxCell id="6iBz3VEfDVyDtMxZ7u2R-61" value="Detect" style="rounded=0;whiteSpace=wrap;html=1;labelBackgroundColor=none;strokeColor=default;fillColor=none;align=center;fontStyle=0;fontSize=18;movable=1;resizable=1;rotatable=1;deletable=1;editable=1;locked=0;connectable=1;direction=east;" parent="1" vertex="1">
          <mxGeometry x="595" y="370" width="80" height="30" as="geometry" />
        </mxCell>
        <mxCell id="6iBz3VEfDVyDtMxZ7u2R-62" value="&lt;span style=&quot;color: rgb(0, 0, 0); font-family: Helvetica; font-style: normal; font-variant-ligatures: normal; font-variant-caps: normal; font-weight: 400; letter-spacing: normal; orphans: 2; text-align: center; text-indent: 0px; text-transform: none; widows: 2; word-spacing: 0px; -webkit-text-stroke-width: 0px; white-space: normal; background-color: rgb(251, 251, 251); text-decoration-thickness: initial; text-decoration-style: initial; text-decoration-color: initial; float: none; display: inline !important;&quot;&gt;Detect&lt;/span&gt;" style="rounded=0;whiteSpace=wrap;html=1;labelBackgroundColor=none;strokeColor=default;fillColor=none;align=center;fontStyle=0;fontSize=18;movable=1;resizable=1;rotatable=1;deletable=1;editable=1;locked=0;connectable=1;direction=east;" parent="1" vertex="1">
          <mxGeometry x="595" y="621" width="80" height="30" as="geometry" />
        </mxCell>
        <mxCell id="6iBz3VEfDVyDtMxZ7u2R-63" value="&lt;span style=&quot;color: rgb(0, 0, 0); font-family: Helvetica; font-style: normal; font-variant-ligatures: normal; font-variant-caps: normal; font-weight: 400; letter-spacing: normal; orphans: 2; text-align: center; text-indent: 0px; text-transform: none; widows: 2; word-spacing: 0px; -webkit-text-stroke-width: 0px; white-space: normal; background-color: rgb(251, 251, 251); text-decoration-thickness: initial; text-decoration-style: initial; text-decoration-color: initial; float: none; display: inline !important;&quot;&gt;Detect&lt;/span&gt;" style="rounded=0;whiteSpace=wrap;html=1;labelBackgroundColor=none;strokeColor=default;fillColor=none;align=center;fontStyle=0;fontSize=18;movable=1;resizable=1;rotatable=1;deletable=1;editable=1;locked=0;connectable=1;direction=east;" parent="1" vertex="1">
          <mxGeometry x="595" y="843" width="80" height="30" as="geometry" />
        </mxCell>
        <mxCell id="6iBz3VEfDVyDtMxZ7u2R-68" value="" style="group;strokeColor=default;dashed=1;dashPattern=8 8;fontSize=18;container=0;direction=east;rotation=-180;" parent="1" vertex="1" connectable="0">
          <mxGeometry x="252" y="103" width="446" height="221.5" as="geometry" />
        </mxCell>
        <mxCell id="6iBz3VEfDVyDtMxZ7u2R-112" value="" style="group" parent="1" vertex="1" connectable="0">
          <mxGeometry x="187.5" y="1154" width="431" height="86" as="geometry" />
        </mxCell>
        <mxCell id="6iBz3VEfDVyDtMxZ7u2R-69" value="Detect" style="rounded=0;whiteSpace=wrap;html=1;labelBackgroundColor=none;strokeColor=default;fillColor=none;align=center;fontStyle=0;fontSize=18;movable=1;resizable=1;rotatable=1;deletable=1;editable=1;locked=0;connectable=1;direction=east;" parent="6iBz3VEfDVyDtMxZ7u2R-112" vertex="1">
          <mxGeometry y="33" width="70" height="30" as="geometry" />
        </mxCell>
        <mxCell id="6iBz3VEfDVyDtMxZ7u2R-73" value="" style="edgeStyle=orthogonalEdgeStyle;rounded=0;orthogonalLoop=1;jettySize=auto;html=1;" parent="6iBz3VEfDVyDtMxZ7u2R-112" source="6iBz3VEfDVyDtMxZ7u2R-70" target="6iBz3VEfDVyDtMxZ7u2R-71" edge="1">
          <mxGeometry relative="1" as="geometry" />
        </mxCell>
        <mxCell id="6iBz3VEfDVyDtMxZ7u2R-70" value="CBS" style="rounded=0;whiteSpace=wrap;html=1;labelBackgroundColor=none;strokeColor=default;fillColor=none;align=center;fontStyle=0;fontSize=18;direction=east;" parent="6iBz3VEfDVyDtMxZ7u2R-112" vertex="1">
          <mxGeometry x="137" width="60" height="30" as="geometry" />
        </mxCell>
        <mxCell id="6iBz3VEfDVyDtMxZ7u2R-74" value="" style="edgeStyle=orthogonalEdgeStyle;rounded=0;orthogonalLoop=1;jettySize=auto;html=1;" parent="6iBz3VEfDVyDtMxZ7u2R-112" source="6iBz3VEfDVyDtMxZ7u2R-71" target="6iBz3VEfDVyDtMxZ7u2R-72" edge="1">
          <mxGeometry relative="1" as="geometry" />
        </mxCell>
        <mxCell id="6iBz3VEfDVyDtMxZ7u2R-71" value="CBS" style="rounded=0;whiteSpace=wrap;html=1;labelBackgroundColor=none;strokeColor=default;fillColor=none;align=center;fontStyle=0;fontSize=18;direction=east;" parent="6iBz3VEfDVyDtMxZ7u2R-112" vertex="1">
          <mxGeometry x="239" width="60" height="30" as="geometry" />
        </mxCell>
        <mxCell id="6iBz3VEfDVyDtMxZ7u2R-110" style="edgeStyle=orthogonalEdgeStyle;rounded=0;orthogonalLoop=1;jettySize=auto;html=1;" parent="6iBz3VEfDVyDtMxZ7u2R-112" source="6iBz3VEfDVyDtMxZ7u2R-72" edge="1">
          <mxGeometry relative="1" as="geometry">
            <mxPoint x="431" y="15" as="targetPoint" />
          </mxGeometry>
        </mxCell>
        <mxCell id="6iBz3VEfDVyDtMxZ7u2R-72" value="Conv2d" style="rounded=0;whiteSpace=wrap;html=1;labelBackgroundColor=none;strokeColor=default;fillColor=none;align=center;fontStyle=0;fontSize=18;direction=east;" parent="6iBz3VEfDVyDtMxZ7u2R-112" vertex="1">
          <mxGeometry x="339" width="70" height="30" as="geometry" />
        </mxCell>
        <mxCell id="6iBz3VEfDVyDtMxZ7u2R-77" value="" style="edgeStyle=orthogonalEdgeStyle;rounded=0;orthogonalLoop=1;jettySize=auto;html=1;" parent="6iBz3VEfDVyDtMxZ7u2R-112" source="6iBz3VEfDVyDtMxZ7u2R-78" target="6iBz3VEfDVyDtMxZ7u2R-80" edge="1">
          <mxGeometry relative="1" as="geometry" />
        </mxCell>
        <mxCell id="6iBz3VEfDVyDtMxZ7u2R-78" value="CBS" style="rounded=0;whiteSpace=wrap;html=1;labelBackgroundColor=none;strokeColor=default;fillColor=none;align=center;fontStyle=0;fontSize=18;direction=east;" parent="6iBz3VEfDVyDtMxZ7u2R-112" vertex="1">
          <mxGeometry x="137" y="56" width="60" height="30" as="geometry" />
        </mxCell>
        <mxCell id="6iBz3VEfDVyDtMxZ7u2R-79" value="" style="edgeStyle=orthogonalEdgeStyle;rounded=0;orthogonalLoop=1;jettySize=auto;html=1;" parent="6iBz3VEfDVyDtMxZ7u2R-112" source="6iBz3VEfDVyDtMxZ7u2R-80" target="6iBz3VEfDVyDtMxZ7u2R-82" edge="1">
          <mxGeometry relative="1" as="geometry" />
        </mxCell>
        <mxCell id="6iBz3VEfDVyDtMxZ7u2R-80" value="CBS" style="rounded=0;whiteSpace=wrap;html=1;labelBackgroundColor=none;strokeColor=default;fillColor=none;align=center;fontStyle=0;fontSize=18;direction=east;" parent="6iBz3VEfDVyDtMxZ7u2R-112" vertex="1">
          <mxGeometry x="239" y="56" width="60" height="30" as="geometry" />
        </mxCell>
        <mxCell id="6iBz3VEfDVyDtMxZ7u2R-111" style="edgeStyle=orthogonalEdgeStyle;rounded=0;orthogonalLoop=1;jettySize=auto;html=1;" parent="6iBz3VEfDVyDtMxZ7u2R-112" source="6iBz3VEfDVyDtMxZ7u2R-82" edge="1">
          <mxGeometry relative="1" as="geometry">
            <mxPoint x="431" y="71" as="targetPoint" />
          </mxGeometry>
        </mxCell>
        <mxCell id="6iBz3VEfDVyDtMxZ7u2R-82" value="Conv2d" style="rounded=0;whiteSpace=wrap;html=1;labelBackgroundColor=none;strokeColor=default;fillColor=none;align=center;fontStyle=0;fontSize=18;direction=east;" parent="6iBz3VEfDVyDtMxZ7u2R-112" vertex="1">
          <mxGeometry x="339" y="56" width="70" height="30" as="geometry" />
        </mxCell>
        <mxCell id="6iBz3VEfDVyDtMxZ7u2R-91" style="edgeStyle=orthogonalEdgeStyle;rounded=0;orthogonalLoop=1;jettySize=auto;html=1;entryX=0;entryY=0.5;entryDx=0;entryDy=0;" parent="6iBz3VEfDVyDtMxZ7u2R-112" source="6iBz3VEfDVyDtMxZ7u2R-90" target="6iBz3VEfDVyDtMxZ7u2R-70" edge="1">
          <mxGeometry relative="1" as="geometry" />
        </mxCell>
        <mxCell id="6iBz3VEfDVyDtMxZ7u2R-92" style="edgeStyle=orthogonalEdgeStyle;rounded=0;orthogonalLoop=1;jettySize=auto;html=1;entryX=0;entryY=0.5;entryDx=0;entryDy=0;" parent="6iBz3VEfDVyDtMxZ7u2R-112" source="6iBz3VEfDVyDtMxZ7u2R-90" target="6iBz3VEfDVyDtMxZ7u2R-78" edge="1">
          <mxGeometry relative="1" as="geometry" />
        </mxCell>
        <mxCell id="6iBz3VEfDVyDtMxZ7u2R-90" value="=" style="rounded=0;whiteSpace=wrap;html=1;labelBackgroundColor=none;strokeColor=none;fillColor=none;align=center;fontStyle=0;fontSize=18;movable=1;resizable=1;rotatable=1;deletable=1;editable=1;locked=0;connectable=1;direction=east;aspect=fixed;" parent="6iBz3VEfDVyDtMxZ7u2R-112" vertex="1">
          <mxGeometry x="70" y="38" width="20" height="20" as="geometry" />
        </mxCell>
        <mxCell id="rapPshUDSgQeHGpEtebV-3" value="" style="edgeStyle=orthogonalEdgeStyle;rounded=0;orthogonalLoop=1;jettySize=auto;html=1;" edge="1" parent="1" source="rapPshUDSgQeHGpEtebV-1" target="rapPshUDSgQeHGpEtebV-2">
          <mxGeometry relative="1" as="geometry" />
        </mxCell>
        <mxCell id="rapPshUDSgQeHGpEtebV-1" value="Conv" style="rounded=0;whiteSpace=wrap;html=1;labelBackgroundColor=none;strokeColor=default;fillColor=none;align=center;fontStyle=0;fontSize=18;direction=east;" vertex="1" parent="1">
          <mxGeometry x="143" y="1380" width="70.00000000000004" height="30" as="geometry" />
        </mxCell>
        <mxCell id="rapPshUDSgQeHGpEtebV-7" value="" style="edgeStyle=orthogonalEdgeStyle;rounded=0;orthogonalLoop=1;jettySize=auto;html=1;" edge="1" parent="1" source="rapPshUDSgQeHGpEtebV-2" target="rapPshUDSgQeHGpEtebV-6">
          <mxGeometry relative="1" as="geometry" />
        </mxCell>
        <mxCell id="rapPshUDSgQeHGpEtebV-8" value="" style="edgeStyle=orthogonalEdgeStyle;rounded=0;orthogonalLoop=1;jettySize=auto;html=1;" edge="1" parent="1" source="rapPshUDSgQeHGpEtebV-2" target="rapPshUDSgQeHGpEtebV-5">
          <mxGeometry relative="1" as="geometry" />
        </mxCell>
        <mxCell id="rapPshUDSgQeHGpEtebV-2" value="Split" style="rounded=0;whiteSpace=wrap;html=1;labelBackgroundColor=none;strokeColor=default;fillColor=none;align=center;fontStyle=0;fontSize=18;direction=east;" vertex="1" parent="1">
          <mxGeometry x="270" y="1380" width="70.00000000000004" height="30" as="geometry" />
        </mxCell>
        <mxCell id="rapPshUDSgQeHGpEtebV-4" value="" style="shape=image;verticalLabelPosition=bottom;labelBackgroundColor=default;verticalAlign=top;aspect=fixed;imageAspect=0;image=data:image/png,iVBORw0KGgoAAAANSUhEUgAABIcAAADqCAYAAAA4VCUMAAAAAXNSR0IArs4c6QAAAARnQU1BAACxjwv8YQUAAAAJcEhZcwAADsMAAA7DAcdvqGQAAP+lSURBVHhe7J0HYFVF9v+/yUsvBAiQBAihd5AiRcHee29rXd1dt7rN3d/6X9ftXd2ia1lde+8ioChVQKr0DqEFCGmk95fkf77zcsLl+UIoQRDOByb33ulzZu7cmfPmzg1rEGB86dTV1SEsLAz19fWIiIhotD04WHWM40DYn9+W3Ajdm/N3MPk4EFojvtbOU2tzKPnbXxh1a87PgYQ9FEKleyjxHU4e9seBxuv3+1FZWYmEhIQjkg/DMAzDMAzDMIxjmfDGo3EU4GR09erV7pyTWCqKePSeBx+D3Wk0fLCblwNxU+OFSizahUqPdl57r1E3L153vVa8bmqUUG40Gn9z+VC7/eUjlFuwnaJu3vDEm06wW7AfJZQfL8Fuwf698em12rHOvHkhXnevPfFee+0Jw3jj86JutOc50bi8/tWOqH1wfBqPugWHV9RPc2563J/x+tG0CgsLMWXKFHduGIZhGIZhGIZxomErh44COindvn07HnvsMVxxxRVutUJqaioyMjKcn8zMTOzevRs+n8/5j4uLQ48ePdCuXTvk5+dj8+bNqK2tdW7h4eHo1KmTc+cKCIblZFfhyqT+/fujTZs22LNnD7Zs2YLq6upGV6BDhw7o06ePy1NWVhZ27drV6BKYzA8dOtSFLSkpwdatW1FWVubyy/SZbr9+/Zy/bdu2IScnx+WJk/2YmBgMHDjQrcZgmDVr1rgwhOG7dOmCbt26ufMdO3Y4eWhzjIqKcnlm2KqqKqxatQoVFRWuLPTPdCkrXlMWO3fubFqBFR0djZ49e7o8M8yyZctcGMKjypmy3bBhg5OnwnS7d+/uZMI8r1u3DjU1NY2uQFJSkpMV06KssrOzmxQKjK9Xr17o2LEjioqKnJyZPtNkvdC+d+/err5YVtYvw9KdYSkr5rm0tNSVienTnf5pP2jQICdXpsnw6kZDWbFtMMzGjRvdkXHSD9NlnilbhmUdMk1eR0ZGNtURlZUsL48K5UBZ0h/riHWsMF2Wl35YPio6WV6tQ+aH7rGxsU5WzDNhnig/tlfWI+W7dOnSfRRNzDPTZV2ybr15Zh2x/hi2vLzctXeVFcvMOvLmmeEZjvmlO9tcSkqKK+emTZucvJk35uFvf/ubS8cwDMMwDMMwDONEwvcbofHc+JLhhJUKBE6si4uLnTIlLS3NuXHCywkx7alooDKHSo34+HinzFi/fr07UmGjYTnh5QSbygFOimlPwwk0wyYmJrowqhBRd06GOWHm5JqTZCommKa6p6enO+UB7RiWSg2mSwUUJ+8My3SZXw2reaYblQOcgK9cuRIFBQVNYVkW5pkwXcZNN4alkqFr165OKcZJ/IoVK5Cbm9tUXsZJ5QCVDJQVjYZlulRYUKFCpQGVQ1oW+tGwVBZQjlRcqDvTat++fZOihUop5lndKavOnTu7IxUlLC/LQjf6T05ORtu2bV06LA+VZSoP5pUKMYalrFj3DEs3+qecWV6eU0lDRQ7jpDvDUGnFOqKyg3WseaJh/VIpQv8sE8PSnmGpJGGeCRV/zBft6U45s82pcojlzcvLa4qXMmI9UKnC8nrTZZ1SicPyMiyVQywv3Rg/YdxMn3leu3atc2OZ6Z91xDxTYbho0aImOdCdCiCWiTJj22CZmB79eOuI+We82iYZP2XE8jJd5pltg0pRzTPDsZ4YlvEyLBWQJ510klPeUdaGYRiGYRiGYRgnErZy6ChBsXMSy8kuJ6O8pqKFChNChY53dQ8n53TjhJf2nNgyvELlEJUejIdhqXBSGD/DcsLNsJxce8NyAk7FEaEbJ8oK46OShX44iWe6VAQpjJNhGR/dNM8MxzzTjWGZH07eaa/lZZ6pDCFMl0bdeGRYlpfpMaw3z5QVw1J5wfJ688x06cawmi7jUxiWsqIdlSm6mokwPrrRD8PSPVhWlCXDMr8sr+aXMF0NS3l464Gy0rDBsqKdllfTZblpT3faax2xrAyvboTKHU03uP696TIs861p0mjbYHpUngSXl3FTLkzTK2fCsM2lyzzTnWE1zwrtKCumy7zwPtA88ah51nS1bRAetY6YZ6+sCOtf88xwTFvlRD9aRwzDPPNIGCeNYRiGYRiGYRjGiYYphwzDMAzDMAzDMAzDME5gbENqwzAMwzAMwzAMwzCMExhTDhmGYRiGYRiGYRiGYZzAmHLIMAzDMAzDMAzDMAzjBMaUQ4ZhGIZhGIZhGIZhGCcwphwyDMMwDMMwDMMwDMM4gTHl0AHCj7od6Ifd9ufX6xbsryV7paVrxftJchIqnNcu+Jp47YLdg/0G4w0XCtozj6H88dxr73ULJricSqgwzcUTnIZeq52eB6fVXNrBeMsZTHAcwenqMdhez1vCG8ZLc/bEa9ecu7dMwX543ZwbUffm3BSvn/2dHygazhueBF978brt71xpzl4JZUe84ULhddNzDaNG7RTvOfH6I3odbE/0Ovi4P7x+1ei1l+bsSUvhgt28dkoofyT4vLk2HHzu9eO9X71uxHvuJTgc0bDNhVHU/UD9BROcRrA/vQ725yU4/P6uleb8qZ33qOfEex6K4PCKxqNmfwT7CfbvdQ92I1qXocI1R3B8we3Bizee5uLcX1pe6C/Yb6iw6s/r5i1nsFtz516C/ewvzP7iULdQfrxuodyD2V8cXlh2r31w/N76C/bnPXoJZaeEikPRvAQbL6HsQuH1E1zGYA7ULfhcr73noQgulxeVb0txeMMHG+JNQ+G5N34voa6D7RSvfXP53V94EuzXi14HxxHsz4vXb6gwzKfKhITyq4SyU/bnFgz9qtFr7/FA8Pr1xkVCxRfsh2gdeQn2p9fBdt6jl1D+g1G34DbiNUpL9s2xPzfDOFhMOXQAhLpBQ92IB3JzhoWFOaN+eU702htHKD9ef6Hc9Uij6agJBf0Ed5hev3TXeDQdL/uLP5SdF42bxttpEk1TCb4mXr/E6x58HhzWC900H4r33OvutSfB/vaXVnNujMPr5k1H3bx4/el5sB9Cu+bsSXB477mmr3aK15/Xj54rXrfgOJTm7IPT5rU3DW+cwXEEX5NgvxqPxksTnKbiDRMcXlF7HmnoHsqP+gtG3TRsMKHCBvvzXjeXtsZPExxnsL3XaHzqTvQYimA3jcNr740zFPQbaiBH/8FxeQmVtsJzDav23vS98XrtFQ2v5140Tm8cwX5Cxalo+FDQPpQsiIbbX1ivW3P+iDd/6s8b3nuu5aQJlonaB18T+tWwhEevnV7reSi84b3QXmkurKJpKt5zRe1CxRvKjqh9cPp67T3Sb7A9CXZrjubCK7RTE8z+4tcykOBz7zXbpDf+5tJRgsN7z71x7C8ebxgl2C1UeEL75u4jb1gNH5wWr2mC3fVaj4TndFcZqZ0evX7pR/PltSfqV9NWvNfBYYIJ5a7xNhdW7VtyJ6H80K4lPyS4XBqOhvZ6rm7BqD8vwfGFip92as+j2tOEwusnGLVTP6Fozl7ZnzvdNL/BaXkN0SMJttMwGhfRa6LHlmAYjfNA8Pr1ptFcHN57tLmwirqHKgPPaehHjV4rzZ2T4LiC3Qnt1ASj9t7yaJzBcXvj97qR5uyJpkFCuRvGoWLKoRbgja03b0vQz4HcqPQTHKeea3hCu7q6Onfutfee053XGqeeK2rnjV+Nxs+jtwNTmotH7XlOo+de1G9z8XrjoJ/w8PCmONSd18H503DEe054TX+h/DAOPefRe040nB7VnuE0X5oH4nVXvH6DUXtv3IqGo/G6B59rHF6/PDJf6qZoWK+995xuWlaNi3jloOVVt1AwbHDaioZrzn1/hEpT7Xj0xqn5V/vgsLRTGak7j4r3nGhcwfGECqdG4bk3rF4TlafXvxIctxcNr/Gq0brScDwPdST0Q6NhvHaEdsHheE8SvVYZEj0qGj7YPhSMh8bbd3nxXodKR/tEhX5oNP3g8F47LUNzafBcZeQ16uY9alzB9t4jw9KfF41T/R0Imof9ERxfcL4Jz73Xmhc1dNNyefOtcak/b9nVjnjDevt0oucar4ZR1J32PPeGVbxpBbu35Ea8aasd0WsaLYO6e93UTgnlR8MH29NO7fWcRsNo3tSOR29bp10oNFwwDN8S3ji9+VFDgstDmC/WL681HFF3Hr33t9feW1ai8WscRMut4dS/Nz518+KNIxTB6XjR+OjOc/XLtIPT1DwTb3zB4YLvAS/e+OhHz/VIvOkEozLRtPSceOPwxk288fl8vsazL7K/tBX1E+xP0ww+eo0X77U3LtprWML0NLy6sa0Ep6Pw2uumNOfXe1R4rekGuxF1U+iHhnZq743D65/HYL90D47Te068/onGEQpv/Dwneq7XTI+oP6J2B4vG4S2DpuWNn6idpsWj5omou6LhNT71q/bBxluuUEfCc41L/Xvj1aP6O1DUrzcunmucXkKlo0bdVDbNlam2ttYdDaM1CJOG9cWWajSRm5uL/Px8REZGIi4uDh06dEB0dDQKCwudvYqPg4D27dujXbt27mGVnZ2NyspKdyPzAcywnTp1QkREBIqLi128euPTneHatm3rbnDGW1FR4eKhG8OkpaUhKioKJSUlKCgocP7oxvCMNykpCdXV1dizZ09TujRMNzU11eWvvLwceXl58Pv9TQM7utEPYbqlpaXunGFjY2ORnp7urpmfnJycpg6IeUpOTkabNm3c9c6dO126CuNMSUlx/pgu5aEwbcoxMTHRXTNeypN+CdPt2LGjK6+G9cqKcqLhtcqZ5wzPumG+YmJinJxZJqL1QDlrHbEOGL/KmelRljwyToalTDVt1i/zTflRzqwLxks35pnlZbq0Z1j6U5gnGq3fsrKyRpfAAI1yZhtjupQH0yVMm+lqWK1/2lOODNu5c2cXtqqqCrt373bl0fplWLYNwnhZXuJtG5Qbw+7atcu5afvQsEyDabKOtLyUM8Oy3Mwz02X+mC/CsKwjxsN4NV3CsJQzw7K9sU0yz4ThmSblzLQ0XS0Pw9KNeVdZaZtkPuPj413boV+Go7wYN+VDO8qKcbA9671AexqmyzrU+mUdMSzdmH7Xrl1dPDU1Na7t8Ejon2VlWOaZ7Y5pMxyvveVlXnfs2LFP22B7ZP0yDeaJYRWmx3uf7YptgrLkkX5ptN+g3CgrGtoTtmPGS1kxrwzL/NBQVgkJCa6eWP9eOTMuujMs5cm2QTmzPMy/V85E2zPjJQyv/QrzyjLpfUR5Us4My7SYblFRkQunsI4YlulSznovEMqQ9cC8MBzrSduOV1YsL9sk4yBMm32Vtg22O+0bCMvEOmK56M46YvtiOOZTZcU0WL8sE+2ZNuXHNsmwvKacKSfGo2FZT6wPlTPdiIalHw2r7YpQDtoXMr/esMwz88S4KSPKinnW+mV+WCbmgeEoK0J3loPxMl1vHdGN/ilD1iHLz7pl2iwTwzF9hmX/TTuWifcTw9KNdcQ6JLz/mLa2DcbNeHlPENYR80xYftYR80y5aD+q9Ut4jzFdppOVlbVP29A8U1ZsGyyTwnJQzoyfYfV5xfwQ773AtsH2ThmqrHgv0A+vmWeWl/HQP9PTOqKsmK7KgnHo84qyohvrl4ZhmWd9Tqqs6I8wDrZnlpf9BWWhzyvmm/nq1q2bO2eeWQ/efoVlZdyMj2G9zxymx2cOj/qMVTkzPpaH9yntmGfKk2WhHFm/zBehDCkPllXvFcqReaZ/ypH3i7qzPWv98t7UZzvzqGH1mUM35o1yoBtlxbAqZ8ZNN8I4eB/QEN4L3vJqHTF9HRdoeRlW+yTGx/LSD2G+NV2WW+uX7U7vBdYt2xbLQDmxHhkP46Vhf6XlZVj6oz3RsKw3Dav5YvwMS1lof8Z0KQvGzzyxjhkX6555pr3mmXXEOBiGstR2Rf9Ml7Jm3OxzgmXFuLUP5n2mMG1tzzxneShLlYXKmekzz95nDmXAe4j3EmFYbc/MB901LNuV1pHKg3VEWRGWl3lmGgxLo/0K7Rg3886yMm2G1eezPjdUVsyzPq+Cx7mEZdW2oXJWmGf2dYxD64h5Z7o0vA80XdYtwysMSzmzvCyjd1zA8qis6I/tWe8jonXE8jKv7M+YBg3rhe1C+zPt++nGPDFu7Qu1TbLc2q5Y3ubS1Twzbywn3VluhTLU54bKmWFpGJbpUiZavyor5ollYpvlNdPU5wbDUT50Y/xsz0zXey8wP3TnuTcsDf3Qjfcv42H9ep9XlAPLxDywjrxtg3Z047OUbN26dZ+2wbKwTGz/TJOyVJiuPq+YLu8FtnfGSZhn7zOH9yjD0DA+1gPzxvT0/lU56piS55Qj8806YxjDaA1MOdQCDzzwAFatWuVu6P79++NrX/sa+vbtixdffBGffPJJU2fOjuf888/HlVde6TqXf/zjH66zJ+zsevTogdtvvx19+vTBhx9+iPfee891JnwwsAquu+46XH755a7zYdzr169vipsDhJ/+9KfuAcewkyZNch0FOxyGZZrXXnute0A899xzWLduncsv/bBTvPfee12HPXv2bOfOTpUdMR8MzNNFF13kHlpMd/HixS6/TJsPvb/+9a+uA5o5cyZeeeWVpkEEw99www0uLDva3/3ud/sMIrp37467777bDV7nzZuHRx99tNElEPaqq67ChRde6Mrwt7/9DWvXrnWdItNmmG984xtOVlOmTMFLL73UJAvm5eKLL3ayYl7+9a9/YdOmTa6zZIeekZGBW2+91dXV22+/jffff9/JgZ0tZcI6uuKKK9wD7ZFHHnHpMg+sBw4sv/Wtb7n6ZZ5fe+01V5c68DnjjDOcO+uVbkuXLnX5ohs76nvuuQe9e/fGrFmz8Oqrr7oOW2FZb775Zhcfy7No0aJGl4BygO2MA5DPP/8czz//vGsbjJfxn3322S5dPkBYB3PnznXhWF4+tO6//34nb9bd448/7uqDcqRh/bBtUbZ///vfsXz5clcexst29c1vfhP9+vVz5X3yySebHriEeb766qtdPp544gmXN8ZJ+BBiHY0cOdLl5+mnn25Kl3I+66yzXJukXP/5z3+6dBkP4aSEdTR48GB89tlneOGFF5pkxbYxfvx43HLLLa59sk3Onz/fxct64sOUYU855RQXlvXAtqsP8wEDBrh7hXVON/rhOfPEhzTLyzyz7ngv8GHOuJnWOeecg+985ztO9m+88Ya7XxTGzTbes2fPpjpiulqmgQMH4pe//KWTH93mzJnj3JhnPuC/973vYfjw4di8ebOrB6ahMN2bbrrJDXwoi48++qjRBa5dMU9sz+yHKEu2A5aH8Z9++um48cYbXd/wpz/9CatXr3b3COuXbYP3KNsP75E///nPzp55YvgxY8bg+uuvdwOYZ555xt3jlBXj5UCD7XX06NFYs2aNc+egirJi+xg0aJC7v3mudcQ6oDvLwbpn+1mwYIFzp5yZL8ZPWX33u9919cF79OOPP3b2hOHpNm7cOCcrynLjxo3OjQwZMgQ///nPnZw/+OCDpr6QMH7WPeW8YcMGPPTQQ/sM5IcOHerqgfl75513XN/APNPwHmR5TzvtNHePUpYczLF8dKcc7rjjDueP6b7++uvOnjC+2267Daeeeiq2bduGBx980JWXbZkMGzbMtVnW5VNPPeWeG9ofsY7YF/J+oXz/8pe/uEG1wnvk61//ugv71ltvuf5fB+McXLIfvPTSS52M/ve//7k+WOuXcmZ7Z57ZH02bNq2pfnlfsl+44IILsGXLFldHlBnLyzbC9sZ6YLti/UyYMMHdI9qmKQvW7/bt211/xnbHNBk/7+9f/OIXLn8sK+uYg2LGzXT5DGU/zLyyD+aR9U55srxs70x3xowZrt15oSzOPfdcd+9RzkxfYR/IPDN91i3vf4Xpsk0yLPup//u//3N9DvPEMrFdsf4ZdvLkye4+ZHkIn+3sB8877zx337KP5XOD7Y1h2eez/pm+lpdpMG4a3t8sMwf4+nwmLDPD8BnMOHRcwAkTZcw8X3bZZc6wbTBPlDPTJGx3vKfZF0+fPh3vvvvuPs8c3kN8Jum4YMWKFY0uAcURnzkcF7D/Zrtku2Ke2DZ1TMF7gW5LlixpkhWfsT/+8Y9dWNbRyy+/3KTEocwYls9Y2nEcxLbJsHTnROoHP/iBe+YwXT5X2N40XbaLSy65xLWdX//618jMzHRh6U4Z8T5iH8y+mc8cvRdYF2yP7O+Y5//+979OznqPso/T/oz1y/tfxzJMd+zYsa4OmRc+BykrDct7784778RJJ53UNC6gEoD5on/ml2E5YaUbn8MMS8M6/NWvfuWetZ9++qlz531EKMsRI0Y4WfKepxzZXxLGS1mxP2MboQzZ97P96diNcuY9TL8cF/D+JoyX/TfvQY6l+Lxim+VzQ+FYhs8N9sF8rvHeVxiW97f2o3RXWL98PlPODMu2wbpge2UdMCzr6OSTT3ZyYD3wXtA2y7C8F3hNNz6HVcHB8jJPrCPKmf0K5cLyUpa0573Ca/ZXTJf1z/uT+fr+97/v8syxBuXBcRrriM8K9sEcJzE+1j3bLcMyHwzP+4T1u3LlStfneCf5vI/uuusuV0aOC3iPK+y/f/SjH7l+i3VEOetzg2WiHBg3ZcM8MSzLwnTZxr/97W+7vLEf47iAbVf7FabLcQH7b95HlAndmA+VM2XCuQL7UfaJeh9xjMP2zjqiHLVtUE4sL+NlX8h2zvKyPTMsYZ45/mJ98PnLcYHeZxx/sf74rGMfyLDsXwjLTDmwD2Zc7MvYL1EOLDPt2G7Yn3Esw/bOOlJ5sD/hPc/2wOcN+0O2bbqx3BxvcrzDPoFthzJjeVi/HMvwPmJaDDtx4kR3zjwxPJ/7lCfDss1ynsWwlCX7s/vuu889c/icZP9Ae4ajrCiLM88808mA/tgXK6NGjXLuHLvzmcNxgULZs71SVpTRww8/vM+Ygs9YuvP+1nEf80Q3lpdjdz53mB7rn/XLfBHOUdjnsC9kv09Zsk/luMUwWgNTDrUAJ3y8+Xv16uU6Nxre3Np5eKG9dkZ6EysMxxufbjTaIdIwDN31oaAdooYjDMtzhtOwiroRdVc0XR41brXntddNDeGR+aK7XmuZeM4wmm8e2RF7ob2GDc4Tw2u6DMtOV/OgR8qCbjwPjlvzRTdvnog3XXXTtBmOhn5oKAu68VxhWE1X61jzpG6EbhqWR3VTv5q2QnutX41X4Tkf6IyHcXjrnzSXLv3QcLDEI+3VTvGGDY6X9jS086ZLw/gZlvCoslLUneFoT3e1Z3i68ZxG3RTaadoMG0pWDM946K7p0p5ovuiuYelGf3SjnDXcgYQldKdReWjaXrRN0j64DgnrUMOpG4+MV9PlebA8VBZ00/pVGN7bNvReoF+6aTgazRftNH3mWd28+aKdNyzj5VHzS5hntdPyqjuNugfnmdCNhm40Gg9hujRE80V3ReMlmq5Ce5UH7SlL9Us73gu007SDw+o9SL90V3uvm8brlaPKSu00XZ7zyPTopvFqOEJ7b7qad4YjDKvXmidF06ShG8N6YVgaTVfdvXHzXN1JsBvT1rDqpml60/WWieUhtKPRdAnjYNwM602X0K+GJXTXuBmOhvWr8tV6UDRe+qdbMIyb4UKlq2E1XvrhOVF74o2bdjR013yoG/0RuntlSXc955Gou1fOGl77DRqVheJNN9iNMCzReL0wDcqD9sFhea71QH/Ms7rzOrj+vHGrm+KdhBG60xCNl0bLTL8813S90E3dmS6NN1xwvhS6szx043lwvETDNicrujMsjbrznG4qq+C46cY4aXhON4blOY/qxrg1z4xDw9JO65DnNF6YruZBw/KcR5Ux0bR51Gt1p1+vrAjzROhHx19eaK/pBIelPcPTjfnl0QvD0tBNZaVxqSyIumn44DyrLHhUOWq+vXL2xq3u3nwFp0s3jZtu3nRJqPJq/dNNwxKGVzeidUQ0X3wmEYbTOtJ0NW6NV8MS5pnuRN1otIzMs7qzDmmvfuimZQrOM6FfjZ95Yhiea/wad/DYm6gb/QbLiqg8mKY3Xfqnmzcsj+pGVBGo4dSeYYLTVTdCe8bNcDzXtkU0LGHZtO0oKgvGR79aJo2fYTW898dTomEZjnF65cHwKgvNk+aPaFiiZfLCNOmubpofhqfxhqVSc+rUqfjZz37m7AzjcDHlUAv85je/aVIOKRQZb3K98QntaHjT6lE7AS/B4mY87AS89t542AF4OzJvnOqvObzujINxabzBYdVeCb7Wc+2QiMbJTo/HYDeGYdnUn6JxBedFj157huORqHvwOeE50/GGJ+pPrzWM99rrR9312msX6lyvCTtwvQ7lpmUJdmO+iddOCeWfdsGoP6+bhvHaqz8vwe7qx1tnRP2Q5uJR1K+WTR+uiqZDgtPRMCQ4DeLNL/HmhUevPL3+vG2JeMMpwXbqn3bB8RGvfz0G+yG0Y/raRrxlppuaYDdt0+pOt+B0NJwevfBa4yB6HuyP7C8eoumFcqMd46YfvefVXuP0omnQn7dMRMMSDa+o/1BonMFpEXXTuNSPHkOlo6h9cFhCu1BxEV7zXP3QaN7VL1F/Xv+K+uORxnsfqV1zYbXP8RLKf3A8DKN2RO0VXofC64/nlGGwX73WvOm116/mQe28cWj82g6C3bzxeMuublo2b7wapxf1S4L98TpUGK+/4Lx7w9J48xnsFpxOKH+KxqP+QrkRunvlQTcanVB53YJhWI3LG783TW/eeO69VtQ/UX/esMHXWldqr+h5sL2GIzz3lskbjx69YbV8odxo50X9Ek0j2A/R+IJRe03LaxcKb/1oGB5p582LNz7FG6/XTePkfUhC9Ssav6ZNguNSv5qON596VDdvGG9eeB6cjkJ7xRsmGE2PBPvjtddd0/f6UzlqPoLdiMbjzSfdaBf8zFM0jIbjUdmfG/G667nGrX557bULZU+84w71Q7x+FC0Hod/gsZvX3SsL4nUj3vgZV3C+6F/tvPki3mumo36Jumk4PWp+eK6Gdt74vedeu2A/RK+Jli3UvaJ45UH/dNO8e91CofHQH8+ZB2+Z9VyN+ueRK7G4Sour2AyjNdh/azXcjadG4Y0Z3GF6b1o1LUE/2hF40bA80s17rXjtmjsnGp4mOB1F/SqhroPtiMYZLAtFO8NQYYPzovnkUd00HI/eOLx+ggmVFu1CdczB8e/Pj+ZPrxVvPhieJtgPCWWn0C1U2kTDedPxxsXzYDc1eq15V7znxFs2NWofHLfXr6LXwf5D+SXqJ9heoX2wHL3n3njVrxIct9evnoeCbl73UMf9uRONIxTqb3/3ijcuL4xT3WmC0wnOgxdeazjvNfHaK8HXRP3RePNBgvOh5QvlR68VXnvrzos3vBdvejz3GrUj3rDedLx+SXA66q7+1S04Pu+1EuzX60+PwekT9ef1r+h1sL0XunnLp4Qqc3PxeevBG4fXn9ePNx6vH71mHF574r0Ozhuv1d0bPjgOQrtDuY9CuXnLStTdG7/mkW7e8HqtdhpXsD8llD897s9N7UKhYdW/F69dsDuvm5Mh0/Ma9atxeI/BduqfeNsLUXvi9RcM7ZtzI9586bnSXFivXSg/aqf2wXF6UVnQeNNXO/VPez0PJpR9sJ2GVznyXP14j6HOvYSyUxh3qHbgTbM5QpXba6dHLYfaeQm2o1+NQ2Fe1F7jI96w9BOchl5741N3jU/P1a+WOxgNFwztg+Xn9atpNCdPbx4U+lF/3vNgv964vHZe/2q0zao/xetH3bzxhiI4jWCC60LPQ4VRudCO7t48eA3tg2UY7K72RO2JNz2vH9JcfTOMN05NPzg88aYVDO296e8P+vXmR9PXuDUPisZNpRFf9+MrqobRWtjKoRbge8p8L5Qrh5rrSAzDMI4WOogwDMMwDMMwTgyoHOLKML4CyH3oDKM1MG1HC3DTMN2pnjehYRjGsYQphgzDMAzDME4suGiBrwdz83vDaC1s5VAL8Gs31Mbq0lFbPWQYhmEYhmEYhmEcDXT6zq+kct8hfrnUMFoD03S0AD9HSIWQ/TpvGIZhGIZhGIZhHG2oICoqKsLatWsbbQzj8DHlUAts377dfSaSN6AtsjIMwzAMwzAMwzAM43jDlEMt8Prrr2PXrl3u3F4pMwzDMAzDMAzDMAzjeMO0HS1QXl5uK4YMwzAMwzAMwzCMYwZue2KLF4zWxFpTC9jrZIZhGIZhGIZhGMaxgO6F26lTJ5x88snu3DBaA1MOtYBuRm0KIsMwDMMwDMMwDONownkp56cpKSk45ZRTGm0N4/Ax5VALpKenIzo62pbsGYZhGIZhGIZhGEcVKoZo6uvrUVdX12hrGIdPWIMtidkvBQUFaNOmDSIiIty1LuMzDMMwjIOFA7nmniP6OOaPETynX5/P5+wU2tMcyA8WoR7vB/sMYxyhwhxMPo5XVDZap8Fy8toHy5FutGP98px4Zal2XuxHKsMwDMNLVlaW+5T9+eef32hjGIeHjTRaoH379k2KIcMwDMM4FFSZ4lUiqB2hHSf/6kblQLAygH5p7/f7m8I1h7p7/XmVEwcKw/BXSabpJVQZTjQoA5Y9lFxV+UMoP5WTGq1b/cVX4yLqnzAeXodKwzAMwzhx4XMiPz8fS5cubbQxjMPHlEMtkJmZ6b5YRnSwZhiGYRgHivfZwUl+bW1tk/JHlQKqTOC1ugVDe4aNioo6oOeRxqsKCF4fSDgv6j9UWK9C40TEW/Zg5Q2VaVq/WpesC0XDsm7UnnYMx9VEDKcKucjISHc0DMMwDKLPED4vQo0XDONQsdfKWuDBBx/E1VdfjR49enxh8GcYhmEYodBHK48VFRXIyclBcXGxe44kJycjNTV1n0EdFQT8BXD37t1NigVuNNmhQwenDCJFRUXYtGkT+vbti8TExC88k5gW7XisrKxEYWGhS1eVQ507d3ZxqvKhJRgP88I4cnNzm+L2wnwzj127dv1SVtlqGY8F+MPR5s2bm5Q4XphH1jFlk5eX5+QXGxuLjIwMp+xhOWi3a9cuxMXFuf0N4+Pjm+RbVlaGjRs3uvBdunRx8amyyTAMwzDIihUrMGXKFPzsZz9rtDGMw8OUQy3wwAMP4NZbb0Xv3r1tUGYYhmG0CB+r+milAmDy5Ml4//33nSKAK39GjhyJ22+/HWPGjGlaBURFwLPPPov58+c75U1VVRWGDh3q/I0YMcIpFOh2ww034OWXX8Zpp53m4le8aTKNhQsX4rnnnsOyZcucHeM79dRT8d3vfhcnnXRS0/OspecalRSPPfYYnn/+eaecCFZQ8Pymm27CN7/5TbRr167RtnXQMml6Wj5Cu5byfqThoPwb3/iGU8JRwePNDxVB3//+93HFFVfghRdewH/+8x/3I9Pjjz/uFGmsj7/97W945pln3GeIf/WrX7l60fJOmzbNyZTh6cZX3I92eQ3DMIxjA30e8jk0ffp0/PjHP3bXhnG42Dq0A+BYGIQahmEYXw30mUEFwIcffoinnnoKbdu2dYqEm2++2W0e+eijj7rXljnA44cPqCSg8udrX/sa7r33XlxyySVYsmQJXn/9dbfyhKt/uBqICqbq6urGlPaiSgUarj568sknsWbNGlx22WVNSoqpU6fin//8Z8iVLs3BlUElJSUoLS11Cqk77rjDKaxobrvtNnccPXo0YmJiGkO0HlqenTt34rXXXsOGDRv2URAdbWpqapzyjyuEqLRTudDceOON6N+/v/PHFUasE9Y7z1kGKvBWrlzpysb657VC9+XLlzu3VatWYceOHa4ejqWyG4ZhGEcfrkQePnx445VhHD6mHGoBXfJvgzLDMAzjYOArYO+++y46deqEH/zgB05p8O1vfxtf//rX3Yqezz77zCl9Vq9ejc8//9ytFLnllltw7rnnuhWrp59+OtatW+eUA4QriggVJsGoIoXPqtmzZ7vXnZgW06Xi4p577nHxzpgxwykd9Jl2oM+2hIQEXHrppS5Orj6i+d73vofvfOc7GDdu3BFRDhHmb+vWrU6ZRoUJFVuhyv9lo3JjnXCF17e+9S0nDzW8pr36Y575WuC2bducHRWHrAd185aJZfzoo4/cl1KpVKISUfclMgzDMAx93vNVcf5AYxithSmHWoDv+3PwpwM8wzAMw2gJTvD5qhhX+lDJ06dPH0RHR7vXj6g04GtHVB5ROdSzZ0/83//9Hy6++GLnh/AVLb7OzOePrhQKfg7pahI1hEfG/7vf/c6tGuLrSFTc6K+L3P+IexvpwHJ/aLyquOCeQny9jXnkka/E6Tnz4l3domF1w2W1VyWH7oOk/po7Z9oMw3wHK4Y0XhqN1xueaaibGvWvftSo+6HAOqIsKAc1vKa8GCfzTD9c+bVgwQJnx32cuGKI9sFlys7OdkokfpqY7YQrprwriwzDMIwTGz63+Ozgc4bPCcNoLUw51AJcGs7NIIkOKA3DMAxjf3CvHq50oWKHyh8dvHEwR4UN9xviiiIqPLgHzdlnn+1ePaNygAoDbl7NVUNUvlCxQzsv+jziK1/cX4ifsuVqFPobMGAAzjrrLKdgYno0fAVq/fr1btNjfaZ5lRKh0LDME9PTlbREw2o+1I0KGe7BwxVKH3/8MebMmeNWyNCexpsmlSNz587FJ5984oyupKFMqEjhiiruvcPX6yhP7q0wa9YsFzdXRmnamk++ssX4uDknw1EBo+70yyPl9emnn7q0mU5WVpbLI1cnqcLqYGHcKqNgwzQZb8eOHdGtW7cmWVDhQ5mNHTvW1TH9KswPlWHca6p79+7u9bM9e/a4uAzDMAxDnwd8zs2cOdOdG0ZrYMqhFuCgXL/A4h28GYZhGEYo+KygokL3CuLrQV7FCif8f//7392rR1TW0E1XkPB5w5Uj3ACaSoIzzzzTKRW8igE9pwKBe/H88Ic/dMohwrS5ciV4RQpXMFGxws2w09LSGm33jz7zmD+eUwHCOPWcyhWeq6Hbli1bcOedd+Kaa65pMnfffXdT/ghlwlVVfNWNeyHRXH/99W4/Jr5ex/SoxPnzn/+Mq666Cr/4xS9cvI888khTnNy8mwokzQuVLvfff7/7uijD0A/3eKIiiOkxTuaPCie6cX8nKq+YV+6d9N5777n4DhTGRcO0GXewYZoqF9YplUNUBlIpxXrjK2Z8Va9Xr17Ov8ZHJR7zRgUiFYbDhg1z7YH1x7gMwzAMg/CZQOUQV6QaRmthyqEW4K+TOmDkwM0wDMMw9odO9Kk80deMiCpXqLihYoCvmAVP+PllswsvvNDtsUNFDl8N46ojVTQQHrmShoqhF1980SlD6I+vMjF+puOFfl999VWnlPjRj370hTT3h/rlSqZf//rXuPLKK50yh0oY7jfEfZMI06Wf//f//p/bRJmvtXHfHCp4aM8vdnFFEeNTpRYVNX/5y1+cQoibdpO//vWvTm5UjvzpT39yCjJ+4Yuv5f3yl790q4b4ZRbufUTFGtPlptBMh8qv3//+927FFr/UxnQeeugh9/oe02W89E/FDP3+61//cnGwHFTCaT0dCIxPZUNF3qBBg5wSTw3rkOVmXbM+eOQG1dw/iooeruLiSjGu4tJ4eOQKIa4EowKxX79+blUZ5caxSHC9GoZhGCcm+twgfPYbRmthyqEWePvtt93AkwNKGsMwDMM4EHTwRsUAV4coXFVCw31k6EevyZAhQ9xKG752RiULV7dQuUN/NIyLSg8qkfQz6Fxxw1UpmoZ35Qpfa+MG1XzViitmuBLFu1Jlf881deORYXQvHe+eQ7RnOvTDfGVkZDgF1F133eXKwH1zWCYqQ6iUIVTSUEnC1+3OO+88p/jhZtd/+MMfcN111zUp1dLT093n3bm6hvsmUWHCuFiGzp07N8mOr5JRSUWFDOOj4o37K1FpRqUKv9pGKDvN66RJk9zX16iU+tnPfub8H8ym2oxD5TN48GC3mbh3Q2p+dU4H7OqX5eBqMuaHCrGBAwc6WRLmi2zfvt2tqmJ9st6TkpJcvmjHL8Yp6t8wDMM48dBngD0LjNbGlEMtwMEZB6qGYRiGcaBQGcDXiThwoxJIVw3xmkqSiRMnulUxXJmq9vTDlSJ83eyPf/yjWznCHyj4CXQqQajc4JGvSj344INOWdC3b1+3AoVxeOE1/VKpwJUtfJWMX0vjaqWDQfOWmJiIn/zkJ/jf//6Hp59+2h25Woerm+iHeeerU9xY+9RTT8XixYsxYcIEvPzyy/t8ZYyGChGutOEPL1xRxJVA3F+JyiCuTNKVUqrs0nChzilbvlJGJRgVTlwx9MQTTzjFGb8IRxnwi18qf8JzbtrNL64xzxqnuh8MzCMVS4yLSjE1lDVXJSmMW18PpAKIyjIqxQjLSkPmzZvn9o6iH8r3zTffdK+VsR7Zbrx+DcMwjBMT73OLzzTDaC1MOdQCvOkMwzAM42Cg0oCGe8hwRQ0n9DqQ42tFfN2J+9yo4oh+6UZ/VAL16NHDrWyhX37KnMoVVRAxHBULXEHDjZeb+9Q5lQp8nYyvN91xxx0uzkN5pjFPzB+VNtw/SQ1X6HCFjyos+GMKV+T89re/dUofKrGYfyqkvOmyDJdffrl7PY2vfHH/oAceeMCtHOLrXiynyqIl6JfKFOaPewTydTQqy3ikfKi0UQWWxsf0L7roIrdh9+HgLRMVgZSFGt2rkDBd+mW+uCLoww8/dHnmKitCNxrKj0o1KpXol4pDrj7ip4opJ26erUo2wzAMw+BzjKtQDaO1MOVQC+iA+0AGqYZhGIZBqEihMoZQQUIlkT5HuMqFe8tQucKJPlcRce8gKpGo5KA/KjCoZOA1FQLeZxC/cMX9d2666SanUKCCiBs4K3xucZUJlUh83YpKmPHjx+/zGhj90Bzos83rT8+ZR1VsEL4qxY22ucrohhtucK9XcbURX33TL3JpWJaNr5BRKcRX0KgI42t0Dz/8sJMNUf80zLcXTZP2jJvyPvfcc/H1r3/drbziZtR8tYuvmfF1NPr3pk9FUmvA+Bg38+E16kYZa15Z36w7bjhNJRFXLWl4Gm66zdfg6Id7NnH/JCrMbrnlFuTn5zt3KsMMwzCMExt9bqSmpuL0009vtDWMw8eUQy3AQSUHsYZhGIZxoFARwP1yeKSChgoPXSVEJYp+4p4KG74W9d///te9XkV3KoO4CTG/8MVfBalk4koUDgTpzr2DuLkx9/Sh4f5D3MeGigMqG7gqhSt4XnnlFfc5dO7nw71rdDDJOIgqSvYH/auyQ8PTaFi9JtxIma9w8QtgZ5xxhsu3viKlr8/RsGx8ZYoraPiqFT+7z32WLrnkEve6Fb++okoTwrIzD6pg8xoqhvjKHOXJDa6psOJKJdrzVTUqWLgnkVdJoyuT9Ppw8MrGC9Oj0XwS5on1xvrlqiEqiDQc/XIFGL9mRtn17t3bKY9YNu6zxPrj6iHKUeMzDMMwTlz43OAclT+OGEZrYcqhFuCGltTKtsYg0jAMwzj+4eSdgza+znTOOee4V6W4Ioafm+VeOPz6FpUE48aNcwoDrurh4I6raLhfDjeQ5p5CVPpw1Q1fIVPlEJURfGWKR756xE2Yec5VQtyDiGlTGcPPvnP1EAeOU6dOdSuTaF566SW3BxBRxUZzaDl4pF8eaULBvFERRmXQW2+95RQ1VFBRCcQvjOnqJypmuMEyV0lxPx19LW7lypVOGcY4qBDzpsVnMA2VSUuWLHFxc4Nt7sPDfHHVEWXN/YZYRrpThty3ibLo0KGDyx/jo39VNtHuUJ/tWhYeqYSiIk5lrHJmfsvLy53CStNmXlh+7i3FFVaaPpU+LBvhBtcMQ9kTlp0bcFPJpV98ozEMwzBOTPgM4PODK5O5f6FhtBamHGoBDr45eLfBmGEYhnEgcMDGyT0n/9///vdx7bXXur1/uM8NNyvm58vvvfdep/ShXyoD+Jl4rhThl7O4KTP37OFrUvwKFlePECo1uB8NFQmEYbmxM5VM3N+HChY+p6iM4itIXMXz5JNPule7aH784x+7Iz8xz7CqfNgf9MN0+RykURjeC6+58oef1OcG2FR4cTUQV/twZRDd+aUuxkcFEF//orKEr59xdROVXBs2bGiSD/1rGlSM3HbbbW7lDGUyevRo/PCHP3RlZHyU23333ecUaVSwjRo1yr1Kx1fu7rnnHmfP+lCYPuM+3Gc6w1PRw5VhP//5z11aaijnRx991L0OxrS4Qoz+BwwY4FaMUUlEO8qWRyrLqGSiYoztgTAcZURlIL90Rlly/yiWmfaGYRjGiYk+v/hcXbRokTs3jNYgTBqXaTz2A5d4c+NNDuCIDlYNwzAMozn4aNXnBVePcMUHV/JQwUJlhr7mpdA/9w3i5J/nXPFDP/rFK9rx1SkOBBme8Wh4KkEYVv0zDu9nz4PRDY8Z5/6UDHSnIoJxcUUQwzT3uXf6ZX7olwoRHqkc0719KAPmT7+WxlU39MNnLI8sj24orc9bxkkYL1ceMV6Wn9eMi3LQ/NAv5UA/LD/TYX4ZpyqG6Iev9vG1NW9YL/RDQ7kEK2F4TdSOyhqmx7KEgmViHig7lR/DMgzTpnyYZ8bDc8qB5dTVyswHj1oHVCCxPFQmGYZhGCcu+nzgSmD+4MMvhRpGa2DKoRb405/+5Db95P4A+xtEG4ZhGMb+OFZWfDAfNFRKeFfUBMPhAd2prOEg9EBh3PR/IGGChyAthWHcJJQcmxvOHEzeqTzyKnu8YWmv15SJ7UdoGIZhHA30ebds2TL3ejZXIxtGa2DKoRbgUn8uZ9evnZiCyDAMwzhU+Mg9GGXFkYAKlh07drh9CvaXF+6DxFecuLE0n31HIt/eIUhL8QcPV0L59/pRWR9MvvlqF/f+YXmpDAp+5qviq2/fvu51NcMwDMP4stFnHb/ySeUQX8k2jNbANB0toL9SHszg0jAMwzBCcaw8S/iKGl9142td/JJaKMPXs/g6lCpEWiJYeXMgHIw86NdrQuF125+/5qBcWHbKJlge+mogj3xNzjAMwzCOBvps4+vK3HvQMFoLWznUAvfffz9uv/12txnkoQw0DcMwDONYgo99Knz0C2L7e67xtTKaE+XZR5lQNi0NjbiiyF4rMwzDMI4G+uzmDxo03B/XMFoDUw61AD87fMEFF7ivpRBTDhmGYRjHA/r4t+eaYRiGYXx1UOWQPceN1saUQy2gXz3hL6cU1f427zQMwzCMY53g16WbGwbQ/UQbcKpsQhEsCxuMG4ZhGEcLPq+ys7PdXnnnnHNOo61hHB6251ALcJmeLqm3zagNwzCMrzp8ltGo8kevg82JqPwIJQc1Ki81hmEYhnE00B918vPz3UcUDKO1MG1HC/CLLvzcL7FFVoZhGIZhGIZhGMbRxuamRmtjyqEWeP3117Fr1y5389kvhYZhGIZhGIZhGIZhHG+YcqgFysrKTCtrGIZhGIZhGIZhHFPY4gWjNTHlUAvU1dXtd4NKwzAMwzAMwzAMw/gySU5OxkknndR4ZRiHjymHWsA2njQMwzAMwzAMwzCOFTg/TUtLw7hx4xptDOPwMeVQC/Cmi4yMNCWRYRiGYRiGYRiGcUzAuWlERETjlWEcPmENtqHOfikoKEBiYqK78UxBZBiGYRiGYRiGYRwtOH2nycnJwaZNm3Daaac1uhjG4WErh1qA73KaYsgwDMMwDMMwDMM4FuC8NC8vD5999lmjjWEcPqYcaoEdO3agqqrKndsiK8MwDMMwDMMwDONooYsWODe1xQtGa2LKoRZ4++23sXv3brv5DMMwDMMwDMMwjKMKv6StixZszyGjNTHlUAtwzyF+zt4UQ4ZhGIZhGIZhGMbRRBVDXiWRYbQGphxqAVMKGYZhGIZhGIZhGMcC+kpZx44dMXz48EZbwzh8TDlkGIZhGIZhGIZhGF8BdPFCSkoKxowZ484NozUw5VALxMXFNWlnDcMwjOMfvkpsS7UNwzBObOzVHeNYhXNTmvDwcMTGxjbaGsbhEyadnfV2+yEnJwdJSUmIjo5216qpNQzDMI4/+EjUiQAHXdbnG4ZhnLjwecBngT4TDONYgO2RJj8/H5mZmTjllFMaXQzj8LBergX4LmdUVFTTTWgYhmEcv3gVQ4ZhGMaJC58HPp/PngnGMYeuHMrOzsbMmTMbbQ3j8LGVQy2QlZXVpCAi9nAwDMM4flm+fLn7FY5Yf28YhnHiwikSx/9nnnlm0zYThnEsQMUl4ZhlxowZ+MlPfuKuDeNwMeVQC/zzn//EFVdcge7du9tDwTAM4zjnX//6lxt0ZWRkuGt7RBqGYZyY8AeCyZMn41e/+hW6du1qPxgYxwzcG5FQOTR9+nTce++97towDhdTDrXAAw88gFtvvRW9e/c25ZBhGMZxzuOPP46xY8di2LBh7toekYZhGCcmHPf/+te/xje/+U106dLFlEPGMQPHJjQrV67Exx9/jJ/97GeNLoZxeFgv1wJ8MNjDwDAM48RA95dQ+AwwY8aMGTMnniF8HnAeYHMB41hC22j79u0xePDgRlvDOHysp2sB1cwahmEYxz+6VNs7QTBjxowZMyeeITYPMI5FtF2mpKTgtNNOa7Q1jMPHlEMtkJycjMjIyMYrwzAMwzAMwzCOd1RBxKMpiIxjEc5RuVm6YbQWphxqgWuvvRapqanu3B4MhmEYhmEYhmEYxtFC56S7d+/G3Llz3blhtAamHGoBbkCnK4dMOWQYhmEYhmEYhmEcTbiiLTc3FwsXLmy0MYzDx5RDLVBcXOz2oDDFkGEYhmEYhmEYhnE08b7qqHslGkZrYMqhFnj22Wexc+dOd67vHhuGYRiGYRiGYRjG0UC/oGcLGIzWxJRDLVBUVAS/32+KIcMwDMMwDMMwDOOoQ6UQ56c+n6/RxjAOH1MOtUB9ff0+S/cMwzAMwzAMwzAM42igc9OkpCT079+/0dYwDh9TDrUAbzxTDBmGYRiGYRiGYRjHAnytLCUlBePHj2+0MYzDx5RDLdC5c2f3tTJ7rcwwDMMwDMMwDMM4mujChejoaLd6yDBaC1MOtcA111yD1NRUd24riAzDMAzDMAzDMIyjhb5Wtnv3bsydO7fR1jAOH1MOtUBycrJbOWSvlxmGYRjGCQYf+55HP0/r3dHGA186TuRaIayB+qZ/PD9U9sYS+BeIK1DLxv4IyMlbD4F/JjfDONLovDQvLw/z589vtDWMw8eUQy1QUFCA2tpap6HVTwYahmEYxleGvfNpMwdrSONb5XoZYN+rg8Ibv5kDN8RzzmoJlwuaMK2kQyAQMhBxWKNpSshzaibIOL4os8C5YRhfBvxwki1eMFoT03a0wIsvvojs7OzGK8MwDMP4imFb5h0SHG7Xi+zqeHQ2AThwOhxlhHE4UO5iWDH1UhP1voBpOPT6CGsIR3iDz5kwMWgyNkTeL5RPo6wot70yNLkZhmF8VbEevAVKS0vh9/udZtYwDMMwvgp4f0lUJYeZgzMNYXxFxi/SqxN5BoxYBzhIZYTWB4/1YTSajvfczP5NA+qcvAIyYxVQqno8VNzLUayXer6mEUirToxfzL7pm/Eayody4jnl5to2ja0cMowjjn4oyT6YZLQ2phxqgbo6/mZoGIZhGF8d3EStcbn5vruz2L8D/UephTX4nUF9LRr4I5GbBbv/BwXrgeMJd6yvk0m0Gqubg/kn0pO/daij4i6sAbVy5XcyPDRYj34XY+AuoY27d1xKgdTs3xf/BWohICfKi3Krb2Bd1KNGDO0NwzhyBO47oH379hgwYIA7N4zWIEwal/Xg++FXv/oVbr/9dvTo0cPtOWQaWsMwjOOXxx9/HGPGjMGIESMabb6a8NG+Z88et1Fl7q4d8rC31a8HA5/0bu+UBqoOgNi4BJw6/gx07daDP9U6czDDAdYHlXU7d+zArGmfoKHOjzq5Dg/jjjk2DGuJgKilJsIorTA58yEqJhbjTz8Tnbt2RUS4T2TpPB0UdfV+bNq6GZ8vWIiakjKES1VwnFcX7lKTa7tvmqNe2i7l5eNtIu2bP6V27d0Dw0adjOQ27VzbPh64//778Z3vfAedO3e2OYBxzKDTd+6LW1VVhTZt2rhrwzhcTDnUAo8++iguv/xydJXBh21IbRiGcXxzvCiHqIhYu3YtPnj/fSTJrLljXJzY2uP+oJB5YENEmFuZsmnrdpx5/oUYe9qZCPdFIExkGn4Q2ggdak2ZPBmrP52Fbp3T4Av3BRQR9bZC+UCgSoh1UkeZwYfMrCyccfZ5GH/OOVIfMj47BO1QdU0VZk3/GAs/nYPeaV0RxfekXBpUflDxYXXTHHVOORTmlEMUWn5pEaoigMuuvxbde/YVG1MOGcaRgs8UtkddIezz+RpdDOPwMOVQCxQWFiIxMdHdgDSmIDIMwzh++aoqhwLrKXgif+V/nTza16xYhrmfTMWQjG5ITWrDRRfOj5tkNz75I2QCx3/1cl0rE+FwN8BsdJRD45mE4VnABOy4JbN+l4ixBtxo464aJE5O1iVRGWg4w6y5CTf/OF/BNLhXhQJxuaAeNEyocC3hzas3UuYpkB4PzJ+/8RkfKSLiqgi/iMMv8pm5YBH6jByJU846C1HR0c4/FUQHCodaNBPeeRc1m7fg5JOGwCcJ1NdzH6NAnii5iLCIwOvsnITKfxdO0uHrZ+G0oL+wvatZXMkk43RxZQhYO1ge4g6NDrTjaYNM7APyZaqB8oeCYdVJ41OaC3N4SKSNEfOvK1lj+QItj/kNk3oKw+xlS9FtwGCcfdHFUllSUYegHKqqqsD0KZOxa80GnDViJCLkRtBYmI06vrjmxn9yp0gagRep5D4RT3yljXmhP5fDRgEFcti8TNnmwqU+6ZteuEqJRypZWJeMLRTNRNdEqPpxVnIMdvPSnBPTY/vn/cp7gXG4eBivGN6rvPSxOxEZbc/PxfrsbJx9+WXo2XeAeNpPoscwnGzTcLLN429+8xvcfffd7kdidSc2HzCONnw+5OfnY+vWrRg1alSjrWEcHtaztUC7du3cA4IPAXsQGIZhGMcenMZxwsJj4C8n0pyARtXXIVquI2U2GykTvUh5jEXIeZScOyPztyiZ4tE+NppnfNVJ7OR5F+ULR4Qv4NZkXDiJl0auaWgXwbjViF2MTAyjxUS6o8QtJkZmmJFioph+Y9h9TSCtgDvzy3xKeF67NMJcOgdrXHxhUh4pUyCOgGH8Wq5oTb8xjMuzSCNgfIh0wyWRjviRg/wPyPpg4XyZY4oIGpcmZVLfVO7IhnrEidwToiJc3URLHpkXyoDy1HwGy45+vNf7lp+yD8TBduDqlv6dTAJ2Xv9qXF27cAEZqQmE/aL/wzVN6TXG78oqR5d3OUaKXKLCfa5OYpi+5Lte2iGVZ4dWG0QiCpO6EFlEUx4uLw2urTKN2AggXjIWIzLz1Us9SYgYqZOoMLmvXP6kPYu/vYbxBNpVqDKqodxjJG2Vv6tTCReqbr3GWw/7GInTe71POLp50g42+/gNMpFsK5Inlon5i3BlC1xHimxc2/WJiWiQ+pBxsthTkfZVVQypEnfdunW4/vrrcdppp+Hpp5/GFVdcgWuuuQbTpk1zr/HYCiLjaKNtddeuXZg6dWqjrWEcPtL1G/tj586d7l1OvQkNwzAM46sCpzBUEvnEyDwusJpAlwA0hKNW3KtkIlwrE94aroSQWSRXSBD33JMYuLcIV09wdUCAwGqJpidi47ORfvjKj18m24H9SMLcqgN+2pprLMQSEW7VUCBsKMNBiWSnyTAdwlCa+sHCUgRW2+xdzcED8+RW0EiqzGvA6AoOGvqiaT0YW2B1FOMPpOlznwDnSh4pvUy8+RpbbU2tywvrLLyuAZF1MhGv1yPlGi6y9CGiTmQqdvTbHKxDt8ajsT640iOC8Uo6+ysjbQNSE79iKBdneC7mUOujOZgO19yES9lcXUheeaS9HJrJ5ZHBvVYmhW6QhOtrRQoie66yi5DrML/kxB8mdREwbNOUa4TUH8+dn8Z4QsFyuftK6ppHV04xKlFX3hCGru7+CGHowcUgR23D3vvnUGB8bG9sL4rGyfo4HtFVQ3yFjF8rXrBgAXJzc7Fy5UoUFRUhJSUFkZFUERrG0UcXLdgrZUZrEmhVRrO88847yMnJcYNk+6XAMAzD+KrhJpWcLDZeuYlpmA9V/joUlpcje08e8ooLUVpZjhK5rvHXBL6iJWGqamtRVlWJqjp+IUrCSrjARNRNRZ0JC2hSUFlTg+LKahRWVWNPdSUKKytQUlGBIjkW1lah2s0sJW2Xj0b2RuOgDscbN1+molKKeZbQB0XTM9vNkPnlMaeicvmvlbKXVDKPlSiQ8hVWVqG4otLlt1Ts+KpPneT3YNM8EBgnlVXMlhOJ08BQLuEorq5CTkkRdhYWYE95GSpEpqyDWr5qRsWR+KqoqUVJldhLBdVRwSARBU/W9QetqupqJ/98iTdQzgqpI5pyVNRVOyWI+g9Fg0w+KHvWhSrQXF7F7E82zcXXHPRfI2UtqmA+pQ1JOypiW2LbEVNUU4VaphhUztaC0fL+4NG9OCYnfHWtUtpQsb/W7aeTU5gn90spqiQbJTXVkmn3H7WS91KRc6nkkV/q8otdQGZfpK6uHuUSlnWRI/fInqoqaXNsd4G2WOH3S9i97c4dtR0LPGu83Sg0uZZ/cq6Debq7e13alI9ujUFD1UdLdUQlSY20syLJa151heRV7mfJY7Fc8/5muzzYej7W0bcEkpKSMG7cOERERDh7KoT69OmD1NRU169QNsdb2Y2vHmyDbIv2ZovRmvh+w5dpjWaZOHEihgwZguTk5L0DTcMwDOO4ZPHixW5vibS0tEabrwqBiaKbHsp/Ti8LcnZjZ2YmOrdNQmJMjJtockVPbX0D8oqKMX/x51i2cgVycnOQv6cARcXFWLVyJVI7dkJ0VDR2Ze/GvM8XYfHSJSguK0Xbdu0QGx2DsDpJi8oBKoqo6pHZKfUb6zdvwawFizD78yVYt30zSktLsGX7dsxfsQybsncgtWtnxEv4BknfPU9ddnkMGDfXkj9hEi9L4y7FiQs1uLDCTYTFzgvjCTVJ8z6vA6eMMRAHz7LzcrFAyvXpooVYu2UrCgqLsEvksHztGqzZtAH9+nND3QYEvibmw+adO9G2cxq69uwBvhLmJueeNA6U9evWoq6kCF1TUhAhcXDlTp1M7atFJlmSpxnz52DZmtXIlfooKJY8id3O3bvhi4lCdGw0Nm7dgs+WLsV8MeW1fiQlt0VUVERT2ZqgIqmuDus3bMBsadOzly9HVk4O8goKsFniWLB0MSrrapHWOdUpERSVm5OpnIfxF2mpXJkyU4RyGoZa8bKnpBixMXxhMQD9a11wosJ9kzQu71HPFb3mqzrbsrIwZd48zJayrcvchJKKcmzZkYXPV63Ett270KlDRyRK+6Hyg6t6tkr7TujYET1792VMX4j7QPD7/dgsaVXkFaB3Wmepj/rAqiGupJOyrNmZhTkL52P9po3IY51I3e3aswfrNmWiV48eqKitweotm6Xdz8cq8UPFUHxiG0RH7pWqtk/mr6S0FCs3bsKk2Z9irtxrrN/CgkKJPxPzli+lZ6R26uhk2KQiYrnkf+OVO3fXYs84nSJXrmvruRdSQIHnvNBN5ERlF8OGkg9tdC8rReuwpqYWG+X+nbF0IWYu+xxZ2dkoLCrC5m3bsUDuaV+dX/qKjvDJPQIxxeUVyJfy9ejXH+1kzPxVRGWkR/5ATKUlt5i48cYbMX78eOemxjCOFtrn7pbnw5YtW3Dqqac2uhjG4WGqxhYwbaxhGIbx1YarUmR6KAPJenmmcbXQWxMn4s1Jk1Djr0Ofnj2R0aUrUFePmTNnoUAmgGXiZ3duLnLzC7Bw6TI8+/IrWCSTdj+XE1FV4DbnDcApEjdnjk2Ix5xFi/GU+J00bbpcJyI+PgG5hYWYL3GUVVWjoS6QD4al4efc62VCzgku4/BFRslEV9zlnK+8ZRfkY03mRhRXVjatjuFzWSdnTUqJxtx4J+KBc7pQgUW1BlfrNCDCFwFfRCTyi4vxxvsTMXvBIogF4hPaSBhg/oIFqK6VvB6hx39g5Ucgx1RU1Ul5Nu7agaffeAPTZn6K5A4d0LtPXyR37ISSsnIsWrbMyXDrjizszN2NvMIikfPnePqll6ROlruVK1puJVLKR7jyYdmq1Xjh9TexdecuxCdKnUi9cJK/bMVy96U0yooydQqJxrgCMnV6IclsYPLvvhIWEY7dpUX4eM4sp5wg3rRV7hHckKYR1q3CX7m9aFimHR0TgwUrV+J/Iof3Pv4ECUntkZDYBoWFxVi3dh2KJc9HCleSxgKH+XifhGHjtq146sWX8NnixWjfkXXSC+07tMeOXTsxT9o5ZVJYUuIUPLsLCzBl1iw888rLyM7Pc1EplImaSJFLndxDr73/AZ569XWs3rQJSVLOyIgo90W8TVu3OKUeWwfjCI/woa6hDs5GqsEpe5g/MbxHuM6IZpvkaf2WTNTU+V1hGLZOCuOXc64u03pR9Jz2Xrx+3N5Y0TFYun49nn/rHazcsAFxMXFIjEtAdvZubJBrDe8Nd7zAlUIDBw505/yBeOTIkfv0PYZxtOF910GeF8OGDWu0MYzDxzQfhmEYhnEcwz1unPEB1TLxnL1wPiZPm4Z2KSk455xzMbTvAAzu2x/Dh56EYSed5Cb2nJT27N0Ll152OU4ZNw5llZXYU1oC7tHjcJoamSQFLtwgtWtGBmISEmXSGoGEuDgM7t0PvVK64Jxx49GrWzdE1jUgWmarVRLX7lyuYskHv9YlMy3+R1lFuUy8d6Giuhol5RUoKi/DlJkz8en8BSgTO51+Vss5fy3l10Tdl70EzQkntFwNkpeX5xQRYZpfIhE4lYfkta1M9rqkS54iI9EuIQlD+w1Ct46puOzs83DpWecgwt+ASNVGHQE0ZirCCspKMXnWTEybPw8nDx2Oi087G0N69sPgXv3ddb9efRApMk2MicVJ/QfhuquuxRnjz0TxnmKUFZXCV8+X7/bNK1c7UDHEVXDJyR0Q6YtAt7SuGNJnIHp3TsfNV1+HMVLfYf561Im8uL9Kdna2Oyr1Em9xSSnyCwrcipdqyrW4CK9/MAEzFy9GrVwrrBN+NaesrCygKKCspWw852oWxsv6ak6JEBUVhS5duqCd5JVKl7joOIwaMhx9u2TgtGEjMaLPgEB9hA5+WHijZV6ZRa6Ue+WNN7BqxSqMPGkYzjp1PAb27CN10g+njz4V3VK6IqyqDolRcRg9/GRce9XV6NOjJ/J356Ghll+g+yJsjwkJCejRNQNRUp9smV06pbo4+3bpgTPGjkNKp05iK/eqZIL3w/asLKeoJfwCIVcH5RXucauYistLUVFThW07szDhw0lYtX4dasS9rvF+L62owI4cqVOJhxlSxYYq6FgnXC0YCtYTlagZaV3QJa2zhPWhc4cUDOneByN7D8SNl1yBPtIuXR076R2BijlKqPKH+wudcsop7j4aNGgQevbs2ejDMI4+qsznq462ashoTUw51AIxMTHuGPxr1/GEDta8RxqWWc9PJEO07EeMxqh54CDQvTbBc9rJ+XFvpKB6zl9RXdnlQn9hPtLyP6J1+xWDsqC8j3ibbwZNM3DkPeg/uqbeLxNEyUsDlQ51of0cSUNlCZOX+0Kro1EygYtDhC+5+OrCZLJfhmfeeAcFlZXo0z0DKe3aupFAXZ3fvSZ0wTnnIFUm6ImxsUhqkwhfTCTCoyNw4UUXYczI0YGNbmVQWu9W4jTmSmbX3DfHJ1n30Y03eH04yiqr3GqXxOhonCeDV74StHrTeixbtx7Zu/Lwv9ffxIwlS1FZU4/de0owY8Ei7MgvwIQPJmDunE/x/uTJeHXCJHz06Vy8/8Ek7N6dg3JJ6L0Z07Bi9Xp8PG0m5i1bjuzCIrwi/v702BOYs2wZXnnnbTzy9DPYsStbJnncI4mGn9aXbHHizDpmHiX3XAnll7Zf66/Bpo0b+DYWxsmEMDYyOrC/zhGBbUtkJ9Fz8+kt27KwcMlyRETFYNCAgYiRySg3n+ZLW6lt2+PUESNlkp6K1I4d0L5tEiIjfCivrMCV116LsWNPQZSUj5sgE/6lCWzvFObqwt3jYljO4vIyLFm+DCnJHTGkzyCE+8OxdtNmbNy+TY6b8N/XXseqLdudvPLy8/Dh1GlYvmED3v/oQ3y2YAGee+lVvPfhFKyQMM+98KLUcTWyCwrx6eIlWLx2LV6Tutu0cwdKJJ23Jn2Ih556BhNnfYpX35+A/774IrLy8qTcX5Qr+x/mN1zKzbYaIWX0yz2YuWULYqOicfJJw9Cx/ZF4VUnarsiK7ZgipDKxQRrKp/MW4ZPPFsIXEYURA4cgISwCEbV1rl7S2rfHxWefJW7haBeXgI4JSU4hmdwlBddcfw0yUjvLfRKIl8bVBY9Mi5uLs01KWSkH3u678/OxbXcW+md0w9A+fVEjuZm1eBFy9xRj8YrVePS5F7BxG+skDCvWrMXKDRuxZvMWPP/Ka1i+Zh2eeukVvPvJDEyaPgtTZ8yUtiH33a5cvPfxNKzbug2vf/A+1mVlSZiteEz8PiZ1PG/ZSvzryafwwhtvunahqGIkcA5w/ZduSs1VhwXlpdiWvR2dOrbHgN59pa6kVG6JHTedFz9iAr0CzSHAflcM43F3iUSj7bdOLN3Y4UgbNgQx4eERuPGGm9GpUxpOP+1MJMQnhvbfykaamBsTcpFlACm//KX5KsL2UCd9rowy5B/LIjauXk9MI8WXI2UQuFOaaHQ7UBiez2L+IKJzVcNoDUw51AJ33HEH0tPTmzS0xyNaLh45QNNzHSCcaGiHe0Qny42iVQlzQsKHgvtyjEwQIQ/S49WE0TSWkZNhNwSUEREnp2Lh5OEdoLY22s61rZ/oqKyPaHtvAabblDaPR9Gw2XE1i06qg92PtNGVLlIr7ii27m9genDwMDxDcoLqq6tDQX4RNmRlwy+P/8SoKPeZ8MDXs6Tfk/S7dEpx+xNFSPIVZaX48MNJeO2tt7Hw8yUoKiikFsl1XFQOMWY3j5K4Ihtk8uy+usS6rEdJWRk++nQGPlu+WGTpR7+MDOlXgX/87ylMn78ASYnJmLN8Jd6aOg05kqeFS5fj47mfIaptW3RKS3P10KVbNxTX1KBzRnecOmYs2iW1x5sfTcaE2bPRs/8glJTXuFUs2XsKsGrbNrwjcU1fuBhFVVXIyctBTW2t1KVkVyb7YTKN5SodltUnfU641DElzIlKQWkRZs6bgxmfzUJ5bSXiExNkwM1pMeuCvloZyUNA5tzzpg5btmzDrl27kZiYhMSkBGaYLlIH9eCn7ju0bYOkhHiEyXnBnlz896n/4u2J7+OzpYuxQ8opUncVHYgxUNfMNdsQX1vjptI1Ui8bt2/FW5Pew+rMjUBUhEsvS9rCq++8i7Vbt6Bj5y74VOrk9Q+niGDCsXj5UkyZPQdxHZIR064tYhMT0btXH1RU1SI5rTPOOf98VEr+J82YiU+XLEFEUhJWbNyE1999F5GxMcgvq8B702di9rIVLp/5JUVuH59QyiHi8syZseS6vKICH8+ZgalzZ0leI9ExJQUJkv6RgPIiLmX545dZ+dpN25BfXoF6mXglJbVx7dopFKVOwsR07ZKKen7rXVpQ9tZteOnlV/DGpElYJbItLS1zEdFVW5D3nAk5xYdYbN66Fe9OmYTlmWuR0qEduiZ3wPLVq/Dcm69jZ+4eRMYlYdKnszFt9mfIpxLus/lYsWED0nr0RFRcImLj26JNx1RU+BswcPBQDBs+HBXVVXjyuRewp1Luu0En4bOFn2PCJ5+gsLwSn61ajTenTcPSdRtQUlKBXK4GZL5C1ImzFxPOm0ju+23ZOzFx9jQs27hW2m8d2iTIfUIliphAaAkhJ4EvAx4KEt4p5WU8IKcuFrkOq6+VW4avPzJHtD2yRnqJpuOgQf0xetTJGD36ZGmGvi/4bX0jdyyLSXiv1NWI7GtcXpxyrNHtaD2rDxhP9tgLsWxhbqwXqMvjfZy7X+PKH5CNq2N3bDQHgY7d9uzZ4/ZKNIzWQuaix3oPc3QJnkBSaXA8wnJyWfiyZcuwdu1aV04u1z9ey9scOkDisXv37hgzZswR0sgHHgh8aO7cvh1zps9AmAyyG6QeApOuEwPKoE4G3D5fuPv1knuUjBxzqsi+R9ODr7Vhl8dP0rKtbxfZn+hKIt7j3FdhxIgR7vxIyLwl2NdUVlZi4sRJqKqobrQ9OsycORO9e/dxr7iEh8sd+iU/IiNYBzIh5f4mI0YOb9y7JaAa4q/0oWF/wsE3Z2bhTmHD+2r98mVY8PHHGNojA53bygRXxqRz12zELT/7uVsVdO8dt+Cmiy9smhwreslVfRu2Z+GxV17EzHkLcd64U/DAPT9Ckkz8ubqK018qORjeJ+nWhEfg3r/8Ge/OmI7uqakYMaA/ImprcMfXbkBfKU9ldQ3+9cSTSJTJ7BWnno1v/+FXiJOJ96++8V0sWrIYT7/5GgYPHYp77rwDyQmxWL9zF/7fn/6K8aNH4ad33I7IBh/ufehvMmkvw++++xPMlknujEVz8F3x/+nSlTLJnoJbr7sa37/jDhTl5CA1mZvl+ho3zOVGw/JMk/rkKhtOpmeJfH7z8D/Qtk0bnNyvH3KztuOBX92HDh2SESWy4ufJ3VfLEIGpCxai+8gRGHPOWYiJinLKAmkgjZJqGbYjmgnvvgP/9kyMkXJSZnx97slXXsV/33gLvQYMwEM/+SEGdUuX+UM9onwRrh652TDlzEkVk12flY1fPfQw1m/dikvPOB2//NbdSIqPc/5497I+3B41ET63cfR/XnkNr07+CKdK/sMqK5CS1A6//b//E5GEYWf2brzzyWRk9ExH3249pf7+JvOXenz41FN47o0X8dhrb+G8c8/Gxeeei95dM7BixWr8+h8PI71fHzz7h99i67Ys/P7Bh5Eg9Xj+2WfhQ7mHK0qL8dff/Rqffr4CjzzzHG678Xpcdd5ZiJI8JSWJbF0f88V+l8q7B/71KN6RNtulY0dcdNZZ2LB8Oe65+24M6tuXJQrUnwihVubpM6T+UqXvOufCSyW03DfuV5aDo7qqCjM/+hA5a9fjHJFPhDwPSsX88Ykn8PIHHyCjS2e8+PBDyEhqKykEvtjHTd3Dpe6qI/yIq5V8i7ymLF6IR19/Bds2Z+EX3/oerr3gHERFhmofIvOcPbj6J/dgR9EenDFoGOIlzi7dUvGD229HamISlm/fjP++9ipuvepr2JWbj/v++ntcJrK4+Yor8exrr2Gu3Cs3XHcdzjv9LMTFxOPDGVPxotjfccMNuOGKi7F2/Vo88McHccVV1+LkoQPxj4cfRFuR5/VXXI3n3nkb67dtxV/u/QWG9e6NsoZqpEuaFB37/n37uzDU1DZIG3gZ/33zTYw4aShS4hPQV2RyzZWXo12bttKG6wPtTSLYmpeHNdm7cNbll6NXn/4u/EHTwB+NGuAPi8Buuf8XzPgQdZUlcqv53B5kh654OjSorJ8/fz6GDh2CuLi4I/s8kKjZvtmW66X8VAjFiXAb5L4Pj0/GgOFj0EueTUfrOX1QsBiSxcChAYUFeZg7fToqS0pknMtN+I+gHI9hWOrI6BgM4OvC0t/7oiJdXbrapCPNgT9WXHtcLn3kRx99hF/84heNtoZxeJhyqAV27tzpNqLj+/DkeFSWcHLMcnGi/Morr6C8vBydOnVyy6T1M54nEuyoS+QBRnPvvfe6zd5aFw5xOcDhb7rAh+++i+cf/Q9GyuSEg2Y/15mfIHAy47ogDkrF5JWUYchZ5+K2r3/9iA1+mN6qVavwn//8x+2RER2994s7JyK83wcPHoz777/fyeLLHnTqI2jHjh24446vywTzUrkvvtw8eOGmt1yhECl9n77m+GXCSVpZZalMdOvx/+7/RdPGvlT9eL8qtS+BPqVZ5VDP7kht14YPfKzdvgvX3P09tzHxd2+9EbdeegliuLKGRZVw7Jnc15rEUDlSW9eAWauX4cEnn0CN9In/e/BhdE9JAee9fknIqxyq9UUGlEPTp2HEoIH4tfSfm1euQP9ePdzmrrXid3dhEVZv2ozsVZvw5MS30aV7Oh6487v8TRl/fewRLN+cibGDB+FHd9+Jkupa3Pf7P+H00Sfjp7fdiqqKenz9/v+HhI7t8d/f/hkRdTUoqylD+4Q4/O3J/2HC1On46Xe/jesvuQhRMgFhvjjS5mSEj26vcqhSyjVz2TL89uF/YrAM0r97yy1Yu3QJzrvgbCS2SUSETIq5KwxfRWtN5dAH776Dum2bMUomm4yfX7uaIJOmfz7/AqLbtMHDP/oJTu7T19UV70WubNL64IoVviZXKyFnLVuK/3vgAYwUOf/9vvvQNj7OpSPeApN1tglVDr30Ct746GN8/xt3YeyQwVgyZy5u+9pNknoEauT5v60wD9u2Z6KyoBT/evlVmQTH473/PIa5K+fj/gf/hWKp93NOG49v3nwrdmzbhV/9/a/I6NsHz/75j1i2cjX++JC0iZ498N1vfgNtoqMQLXmPaxuPd6bMwOPPvoBv334bbrnsQkS55SA+1Enb5uf3g6Fy6P5H/iPhpmBA9x54/MGHMOeTqRjcty/69+nlVvNxRRtfcfK3onLo0w8/wu5165xyiMqOCpHdP55/Hv997Q2kp6bi6b/9BX06pUid1El7cBKWc2lDEVWIq5Na9Eu/UefHCxMm4MXX38TY4SPx2x9+H0nxsYFE9iEMu/IKcc2P78G2gnz89NY7cMao0diQuQYXjh+HlLgkFPsasH73LmRv2okZUlcT583CJWedKW30NsyevwDPvv6a2wvq+kuvwNduuhnvfzQJr7z+Or5x4w246vIL3fVjz76Kb931Ldxw8QUoyc9BuExIi/OL8Ge5j7Pyc/Hgz+7D8N59UBfnQ1QNVzOwbX1ROVTlb8CTb7yGZ996GzddczXOGnkyqvfswbCTBiMmPkF81EOmt67uVDl05uWXo/chKocCr9fKibTzZ558DJuXzcGgjE5oqJMWzdvty/7xjPeg3CM0bjy8j3xaHypSXG9O5ZAkFS0irJObf+PuYvQbeTquuek2eSYEFApfBVxVitkgz4Hf//znGNitG6LlHmIZA64nFhz151VUoufI0bj163ciOj5G+i1+C1KkpOI4wKrVHzZXrFiB6fIM+clPfuKuDeNwMeVQCzzyyCO47LLL0E06tONRMaSwGWzbtg0ffvihWzHTo0ePRpeA24kEH7pcpjl79mzcddddR0A5xA6d714HngETX3sV8ydNwtVnnIaoWi43PX7bGdHnnrYqTmSdkkjOV2zLQljvvrj1zjuP6OCHv7Q899xzLo3EI/SqwleFgoICtG3bFr/85S/dKrkve9DJ/oWGyul7f/pz/Oye++ELj2jsd7h6LODvy8Lb3XEAyw1qv0z4ZaI9xflYvHQefnHfvTIR4KsMnIKFg2ehcdMJSktOQyuHOrVNhM8XhpyiUtxz32+xXSafN1x1Gb5+3bVIiohxn1XnZ9tr/LWokbA5e/IRExGJTh1SsDo7C39+9FF0apOI//e9H6BTgkwKOVGWPHHzWyojwth1xcTi3j//Ce9Mm4qRAwfgX3/8I4p27kRidBS6yjO0sKrSfSFtyarVuO3iq/G7/z6K2DYJ+M03v4+UtFTMXbEEL7zzHrI2rMft112JYWPG4L7f/RGnn3wyfnbHbSgvrcXXH7gPDXExeOyB36NP1y6o50ZHlZX4w38ex3ufTMXPv/ddmRBTOcSVmCKXcJGayISvpKhyKFw631qR5vSlS/Cbhx7G4P4D8LNvfQu15aXI6NEV1bW1qCwqQdeOqRKUL0O0tnJoC0YPGeIUHdxAeNHatXjof89g6+7d+PMP7sH5p45DeJ3kl6tJxU+t1IfbiFjqpG1SO8QlJGJX4R7c/u27MWbECPzyB99HG967rAdJq0k55AtHUVmpUw69NnEyfvztb+OyM89AzratGDp4MPz+euQWl+CNKZNkolGDsYOG449PPoV6mYh/8NRTyC7LwyfzFuGV199AdUUFfnDnXUiMTcCvH3oIvfv1w//+9HusXLsev/77g+ia3hU/+u530Cs1DZESvtZXi1cmfISnX3gFd992C752yQWIoQaw3gd/JPt8yWQj7HNo6PzLR/6Ddz/8CP0yuuPFxx7Hzs2bESV10L5dW5FHLTokJYH7XtWJ8FpPOTQF2evW4uyTR8BXXytx+/DRZ/Pw6wcfRqy06T/93//hlMFDJI+BVVxcccXXqcrCKpGTtRNpySnwxcZj6rx5eOqFF3HVFVfghvPOQazEowT6MxKG7PxCXP3De7CreA/uu/0buPbii5GZlYmB3bshKTIG63Oy8ew7b6NLuzSkdEvHb//9IM4/7Qzcc9vtTpk4afpUTJkyFVUl5fjz7/+IZWtX4+XXXsM3b7oJ111zCd6aNBGPPfsyLjz7Atz3/e8gRtp9rbTXHVt34A9PPI7tebvx0M/uw0h51tbIjR8h7Wufjk9w+ZX+oDbMh8defgkvvvOO9BdX4aaLL0WE3B/t2idid3Gh2yQ9OV6eoeJ9a34+Vku/ckajcuiQlPzSr3ACTfP4w39Bh/ASXDhWZF9X7SbQVJp+mbBdUhauJPLnSCffIHXlViuK3ANK9wbUIFL6xq2ojO6Aq2+5U54JUS5fxzSUk2RRx7kbl6/AE3/4Pa464wwkRsizjP2n83RiwR9B1+zORUVyR9xw+22Ik2eqVKZzc38b5XYgUDnEdsDxrCmHjNbk+J6FtgJcWeD3+4/9jvgw8ZZPl6x6jyeSYZnVHDlkAtdkwtzgLEY6+ngZGMXLJCBOzo9HEx90HSvljm26rkO0XH9Zd5q3nk90c6zg7j+upwiLDBg55/WXacLD9hqf5CGUnyNpfOFcvcU1Qqybwx9As3b5Yzvj42L+tglxuPHyy9BWJnWbZOK9ZddOVMr9V+sLR35RETZv3Yai0lJMmDwZz736qpt4bt26FW2jY3HmqFPQVibB3FOI+9h4c8Z2VF9HdREnU7wGomVy3Lt7BtI6pbhZwqZNm/H62+/KjMeHpLZJAcUwFQk1NVi/dh0GDxiIH337bvRNT0dlcQmiZHIaFRHh9g4qKatAUlwcBvbpg9zdOVi8+HPkFeyRZ3QBKiurXDndgKbOL1Lk6hLuLST5cBO7fWWoCj83uJZjrcRfXlmJtsntUVhWio9nTMeyVSvdip0jAyOWGpFs8YPzfdK74ZRhwxApef185QoUVJShUvJcKbLJlTLm5uYha+cuPPfKa3hzwgRsypR627QJ3Tqn4czx3Dw7ysndS6DEgb/cQ8t9hctfizjx269XL2kTMgkVs3rdGkyZOhWRkdGIjYkJrNCQYJRHbl6O+6IZXwvrktpR5FQNbpjuUpJxUUVhKRJj45DSsQOyc3Yjc8tmFBYXIWf3bvhrawKyF8+BPkbOpYKkabtzL5x866/gfG/OlUXyUVlegXZt20plygRo7SrkFRYEhWwdWM+B18Ua24q0obFSH2eNGc3MYenSZSgpL3d+aiRfu3NysSe/ECV7SvHwf57A2598gjWZm5Ar91Lf9K4YPqCf2zTcC2Xg+rdw3olsg2JYVomvbXw8BvTtg7jYGLdyeOqsmZg9bz5S01IlnNxnkiXWS2FBPvJzsnH+WWfiuqsvl3FDHfzVFYiO9DnFLzcpLysrx4BefdAxsQ0WLlqIDZs3Ib9wj4QtkCqrlYxIZFQ+SDouXywvE2iEdeGUIawzOfKVX/e6u9zb3HrAX+9HeEwktufuxmtvv+W+lsbQrr9ieBfL4SCxSNrMl09MpPRZUahFjDM1iIMfcQ1fnomtl3uGR3ce2k+rGSlbjJQ3huMiqdsYsYsJ80u/IH2a1K9K91h6ZjdPIK/86+5stn/WpyurjHFp3LjvRDMyzpWj+0GFYnF/AziJHUTVajvgsan/NIxWwJRDB4H7JcUwDheuDHKrg1Q5JANGaVpczs5f47nkvj6cy9ePP1MXwjS5uV9l3SzWOIHh6xp7//Eu4aDyxDCuxE39Q+vdCG7DWE76ZNIbJdGePnIUbrzsKjfxmzxjKibNnIqZ8z7D+sxM1IpdVEws2nfoiK3Zu/DulMnYvHULzh13Os4YMUYGtpJXmbB6V34Q7s+0RfxR0dK1SxriY6KxXa4b/DLJ4S/d8o97GEVERLqvYGXt2IEuXTu7CWdBXj42bdyI1StWol1UFM4aNdKtFmqXmIh+ffshJ68Am7ZscytILj3/HKR3TsWUqVMwYeIkbNq8FXkFhTJADkfHDsmorqhEZWmZWyHECaab/AbBwTQ/hb9r1y63IqVW5LJg8UJ8tmA+Ppomspg7Gw0y4eYv+K0Nc6Mq8EC/DyRLOS89+2xcef4F2LozC29MnIBPZs/C5yuWYcv2bfDLxJyverXt2AlLVq7ClE+mIHPjBlxz+SUYM3wEIsNlGu1+id8LlUFVIluuyKuqrERap44o2bMHu3Zkua+hyWwi0MTEH1clbdkmcmx8zdZf60fWzh3YumUL1i5ZhtR27dwKpf59eiMtLdUppaio2JG5BSntO+Ds0093Sr4JH3yAj6dORdauna5eS0uK0aF9srSzWifjepkR8ZtFwTXC+uCPcFy9zPbCTdHjIqIwZ9anmDt3Lj6ZPh2Lli+TsBJS8tyak2PmhUof1rVbwSomXOTdLi4Ot117Pc4Yf7q06214T8o2bcYMLFm6DDt37HQBo31xaN+pM2ZJ2/lo9gzUy/P76osuQG+R0b6qob15rpT2uV3qtGOHduiS1gllRcXYvXMnoiOpEA/UhcuLmNXr1rp7NLVTJ1SILAvz8rB25Qrs3L4Fg/r2xmljR6G73Gvdu6YhRep3664dyNmdgx5pXXCe3K9hUo5nX3oJMz6bjZzc3SgqKYIvyof4NgkoKS9Frb/WKX68MJ861mXavPf5ufsOye1RkF+AOfPnYbrcH+9Jv7B+y2ZEi5zc1wlJoHpaDa6XDKyZDBjeORwn+GWMdFwa16dK/yr9v08agFvNKfc1ZcrSB2rlKwSfOXKgGtI91qR8gfWBMuYL2zv2O6GMtN+AHCgU/gkc9C48lDpuJ/1z//58jdMwWgffb4TGcyME06ZNw/Dhw9G+fXt33ZqDkmMNbtK7adMm19HwNZPjuawtwc1xOahm3XMTwiMBB6GU8MZVq5C9YT0GZXRzE5o6N/GSAdoJYKSRBc45ZJDj7pJSedJ1xFCRu7Y/78OytVpkTk6OW4rLNE70PYfY1vk62ekyweOeCl/Ofa+1qmmFoVgmIJ98Mg2njj4DPr4KpHwp+Tk2oFRY2srKcuzavR3jTzvVrTagbaPqaD/wLqIPMfKfw/KCnN3YmZmJVOnPE9x+UlQUhSM2Khbdpb9Jl0llm/g4xMpEPD4mFl1SU8WuK2JiY5Am5927009X99rVSWKS4mLdygc/Fblc+sBOzBHIXWlxCVJSUjB65HAMHzgAHdq0QdvG/ZtYNn4FLCW1k9s/ZmCPXujTrxd6d0vHoJ690FEmnwkSfzvJT/fOKejXpw8SEtugc1pnpKemoX/Pnu6z+6lpKeguYdI7dkJXmYT3zMhAm7h499waNmQw+sp1JylvRFSk5DFcJl3MXuMqp4BoxISjslzavZST+w0NGdAfaZI+lVFt2yRiYL9+GNJ/oFsVQ6UdFfibZQLftnMauvbsgQifzyl2DqVtrpcJf31xoci6U+PKJuaHr7e2QW+Ju7PIncq0aLkHuFE264QT/zaSt67p6ejBsovdkIEDMah/P6m3GKlTRsS87G0rPHLeX11VI3WSiuEnDUUvqcsOSfzyGb+IJn580hZE5tx8vU+PDPTp1h3d0rs5efQXOSbExyIhMgbtRba9pC1kiL/2bdqK3NPQIyMdw3r3kbFCkqvT7pK3zlIn3SRvfaUccdKe+MW3oQMHoXf3dHSQumNbdpMgt3wokEf2N+G8lkkwFScdO3TEyUOHYtSQIejIvEqbad9e0u/VAxmSRlxktCsllSdbpX0ndOyInr37NsV1sFAptSVzIyry89FLyhVBpSJXxcmRGy73lHbXOTkZ8dFR7nVC1kNG13Qkt2uPKLHrIflK79bV1cvwQYPQt0d3xEj7CJQxUB8ub1KfVHVU19Si2l+DXn17YezIkRjQPcPVR5vEeOc7XOokSeq7q8i6X/ceGNC3t6ubARk90Ld7dyS1SXDtgmEG9euP9C6d0U7qgO2kp+Sht8iog+S7R4bUZZeu6NShreS3M3pKvcZERSNN2vDQwVInaV2RLLIN80nempTRjUbuF/fVRGlXpWWlTuk64qQhGCCy6Cj3Fu8RKotOHjFC7tXOgQ3GxX9RRQXyysrQQ/LVPrkDSy3xHQISjL3Z5/NmIyGsCr27cr8nvxsr1LFu5Hi8GraZgNz4N/DzIV+B3ZZXiprwWAwcOsLdV8c+rlNyZWLrKsjNwZJZszBY+o0Y9gNB5T5RDMudW16BmthYDOJqUem/XXU7WN/kwO8b9lOco7APP9HHskbrYXsOtcCf//xn3HjjjciQgRIHHl/OxOnowFcHuOcQB0Pcd4hlPVGbh+45dOeddx6RDakJB4psTZNefRWLJ76P684Yj6g6bsbYOJE5npGCu0mRGJbVbfoqdsu2Z6GhV3/c/PU7ZawZuNdUFjwGHpyHDxVDzz//vGvjtudQAZKSkr7EPYdYk1qr7GPkSgyVsT+/9z7c+4NfyeQ7MtD30BzHfW4owhvqkFeUi0XL5uHn/++niIjgZEHgBK5ZUVAV1NijsP+Qg+45tPDjjzFM+vNUmUDSn0biFLJcpUANgsiZqxZ8MqnlqqDA771yX8qEnf9cm5ABPYNW+WWqEsnPwou7X9zEK+/LCPnrcirX/ro6FsRVXYRH0cdYuYKE1Up7rj7i6yoBP5ISHeS+l2AuPxxMM39cMk+FDF/yYxz8sqF7hU3cOZmm/0BeiZRFZMbX3rgKw8nC/foemKS4fscfiI9fmQrn0ckuEJrhWV59xZjUScqt+rWybZkYc9JQREhdcXUHoTzZB/IrZe4VATHMm0/S0DphDunGI+253xPzWFNTI0eZMHJCL7i/zJ6TjCCHev5iL+n7GsvWZC92tUxPAkSE+Zy8GYpfzWNKblN2CUNRMB+kTvJIf7GSP6bP0K6eWCdSf5Qt02I9UfIUepjUE/POeuJrk85eoGKLSTA9xl/HTz27GJk9ltQVxaUvAnEKtQhxbr2vlVVixpSPkLuGXysbKfHz1/2ArMPkwcRf+rkqKrAyS3It+WR7deWW5LhDjpOZnDuZiQxYN9w+MFCKRiQ422qgHbBdioWE4ebafInUfaVQvDHOWvFMpRXvqAgJw/hd3TF+hhc/9OvaNOUqdkyXqwOZN3fviLvfL2WRfoD1zXi4wEdsWAqXnmtj4r+mLlBeR+MJ+wK+Psr+KNDiGuvBnREJI3FEigVbBb/gtjWvoPFrZVegV59+AW8HCXPi2oaU5cl//AUpYYW4cOwgqXO+Ospy7b1TjzcCsmXpeL+zv6pzK8rLEYU5a3aiNKI9rrrlG4iM+iooAdhmeZTWIQVbt2o5nvr9b3HTuHFoF8GXBRudTzD4TFudsxul7ZNx/e1fR1ybts6u0VVExV5j7zNzf7jnpQd9XhnG4WLKoRbYsmUL0tLSnEaWomoaVB2HmHJoL1+GcoiPAXblVA4tmvg+rj1jPKI5qZKRnxscHadoi9J3rnntlENytixrBxp69cPXQiiHDvyR2TKmHNrL0VEOsTaZDvsYsRETUA79P9z7g/tlIhNQDtGcaAOefZVD9yIiItBPtI5y6OAIpMuJnxzEVNZU48mnn8LO7Gy5GcPdl64I72WudvmG3Lfduqa7iWc4J8zO9cBxLWM/gbTPCAXn2syjxlFcVornX3oR27Ky3KpEmTG7sIyDMvr2XXeid49eiKBbPacqoXGybGXlUN22TIxqVA5RTl4ZN+oM9guLQLh6a83aNXjzrbdQVlkl5Qzkx8mirh6dO6fhissuQ195pnOPoVDxalwklLvLV+N5MHwlriWcF5ExFS6z58zB1GnTUFbNVSDO2e2HxQ6gT5/euOSii9zKI06NQ8Ff3Vm21v2UfSVmepRDnJA7paW48dWeQAZDEywbHS9lbt6MF15/A2UVFe7aWYtfKlwyuqXj+iuuRGpysnNjjp0RPzxqnDwPhvZ0DwWtXds+AJhPHctuyMzEY88821QfVBZxbyK6d+3SGT/99ncl7tARMy/hToEk94j436scuhK9+nA118HjVQ498Y+/IJXKoVMGIaKu2pXxeB4bBQjUPhUGlO3xohxav2o5/vv73+Jr48ahrVMOHe/1GBreZ6uoHJL7//rbWkc5lJub6+aqY8eOddeGcbiYcqgF+EsX37vWT7ofzxMVUw7txZRDRw5tUTrR47Uph44ephw6tjiWlEMKa4xxcgXBjl073XVVbS38jXXDv9z3plNyR7epLlcvRLi+zDkfOMy3mOaC7Vc5JMblUwwnrbV+v/u6V4VM0Gtp3zgZ5iQ8UibpKR06Ij42DhFhXL3D1SqhcbI8ZpVDQLmULzcvFzWSH/eqhtgzPNehRPoikJqSgtjISKdQaSlewjx4UWVFKA5UOUTDeIqKi1BYWIgayefeHiCg8ImJjkZKR2k/fLWVHUIIjnXlkPZV1TU12CYTQO7fRWhPw7Ekv37WVSaGsTJBdm6NEQTnXOP11gftmGYoaH2gyiHmhWNbKoBKpf1szc9x5XVIHFRiMa/xcXHo2bFTUx6DYV5MOdTaUNimHDpe4f3cWsoh3sO8l/kp+6lTp+KnP/1po4thHB4HPrI5QSkpKWk8k9u2mQGLYRiGcXzCwZdO7E9opPh8zSW9c1d0TeN+KL0wMKOnMwO69USfLhlIiolDVEM4fH4Z4Mp410305OheTwpcOfvAqzB8mYuR0kKMyJmvwdBKZX0wMvf65GSW+xzxK2m9ukv+evTem1cxfbsG8hrJ2a2/ecXQsQ5fdYqN5f5R3dG3R0/0l7IOpJEy9u/WHb27pCPBF4UIp3Vy0zX3ihLrQeXPDYmdUkHiorw54eBrgVTW+/n6k0tpL1Qo6D1xsHAvwx49e0jbkXqgcfXRQ857oGdqZ8SFN68YOtZRmVB+bHt9pI0NkvLRDOwmZUzvgcFyz/RO7eI226ZfF0bCsnrq5FoVQWy/7lT+ODnTH+tPDMOwDlS5w2ueHwwalkfu89Xf1UOjkXrpl57h2lFGp9R9byzDMI4ZeA+TQ+2PDaM5TDnUAi+88AJ27NjR9CA3DMMwjl/Y13sHWjqROlFRSfDpx4k7J6786D5XvETUyTmNzE25isQdnV4oDH7xy1VAXO3BSS3P3bV7Ha0OYZE+8cx1Gg2obagXO79E4HOTYO+E11sf4tQs9LFvXmWAI5ExX766hn3zSiPn7lPi+4312IZy0nEJ68Z9vp9llWOklJFHt8GySMbVAY/h3PxfZOUL7BvVINdO6SB1EcZ9Zqiok3qoRb3z64X14K2XQ4L1wnx5jeSZeefXmZpbpXKs09RGpT6450+klCdSyrXX1LtjROPeQMTtHyQyZvuvk9uBew0F6oT3jdw/4s66Yl1wY3UuZKL8GY6re3iuK9sPpj6YR/p3bUeCRUm+oj2G12r2bQGGYRxL6L18yP2xYYTAlEMtwFcu+PDVAZhhGIZxfKPKIJ1ANU2kTmBYehpKRiXBiazX8BPcnMT6G88raqpQXF6K0qpKVNbWBCa63CS6cb+iSn8NCstKUFpRjnLxyw2WCeWtKxv8fr97XYguBzr8lWRcPpvyKn/2ySdNY155fTwQWFnSIOXa1zg7KhdEetV1tU7OJZXlKBK5V7MuIqkQCsikpqEOZdXiXlWO0mqpM75u55EP7wG+pne4cDNm1vU+eZVr5pXl+KrDdupeTWvGUBlEBRxlznuklPUh90mJyJyKU/d6oLR/d7+E1Ut9VGCP1FdJWal7ZY2rvbx9UlVVYLPmQ0fvri+a46A6DOO4RfsBKosNo7Xg2MloAd58RstQTrW1taiurm76dfFooR2mdwB1vMMBd324DBplMBkmg0/+OstdSGoiwlEog/w9FVUyGeMkgeP9etSLXbkMRItr/CiSCVihTNSq+CtyOL9SwkGhTBwa/M5/uYzYcyqqUVTLgWvjZrMc4J5gePsCbV9qlINpbxrOG14J5ca4Nf5QYYy97CMfuTdk+ikTqwoUFhWgqrpCrvWf+G0y0u65WoITOLkf8vJzUVpaGohL7Coqy7B5y0Zs3bYRVTXlYif3AOMWd288xzNsfdrC+VqSM+x7PIZ9UVVZORZ+vgSvvPce/vP8C3hz0iQUlpVJqECfXCmT3M9XrcHjL76M595+G3MWLERVeUVgUCLyrBNBbtq+HWsyMyWNcPikD9rfnRXKTbLh7FknzefVeT1stL25tuA5PxJolnl0ZWxMhmWhYc9MxYIq7Ghq6/3Ytm07PpzyCf770iv4zwsvYMHSpfDLc4Jfc2Od5ewpwCvvT8BjUifvTJiEzI2ZrgzhYphGfkkx5i1firKqaqkPeU4wzWaMF5dPGnGg8eazKa+NCqrgsIdDqHrguZrDRqLQMgUbLVcow3bIe4Bfdtu+YwcmfzIVT4rMX3j7XazdujWgPBLYF23buQv/e/lVPPfqG5j88TSpw22BL5OJO1//K62oxNwFi12dSKEaB/VSvqZ/9EnTPF7FabCRohwzMC/sC+rBtifyk7/co43QvsrfgPyyGhnr+KW9S38hbuEyhuFYJaBeZhw8cyHdudqpy940ApJk/D4XD3fJCciTbmLr3AP+6cL+iWesO/Y1gTj2ptOYA6n3QE4Enst4Sv0G/AfyZHwRyi0gu0BduXGuiMt9KTE8HKXiWCTj1LLqWtTQF+9x6duqZaxbXF2HwloZ51JBLpLmHlmEUucXCmtl7FwpY9/CqloxflRJUN7H4YEEj1lYxjZt2qBHjx6NNoZx+ATuDqNZeOMdzGTvRIZKoc8//xzvv/8+8vLyGm2/PFhPrC/vsvcTpu7kKUalUF14nTwkOWyRBx4fiiKDuevX4skJE/DsuxPwhgxCN+zeKf7qUVFdhQ/nz8f/Jk7CU+L+tNTbKx9NwZJNmfJgFBmG+2Vw2IANWdvx4sTJeOr9D/DcB5Mxb+UK9+szH9AnOmxrbPdUirK90ZADaXf0y3B+v8hZ4uFKCQ3PI+24apHnjE/bNc9pvP5PmHZ+EKhMOJxvgB/LVn6Op599Ak889QhefPk5rFq9XMaNMuB3yiAGoJGhvI+fT5cBYlEBVq5agaKSIjdC3LBxLZ574Wn889G/49HHH8aEiW8hf89uCcN7hXGokTQ5qjxOcGIJnDpYMi2dTn2oPFDjExMp/Ud8eCTaJLbFysxteHnyFLw66SNsztohfiQ2afMlJeV4a9KHeEXcPl60GL6oGMT5Il14n0yYCsvKMXHWLEyRPqqgtEz6s/BA2P3whbzKBfPKiURzeeWxNWB74/3ovV/1/tX7lLTWvcpYOHFR416VazRqx2boDMstbTS5bTIqq+rw3tSZeEnqY9L0WSgpqwzkSepswdLP8ZI8D55/bzJy8krQKSnZtWW+isevny1euwavffIJtuzOhY/vQUnMXkWCGm818ZQmZF49doF8Bkxr4JU50XpgndB46+dQ4QC6OaNlCWW4YXuDTFTZdSTJPVJSUYN3P56BZ96diNnLVsizuVqe4YH2tGHLNkyZPRfvfzITe0orkJjEjeWlPsU9TOJZuHwl3pj8Ibbl5DkZ8jP5TkHRqLhmivQdSPmrjdxZ0ra4oirQ9sIa/G6s45di7sgvxmsfTMeD/30bf//vO5gw7TOUVjQqzEQW+mOWU8aI2bsJcCBep5oR2ZH6sAgxAQVUmMiQEgwcGQefJxJW4uAPaLSnYiIQS53Ew9V2kiEXPw3rIGDCJUzALlC3jKNexmlqZ7SAiIhKZMqXdcU6c7L2+bA9Lxcvffyx3EMyjp08GZ9nbkSV3ON8vi9asxL/nTAR/31/Av73wQQ8P2mS3GfLUSL3GX8Apapvd1kx3pw5A8/JPfjs+xPx0aJF8twplVpj/RybsA2x705NTcXpp5/eaGsYhw9vM2M/tGvXDpGRkU0TM2P/bNiwAZ9++imKimRC9SWjAz9+9YiGk25OoGl33KOjcXmO8VHGXyf9EWEyMduAl9+dgD1F+Uhok4i127bh7ZnTkVmQjyIZ7M9fsw4LN6xFTHQk+P2L9Vs349WpU7B0+xbUSPewPa8Ab8pkYev2bWgTH4Pc/N14Xx6gn+/chnJ56B67j80jg07s2B/s3LkTs2TyOkkGGhMmTMDq1atdG3SDvhagHyqV+JWJbH4WvBENy/i519mmTZtQw9cIGu11UkPUjkc9N74Ia2zzlk144YVnsD1rGzp27IAdO7Pw2huvYFPmemnD+/btVNhxs96sHdudkqhduzYSbgteevlFt/Ji+PAR6NGjt9T9p9LXzUKVG2AGy//EqA/KNpQhUfLc7Ny5Czp36YLkDh2wO78AK6W/ca/NiLyKiorhi4h0rztFRscgtXPnpq+CUnpZO3dh7vyFWLFmLbJ2ZctkzRv7wePNn9e0Juwf+IoP+wa2I68iSM9b+171lqU5Q6ValEx4OyZ3QBeRc79+/ZzMV6zfgG3Zu5xs+SWxqppqN3Gukn6mQ0onpMmkg+shGEtFRRWWr1iN1evW4fPlK2SSFrGPEshLqBJ687M/05pQ5uwvy8rKkJ+f7/pPvn5Be44N9NXFI0GosqkhTFsaA9olJaFH9wx0y8iAX/KybNUq5Mv4ifsN1VTXSh+ViU4pqU6p0V7qLzk5GRG+CPc1Qn4xcPL0aVizdQs+X7lS7i2RfDjVJXJs5XZ2LOCUNFTiNCpp+J/ttaSqHm99+CkmTp+PyKhw1NRW4dk3P8GUzzNRHhYnomArZlgxIreAocqMCqHAyhHdB4r14xQP9CPnNWExqAmPhj8sUkKHO79RDdWIqq+Aj4oF8euT50RYGKUeWFHEHHLFUkRDDSLraWoRLqbOX43CwiJs2JSJssoqt6E88+KTXtD5FcP4jf3BepKndhjXAss9Iia/ogwvv/++PF9WIj4xFtkle/DW9E+wYvtWlIt8V2/diimLF0j/VoUY8Z+Tm4t3Zs7Ep6tXokT6hLJ6H97/eBo+mz8PUTJurqitwIS5szBtzQqU+vmty2MTfaZER0e7uaphtBamHGqBq6++2mllvYM844uofDj44qT3aChkOOiurKzEBx98gMmTJ7sBIe3cIOwEIIwDII7WxdSFh2GPPAg//mwuktq3wTduuB7XXHQhzjrrDGTtKcDyzG0o98tEpk4GnB074rqLL8Ztl1yGqy+9FJVREVggk4aS8mrMW70OWwoKcdtNN+Dmyy7G9RefL3XdgM83yKCrli+cnViwnbNN8SuGS5cude2tb9++bsBOpSgnhQfaV/Ae2bNnj2unurmoxk84yWT8vKahH7Zl3l9UwlKx5PcH6kDDGHvxynHChPc4nMR3vn03br75Flx73XWorKrAgoWfiYz33UOF1cfPbW/ZsgXdu3eTp2Q9Zs/51L3Ccffd38bNN92Gm264BQMHDMGKlSucX5N/CCLC4a+tQedOHTFE7pHoiAh8tmABymrr3L5DW2XAntKpk0zA2G8FFPs+mfRy5UmNn0r+baioqMTGzC1YIm29XOqRbscqvH95P65fvx733HMP7r//fixevBjl5eWufXiVul92a3Ebc0vy3KtG/mLYwAHomtIJOXsKMX/5Mrf3UNbObERHxSI2JqaxPqi2k5zKf+4hxVfOOKkqL63CpI+mILdE2r2bPh+bqLxZJwuk3f3gBz/AP/7xD6xZs2YfhVD4Udirg+tUXN8tcubKhpjoKAzs3QvdUlOwceNGbMvOlnsEWLVqDXr16oW4uDinUKV/GiqGwiJ82Lpju0xkq5FXUowFK5ajsLzCraoJk/soLCxc6rExweMEKncCr3hRcSOyk7qj0mZ15k5MnbsM408bh+/edjV+eNf16Nm3N974ZAEqwhMCz9WmtqpHKoioxpF+p4FtXcZNbkUSVTx+uap3iidn71Q2EeIu/ZObNtGP3B0SL/1FNtRKXHXOvTY82vllOE3VrTpi3yZuazdn48W3P8bGHXvgj4hBQzgV4oyPiqq9Sinji7A9y+PYQdnXyz1Q4wvHnGVLsGJTJm68/BJcc+lFuOiS890WCfNWrkSJ3GeVcs9UhTfg4jPPwB0XXo7brr4OyeldZJy7Dnsqa7B0807MXLgMZ5xyCr522UW4/tLz0aVrGpZuWIeicr4KfWziniViqPjmWxuG0VqYcqgF0tPT3a+ZBzrhO1HRwS8H+DwPRu11UMZrnusmanSjjL1x8EjohwMpHjVuHtXQH91ouMqCk20eicZ3MHjjPVQ0DuabR+ZD7QJG/DT6JfUyOFe3Q4XDEO7LwZu61heG9TJw3LJzB04ZNRrdYhLQwReFnimpSIyKQv7uXNTXiNzqwxErckuUAVan6ASkJCajTUISyssqUFvpR57I0h/lQ+fOKYiXePskp+DsIcPRPbG9DIiOVPchgyoO5uoPXR6Ut8pc69EbF+N3aRxi/FQOUelAxdDgwYMxevRodOzY0T2kCePVPoP5IGqnxtueNa8ahkqgnj17YuDAge5XIW84smvXLqe80PtC7Q8Vb9xHAq0PNSp2PbZ62hKvyjY3Nwfr1q/FqaeOlf68G2Jj45DepSu6du2CzM2bpK2XOH/cx4NhmL+srCyxCUMX8RcVGYXRcg99465voHv3HgiXCUBsbCKSkzuhsqJK2kHjazmthGsHcnR14s5Co3nlkUXV8u7tWLROW1m2BwCz4JfJjk/6oYSoSJw0oD9SOnTA2o2ZWC2D+D3FJfDX+dGpYye3NxrLyedsnUyOauWae+CUl1bg0osvcaspNmzZisLKcjdBZpkCZW4q6JFDROdk2ChfP/tpyRs/uV8v/cq+bTrwQwSfPTNmzMC///1vXHHFFbjuuuvwzDPPOKWEbub8ZdeIUxLUi5RlwhQuk6S05PY4fcwYVFdXYcmq1diZm4fKmmr363OM9DcMIPNiaesUgHtRBoWlpRgj90FGeleZjG/Chh1ZLr4vrS5CQHnzVR2u9GMevPVB2D/yPCcnB1OmTMGvfvUrnH/++bj11lvx3nvvOQVltfTjDMvnxJdWDkknMiKKjUuaVp2UoQG9M7phcJ8+yCsswuKVq+UeKcWK1WuQ0S0jsMdQY6NhFt1Yp7YWm7duwdnnno2EpERs3LYVS2Wy6xeZ1PPZ3FQUkY27OPJla+pvWkiKsqZh3Wgd6VhJwweUYQH/AdhPiBF7KmRo6LemwYfVMrmv80XirFNGoEubcHRJBMYM6Y2t0m9USv9OxU2t+KtBhJiAooevjYlY3YqsWkm/NiLWrRJqCI+Se1zyJ/c5445BFaIbqqSOxI9cVyIWxQ1xKAtLRGVDjGTBJ2MuGWNIXut8MRJHtNRBJEOhIiwWlXJdGxmP8vpIFPkjUSz2RRJrQX2cXEejOjwWtWFR8IuplXEYX2nbp9gsM9uJ5Eev3V8nq6OL5kHHWN6xVoPck5pX0nSvSjkOJ+8cdbr+TKBKr7S6BtPnL0SPPj1xcu8+6BDuQ0ZyMpITk1BSUATUSD7qwhHpC0dSZKyMg+OQmtAendp1lOd3DaorapG1p1DqtR7dMtLRNioaGUntcMagwejTNuUIjnNbj927d7sfJw2jtfD9Rmg8N0LASSBfK2PHRgIPv+MTvgrG11g4QGzbtu1Bl5XL6FetWuVWT5xyyiluskz44OevqR9//LF7KHz22WeYPn2621ixffv2MtGKRWZmJmbOnOleseFrOvPnz0dMTIxzp+wZNzs/unfp0sXZcXL+2muvuV9mmda0adPc6z1LlixxnSUHfoyng0xKNC8HAsvNFRucIA4fPtz9anew6OCUUKZz5sxBktsrADIJ4gqQwMSND7kNK1chO3MjBnXvBp8MSgLqnYOTfQPHUxJfROAEtRL/4rVrsX5LFsadPBr9+XpktQyaRf6+CKBHp45ol9gOi1avlgc2cPrIUfBX12Lnnj1YvX4jurZtj+E9umNXWbF79SBBJgwpbZMRLw/XgT37oH9GD0RLHXCwdqiwhFpKl205ZhcXoy6pPYaI3F37a7QnPKr/luAmwmyLvH8ZT1RUlGszgUFLg2sfy5YtcxNSuh0MjI/3CtsH7xPWK+Po1q2ba2uMk6t7OElkG+WRhn7YLhieeWCb5uuPjIPtnPbefkYHz7Sj4TXjYXtnOMadlpbmBtXsoxjmUOCElQqo8ePHu7wfKXJzc929HxsrA2oZiHmV7jxyBc60qTNw6ujTpbx7f80/pHI1BmFY9j1z583C0KFD0KfPQEmasqIJR2pqCrp374moyJjG9lHv7v25c+dgjEye2W9E+KKQ3KET2sk9IdUmso4SmZVh3oLPZJIWjvHjTpMJdVxQPjmBObT64K/ZFdUV2JG9HaeOHyv5apSR3CRMX2EbopKQ7bhaJvaRkRFOpjIPkvtc3KVzyd+djV2bNyNV2liC9KdfJtwboryiUp4H2eghMs7enYv1MpnlJ9Tbxcr9KJO5OqmD2a6PTsbpo0cjpV1b9zrNmnXrER4ZjS49emDZ6pUoyM9Df5k4d0tLETkEJkvkkNrGQeL6HcnrCsnTojVrsGrDOixeuBCLFyzAAjnO51HMokWLsFCu2dfzyD6A9xb7/48++sgpjPic25G1HV3bJKBrWqr09HwGBCqVfSCbTOOhVeHKIbbI2vAGt9qEG3+POnkMJn3yiZsYt42PR7TUS5v27TBn8efIzc/HuJHDMGLQANfucvP3YLs8e/sMGIjdOTnYKM/WMrkHzho7Cj6pA+23vHzR5vAJrNRgeQLta4P0wTPmzcOGzVuxcMEiqYv5ri68hmOAeeJn5cqVrs/ks2HdunV488033ZiCyuM8eR60iYhE765dXX2wLlgrbo8rnYm2KuxrJA0pCBWilGldXT0SExKwXNpZheSzS8cUxMozo0efXpjx2Tzky7N5lPRhQ/r0Fhk0oFiebXzF79TTz0B2bh7Wrt2Arilp6NO7N6KlL+B+WgFYBsqt9cvhxONaFnt0uJVLeyrK0b1fP7STZ1pz6H1LpR3HbYmJie6a7YgKR+cuZtG8T5EYVo3e6Z3cqhqHC8s7R9KUtlvVEIHXJ810fc3tl5yKxIhaaZP1iIqOlT4vEsP7dUN8VDgKqn2Yv2wt3pv4MebMXywyrkHb9smIjYtHZVU1XvtgKsobotyzdda0qZi9YCnqY5KQ3lZkKXniKuutOUWYNGMePp4l9/vK9YiIb4O2ifGICq93CqG8ShnfLl6JSRMnS/hlyC4oQ5q0KZ/0H+s2b8eLb0zA3CXSh2zMkjrLx9rVq1ApY6zu3bpIud1Oka6WXCt3/9lIZNwWHo3teaWoDotB/6Ej3Go39v9HG28eeF/xNXvC52LTj1bSSLhhdH5ONj4X96EZ3dwPkoFWc/AE2rEYibtOBrM5RcV456OpOOP00zG8S1fE+QPPXq7sSpcxa3pqGlZv3oTNO7Jx1ojRSJT5Rn55KZaI7GMlplH9ByAiOgrzV69AVVkpunfqguioGGR06YaxMl5IlLFRq+4hKMXOLS9DjcwrBp003L3eG2jTAQLlO7jek+NZPlvGjRvXaGMYh8eReH4fV7z88stuAG4cOnyAUFFDRQ7lyV9Qi4uL3fXzzz/v/LBje+GFF/DOO++4gRtfmXn44YdlkjbXheegjoM8DvB0AstXcqgM4us9nDhz1QYVTlQI0LDemC4ne4fC4Tx8+VBUw2Xid999N2644QY8+uijmC0D0s0yYeOeG25/E3lwyh+nuAk1yD5Q3CNRssxNPjnxralrcBPZBJn41oqDLyIc7WUgdM7YMTLIHCRyrEON/OOrBe/PmY3X587Aq5M+gF8GeCMGDURcUgzOGDEUYwf2w3sffYJHXnsdM9asxvaiAtT6+VWhxsFaqxKYaBzasGEvHKg8/fTT7lf7++67z71qyDbFjdLZNlRJ42R/CFAJRIUOFVA0bHvxMsGiYZ1ycsiN2TlYmjp1qpscsm16Vws1B/Pl9/vdq2Ns75xkqj33IeLkkwNYDgiobOFyYiqMDhXKm/ni8VDlcSDwnn/ggQdw+eWX43e//71TEFNxw/u4ujqw0u9w7rlgKC+SI5O/mppaxMW2kTYbKW0rGpERcRg7ZjzOOfs8mZi0bbrvmD7lyfpNT+8q43JO4qTO6tlWKCuf+4rZlq2Z0rdsxogRIyR8m6a0WgPGxXy4X873A/2xj/vrX/+KG2+4Eb/93e9kUjJRJolrXXtku2F9BlYNfNlIGZxI6hEhk5t4meSOGzsWiW2SMH/JUny+fBmGi+wCqwD2wpzWSNtfsWKlm1CUlpS61Vt50kZWyHOjjO1cAlA+rSnzluCv9lTA9u3TB2PHnuIUh2NGj5bjWLkOmFGjRjn7IUOGBJR0kke2KyqPu3fvjpSUFKcIPhqvqbtXMMTw9TBpWYiW50P3Tqk49/Qz5f7Ic6/7RcgkqF07mdA3NReeiG9/PXbJPZRTUODaVZe0Lm713dJ1a93KFb13jhZcvXmKyJ+rN7UuaFwdieF57969XR9Hwx+d+AMYw7EuEtskSt10cuVgnX0598ve+mdToPIhRtrM8EGD0LNXd6yRMcOnn81DikxsI3yRUg2BPAVqJDD5/XzBQkRHRGLX1u1IkMksV0AtkzrZlZsr3hk/fSlHvkyuTYuhkour6vaXoj5/qRz69re/7bZv+Pvf/+6eCZs2bkKhGxv5pZ+WsntwL4E1vtpFKbDO+LzlXlhJiXGIi/I5RUqDLwa9unTEXddegDaxkdhT2YApc5biseffxcLVO7FsQx6eeXWy26NoT2U9SqqA96YuxovvfYIJU+cip7gGSzfk4OGnXseOkhpU1Edha26JhHkfkz6Zi01bdmDJsrV48PEXsTxzB9d+oaq2DjPmLMQLr72PlWt3YH1mNl56YxLemzDZrcKrrqhA1radyN+dh6ryMuRl78ROqbuS/N3w1VW5V9sCY6pALSs+Ko10Zbkr9bEH65LP97/97W9unPuHP/zBjXnWy1i+IH9PYFzR+CNHY1M+DPZGQOVtdWW1yE3un5h4+JlGQzjiEYFTBg/FuJEjEBMbhbrIevhr6vHpmpV4a/FcvDB5AnZkZWHYgAHSbmIxPCMNV50zHht3ZePfr7+Bd+fNw6ac3dK2qqVsh51hw/jKYSuHWoDKh5NOOqlps68ve1D3ZdJaK4c4gfWuHOJDjcoQKno4gOaSbu6sT6UJJzfnnHOOU+JwQn3BBRc4Rcqpp57qJsfc5Jd2XDHBX2a5+uLkk092cfL1sQ8//NB9wpHp8RUcDgS5AoEDP+4xoHtGHewAlgolTsy5qqlABsXM58EYrnDiCioaKq+oKKBcqODir5VUkG3bvgPlpWXYuWUzKvJy0L9bOiLdk5NyP8h25rzztTIZPki9Vcv1mswt2L0rF+NGnIykNtHu19Y6Hz9tz6EMUC4y/XTVSuTLBCw+IRYlZcWo4iQ6Jg69u3dDctt4tImKRu+MHkiUNrGruEQGViuQnbcb7dq3RVJCovvV+FDxlpJjWZacK5d2VFQjOj4+IMNdIsNGmfKY3XjekmE7/uSTT9yeH1QK8ZUCrihjO6OCiAoJvpbFSRxXzRwovCdoOFHkpI/tUFepsc3ofcO2zfbJvoPtk5Mq+tFJCqECSFcOcc8ijZtxcjDF9kKlT+fOnV16hKvYeF9RWcq8s91nZGQ4pdShTtKYBhVmnTp1crJhmw0l08MxjJN18vbbbzvZLFm6BFOlfpYuXe7kwnuWg8tlS1dg3JgzpCyHuXLIw4qVy7F5SybOOuscpKWmS5sLyJJfJQsM/OSekQN/7cyRAeGsWTNx2mmnoT0nypB8NAQm+oFftBuQm7sb7733rttk+YLzL0B8XIJTHrlcal4lvkabg4Y7XHDl0LKVS9Euua20r0Y57gzcA16Zsh/hL+/sJ5csWYyPRabLlizHtqztKJA2XpiXi1KZ/Kd37PDlrxyS4gdWDu1ybSutSzo+XyH1vSMLF42T/nrQYGRKHzhLJsHJHZJxxtjAyiGuUNkgE8S42DhUVVe6Day37djp4houg/kOfBY3yvnQJHyQSCKcjG6ViUOvIYMxdvx4dEvvhm5du6Kr9NldeGw0XMnHe/Pdd991Zeb9eemll+Lmm2/GN7/5TVx00UUokudJQ0kRuqSmuEnNl7FyiDFyTapfmvP2HdtRK31s/3793T5OC5d8LhOkBJwz/jTEJcTjo1mz3P5CY4cPxajBQ1BVWYvMbVvl+VDqJuwR0hftyM3FZplcdUtujyFSj65P4z0i94fm/fBV/F8keOXQFrlfe8hzf/wZZyK9a3pTPdBwSwAeudKYfTQV9bzmvX3ZZZfhrrvucnXCsUZxwR5USB/dPTVN8i2RS9yslSO1cihQCunn5VAnrWvn7mzUyrN3iLSv7Tk5WLNhI7p26Iirr7gctSLXGXPnIK9wD0YNPwkD5RlSIs/izMzNiIyIdvtyUYHA1V7ZYvr06IleHEs09Zssg/vf6jjxSDkYN8+LJC+Z0i/VSn5KZWyjfVWw0fERfwh85ZVX3DWf1ayjlTIm2b4tC4UyHt0ok/nUhAj0bVo5FC4yk8qRssmZ6wYqa8Pw/FsfoV/fXjhn9CDpp/nKWOAHxIhIOa9vQOaOXDzy0gQMHzYU37v7Nhlzng5/Qz3enzgdJw0diDaJiXjm7Y/RIPm++brLcPmFZ6JTWiomzV2C3mkdkNqtt1sxtGL1Btx+y7W49frLpS76Y/vOHESF1WFwv96oqq2X/mwXevTqgVtvuRpnnDEeRYUFmDdvEa686Cykp7THmaeNQWqXztJHlOHrN1+LO264FMP6d0esjz0MkZahFSUnKttaeQ5x1dKGrFxExCXJcyo3pFyPhmHdcazCMT5/3OUz6fPPl2DG9OlYsUz6+23b3Wb3RQX5yBK3weldEUtFbFNBDwLei419TEA6PuzIycechYtkXjAaGVJXMfWBcW5tBF9jE5+RPizcsAbLN26T52mSPFtLUVpZ7jZ179G1C7p0TEYbaQtd+EqZzBXKZFy2bMN6bNya6VYZdZDxWYSMDTgGONQx1j5Illp75RBXZdvKIaM1MeVQC/CXjGHDhrkJHDncicqxzJFUDrHj4qTw+uuvd4obTsipDOJklMofTpL5oLnyyivdr6wJCQluwjh79mxnxzg4eKByiAom5o1L9vkKGifH/NWQA1ROqqkEYPwjR450k2mdjB8MnOhzBQGVUlQOcXB5MIYPTP4qxnMquajYYhmoECiUgfeWLVuRJROeakkn3F+LhrISDOjW1W1j6J4ezhw49M1f6Ln81S/PFT4cN23ehq1ZO3HSkJPQuU08wurqscdfhblrVqOwuEIGlrFYJIOzRJkY3HP9tRjXvRfS5eG4dvs2ZOXIRKhLV0RHRSJWTO/OaejXoxtiYqKxZPVaFFfUone3DMRHRRxkTvfiLSUHliz59vx8rMvNR1hEBLJlwJxNWcoEwMlUTE72vnJuznCVDl+3YZviqjKuotABDJUQrAcqb6j8OxjlEFEFDn+B5moAGsZPJSDbG+8dps82TOUQVxgxDbZf7iOkS+iZh1DKIcI8sxw8qnKIAxMqhHjO9sX7jQpRpnMobVyhcoiDC5aH9yPjDpbn4RrGSdnzNQ+mx19COXngq3mUVVFRiZPL1i3bMX7sma2qHNq4cQNWrFqKIYMHoUf3HtLOGlAr98Gy5YuxcdM6mcR3QFREpNRpvVPctmvbDiOHnyxtUwaEnL25epERZ5jffQWHm91v2LAJV195Lbqldxc3fnSa/wLtOWAOPc9cRVBcWoT5Cz9DdGwUcnKlPqTds+3zHvDKlf0123lhUaFrKzXVNSLDbdjCFZTSp/ikTJEyOcro1EkGul+mckgkUBeOksoqbN25Ax0l/a4ySd+1K0smsbn41nXXoU279u7ribOlTXRo3w5nnTIGbRPiMVUmwnwF8LTRI1yfkyTtYvXGTKyVcg2SiVefnhmNaeyV86FLuyU4GWHsEdgifUlbuRe79uzhVjRw4hEm96TetzTsF/QVUv6CfttttzmFkPYDvH83SJ9bX1z4pSqH+JqhW+cpk5xMkTl/GBgwoD9iJP+b1q9Dr949cc4p412fMvnTGdi1Zw9OPmkQTh48DLty85Arbe20U8Zi0MB+6NW3N3IK87FsxQrU++sw6uSRaBMX716IoeEn1BvEyNRMEmzdkgQrh7bl5iBR2lbPPv1E/oHXb4Prg0f2z5T/jTfe6AzHHP3793fPPvGErXIfleflyzOvC+/6pufRkVAOMf9hbuWMPAOkILVSju3StpjH3tK2qqqrsFnGSuedcQaGDh7sfrCZJv0SV8+NPGmoe71yxcpVqJHn+Tnnnou+ffqiR7duKJUJ57zlS5EQG4/BffvJ/R7n0mJdBNLlVevixCOSCqQThqLyCqzenIkiGZsVS//u7au8hs9ifSboXil8HvJHiu3btruxEcd3lSV70Cu1Dfp2S5G+jOrNQFpOeIJ7DdgPvDl5JuKlLi8YPxKxYVVSh3VYv7MAE2cudq9sbd60AW/NWonvfO0SjOiWKO01CjFJHfD2hBnI6JqM3hmd8e70BTjj5EG4+swRaBtZ5zbT/2DuKgzNSEZGz75484OpaJ/UBtdeOA4d431olxCLwT07o0eXNEk7SZ7BYUhuEyf9gh9btu+QOlqLlesysWlHAW6+7lIkhlVST4HteSXYkLkFwwf3QbdUefaEcbtrKgq54XWkK1ugjAHZsj1SObRpZz6Wb9iGuvAoeV4fmef0oRiOcznO4rOcr29yfMVxeFlZKbZu3SJjnB0okDFvrIwVS8Rf4LUyjnQDdXgwuPtS7kfe/+7eFLkUlpVjujxDBg8ajIHSp0ZI2iUNfizI3IDtMv7t2K4Dlq1bjw2S1x/Ic+f8QQPRX8YBu4uLsFzGst3T0pHYRuZ3Eq57SkcMyEhHpw7tsUGeNxt2ZKN3ejraxsexsR1zyiHvM4f9x4ABAxpdDOPwMOVQC3AfHCqHqDDRAcfxypFWDvEXBa4SUnu+HsMVHNwgUieJZ511lluRwYcLr6lAonKIcHLNCawqhziQ4OtC/JoHlUO046+2VOpwEM56O9iJv8J4+NDjr76Mh5/+PVjTRwZxNJQLN7/kBJ4T+VGjTsYlEu/1N9yECy84H9KzI3/rZgyUiVAER/HuoXlwsnfDV3lounejXdBwbNuxSwZqW9C7fz/0bpeM6AYfsgoLMGHGDFTJiKpTpzQskYlzvEzErxh1KtrLgzYmsQ12yoNrw5Yt6CKD7lWbN8mgswJ9OqYhOSoOyRJPPvfzkfrs1y0daWwnTO4Q8JbSPfTlmFtWhqQevXH5VVehd98+e+Upg92+Yvp75Ls/w1/tly9f7l5bIlQgsh3xlaZrrrnG/YJMxQzbCSdyBwPbM1cCsX2wPnmvsE3zmopEKjc5WKISh6uGOKBgG6CCkHnTVYgcDDenHGIajI/h+Ms341J3KgH4qyvbKNu+uh0qVIQy/a997WsYNGjQF2TZGoYKYcqKK7iKigpF5pFuIHPJJXIfXH+9+yWfspoz+7NWUw5RhpT9HhmYLv58vtyLvcT0pQPKy0sxcfL7WLd+NU4aOsyt/mFdLFu2XCbzF7vXZviLsyQuhi/i+FHjr8Rnc+e4FWlXXHGl9AsjEBG+72sPrQE3p62oqkBh8R587ZabMEDuXydH3gNBMmXbZR/JiQL3JuovE/6LL7wEV19zNa6+9mp0lcFy5Z5CdG7f7stdOSSiKystx4Ili7F0xXLUSFvt1rkzOlBBIjLlq607d+3GnAUL3SqhWLkP28ZEY9f2rZg0dYabhKV36ogYmUTsyNqBZStXY1duPurLStCvV0+3n4lTrDQmd+itvyVY/4GVQ5vlnmvXOa1ROeQL6Aw8bZPtjW2Vq/j4jBo6dKjrh/jM8rbh9evWouFLVg5xIsa9hTZt2YzPFsxzKzIT4xPQLa2z29eme/cMpLRtj6VLlmDe8s9RLu2vg7iHV9bKvbPEKbRSpY9LbtcWpTLp46uLa9euQ1VFJeKjotGLqxejoyQVPoOoHOIT6Mgrh7bm7EaC5Ktnb7mvxcUrZ9YHYR/A/o0rjqlM5znvm4Bf6U+lH96WuQkV+QXoKW2Uq5/0eXSklEOsd0bNr4qul7TnzJ2LwoJ8pKV0QscOyWio82P8mDEi0xi34nrh4gXyHC5Fkkwoa8rLMW3qNJSWFKNzahrayfMjR+pz+aqVUr9bUCXjomSpu17dukk75QoNyb+kFZhMty5OPK51BdpYUWWVW3lx6plnYfSYsU19VSjDsRF/nOHKIcL7hq/pcsx1/Q034uKLL0JFUT7aRtY65dDeV64oOydBqSt5jsrZivWbkb+nGBedNgLxkdziOwKzV2Tiqdcm45xzz5Hn5Q7MWZaJa889Gd3aBjYCL5Yx0IRJn2Jo3zSncP5ozjKcPfYkDO2ZhsiwOhSWlOG9T5fh5P4ZSO/RC1OmzUHHpHicdXI/xPv8iJRGWB8Ziwh5lomY5Z6pxgefzJY+LfAqeBhXL0UlYGvWLtx41UVICK91bXJL9h5s3LwZQ/r3QVqHJBnz1XJ7bCdDZ9huXZ2xrUsZ5b6tk+cMlUrxHbrg4iuuQb/+/V3/TxNKtl+m0TxwDMR9RTk24v01aNBAeRZdKM/3G3HlVVciLbUT1n++GEOlr4iR53ug1RwsjTJpPOershX1dZgi9wg/MnFyt+6IlI6hVMZIEz6djaxtWejfpz9WbcnEtqxsXH/ameguY9y4Nm1QJH7mL1mG9LSuyK8qw9o1q9FXxsQdImKR0r4jqhrCsXjDBnTvmOx+XOE4S/uUw0Iy31rKIX3m8D7ij4g8GkZrcGAt8ASGigrvr1HGobM/GbKTo7KHv0TwnIaKIyp3dKUFw3JiTMUR3TkRD6xCCPwy5oV2NIdSb+qfDzi+ksZO92ANXy/Qc8bBzYr5Ot0TTzyBf/zzn7jvF7/AtddchZOGDXOTZoc8Ew750SNZ5i+QPIkQcUTVNbhPFYfJAGZT9nZUiLyqpFzV/npUVtfKQCxRHkpRMiThxFcmDjLYqomMQHldLfYUFbl9P/i1obmr1uDD2fNQUcc9V3yI8kW6VRYREZJOJOXUCg9LD7zXkmSwmyry6yKyo2LEK9eDMZQ7X1/kXgaPP/44fvvb37rXCLj0lq8csG2Fajv7Q9sG26buncW2yIEDFU105zXj5a85fpEjr9m22Y758GYZjyWYHw7M2WYPtb23ZBg3Zc4B5HnnnYdHHvk3/vOf/7g9iPjKDZXJqiBrLRgX66FL5y5OAZedvUtaqx++CO5hVo6ioj0uTa6G41ebuH8TJ/RJSW00BnZM8r9O4qrH6tUr8Mabr2L8eO5pMkr6B7660Lrtn7C98BW3uPi4pvpIazTBcqXhPXLxJRdLv/IP/Pvfj+B3v/sd7vj6HW5PHH4NLCDT1s/nfpEko6V/yeiWjnPOPBODevdBgi8CQ3r1wfWXXII2MfFiYnGGTIB/87Of4ft33YXB/fojvXNXfO3669G7Z0/pZ6LcJLprp1Tcfs11+MO9P8MVEpb9JdusiOmYQtsu+xWOG9gfsC5pjjbcioNf60mQ/odfrzzrtNPQTiZI8XLN81HS7uMl3z3lOfXDb34Lf/jFz3HpOeciTdrPSeJ23nnnutVdsfKMSJBnwOkjRuF3P70XP/3+dzFs6BDp/7gSgP9camICsjja6NiNz3K2G9bJsdD/8utqhHlpI/kaPfJknDpmLBITEpHaIRmXX3g+MtJSEF5XI8dO+MbNX8N9P7wH551+GjqnpuASmXSfecYZSGqTKNJucKvrzhx7Cn7z45/iB1+/C/3l/onQcrZin7pfJB2mRFlzz7bOnjFQsGGfxR9ouOqW1/yBgM/of/zjH26PwOuuuwYjR4xAfAK/kdo8XGXJdj1iyACUl5Riw7ZsVIUnoMQfgfWbd7jVRLGJ7RDTJtkpYfYUFsPf+Kn5stJSRITVSR/bSWIKg08yH82V0NK+A5+0l/qReqqtF7cIHzq1T8CegnzsKalwXxaraQjH65/Mw9MvvYv6ukpk7czBJws3oH16f1x5xdW46uqrkdGDK0tZzz7w62is7ygZkzFev9ws3IAa7hW4cGfHfYf4LbV9a4x3VWB/pTZyz/JZSvl5x5hHy2geeNRXOC+++GL861//wqOPPoJf//o3uOWWmwNfc5U24UpzGP1hQC6Bv1RMNkilxSbEont6VyxZsQyFMuaqDZdxbK0fpRVV4tbG7aUWLnZcPlkrlVEtz6EqyUJxabkb59b7GrBhVxbenzkLuwr2iPSlnqROYiUc2xf7D8r+WOjHm4PjTz5zDKO1OLZmKccgt9xyi+v8jpVB3rEOO1I1XrwDMrpRlupHr/nrN/fk4astXMHE5cb8TDhX3KgfKo/01Zc33njDTc7pxvh5ZCfJV3voh6+lUYHEvWW4AoMcSB3Sz4H4OxCYL26Kyc35HnzwQbcHElci8TULDqJcvp1PkYcrg7s4JPgrJB+Y4ZL3cJkU9+7eXSZZGZg9by4+zVyNdSV5+GTxfFTX16FHRlfER0TCJw/RnUWF+HTDCkxbsxTTFy/AuvXr0CM1Dd06prhXyzZxX5A1K7G+sghLs7fKAGyT+9pZalLgVctWRwZJTgyHIQwqIe6//3689NJLbsPLc8891w1e+ACl3Fm/VDRqGzxQtF1Q0cNl77o6ifsace8cDpLYBlmvXPnDZfNckcJXHTnR56BZlZaER68SU5VVTIfXPGrb1rR5zokOVw4xfqbPtn6oME1Nj+ZIwHjZj7I+XnjhBelXb3UKIdpRYUZ3rnzh3hmtCePlgHXkiJMxe/Yc16fs2JmF2XNmuVe1hgweKhOsJLdKkfXJlQUkIHeRhfzn79CbNm3Aiy+9KG3Gjw4dO2C5DEQXLlroZE8FdWvCauYGyKz3pi+Vef4qLBt/tX3ooYfw5BNP4K4778Rp48ejc5fO7nUZ72s2wWG/DKJiotCnT2+Z+I7ESdKPt42NR6zkqVunFFfIrjIxPOWkYbjgtNNw1iljMWzgIJw0ZAhOP/UUDOo/EPHxCU5B1K1zF5w2ahQuGHeqc+O9TaVroFzHDt57SO/bvfI/ulBtw3x0kT7oZHn+jB15Mnqkp7u9NBLjYtEmNg7xcuwn9XX6qNG44JTTcOaoMRg2eBBGyyR9jPjPkP6T+9i0k+frsH4DcOH4M3CO1N1JgwYhXsJLCpJSwIS7T6kf3XJ75e6tB+1HjxYudZE731htqKtHl06pGD1sOIYNGYr2bdsiSu6R1PbtECUTX67GGtS/D84ZPw7nStsfM3w4hkofdcqY0a4eOyUnu5V4VNyNkuvzxo3DmWPHYqD0C3z1MVAF/LNXFkcapuReufTIvznYf3E1KX8ooIKIK+74nIx2q+0Cz6a99eYOgtxfWiZ5hofX1WLkkP6IjvThjQ8/w6JNufhseSbmz1uGU4b2R7tIP3qldUCv7ml4f8qnWLJpFzbszMerb02U53E8+kpbZhp8bY0KJNYQFQS0i/PVSR8UhhjU4tRRQ7ErOxdT5q3ExiJgxsodeOfjOeDPaFFhDSivrMSe8hqERfMVyzCsWbkSH7w/ya0Mh8RL5RBHNokxkaj11yErpxA5xVVYu3038stqUYNI1IeLceo+r+xYXu1beL13HKCyORbgDy2PPPKI+wGUP4SOGTsGnaXPiIuPR+ALvYH+0HEYtyC/nuhkIjKva/CjTUI8zj7tVKmbXe6jKqv27MZseT7vzs9FN3n2x/kiQPVbZXgDFmSuw5yNqzH980VYJGOytHbt0CMtFd1Tu7j6m7jwM6wszcXK/B1YtmYVkqTO0jsGNqv3tsVjBc0P50Hcv8swWgtTDrUAJ3P8JfBY64iPRSgfdqI6OVa89jzXTpZKH07Uec4BGye8fC3te9/7Hn784x+7L07ddNNNTWG55Jju3/3ud507l+tzws/wnOgzDtpxw0kqhe699163UoRfrVJFAOPisSXo50D8NYc3PH/t4es/fJ2oSSHU6O68OG/yx41+DiNNPjDl6GKRB2esDJauufBCpLRJwEPPPIvf//ufmL1kKcaMHoZBvXoiSfKRKGF27NyJvz31Pzz47PN47f0P3APzknHj0T25HS49bZx7B/vfzz6DX/77QfzjxWdQ56/BhaNHoWM8Qx8hPPI7FNheqHigaW7fqUOJXyd9VAJxTysqKydOnOjetafSb7gM3ulOf2znVB7x1UemxVcmmQ9v/fOXbPYvwe2S1/rKm7ZdxklDey7J52oYbkbMpdx8LZNuh4I33SMF06ASiK+OBV61iW5S+nrT5yC4teGmpFdeeQ2GDBmOBx98CD/96U/x9tvv4JRTTpX6GoWysoCSj79u8l5VVJ78kZ9fz8raniVy3oGHHvoHHvj1b9xKtGeeeca9RtvaMnT3sDsLijfokiu+KNNUGeCy73PtvNHP3iy1vkwPBL4eQeUDX8HiKgbqudxTQY78bDOzFyWWMdJXRctFFP1xZaLYR/O1LZkk14t7mEySIyVgtBiuEqCs3T12lMrVHN420Nrt4XBhbvh0iBB5UvkQLfKPZJ2IPX9MiGxscOEiX77yES8u0iu5eouiX6kDOXVtis+WKLmIFhMjFnylRl+9cn85eTvKiqFQsE7UHG3cC1KUpRx9Uh+RMoGNlIko7wpnxJGvgdE9Quy5hi4uPFLkLeeNdUfDD0Kw/qgginF15/bfhS9CQvLduya+xDIzqQOQMe9h9l/eV/1ox/De0Kyvfe90z5W051jpGPr36IKbrrsMi1esxY/v+xt+88f/IK19PG644FS0qStGz5R43HnTVdiVnY8f3fdv3PPTP2HHtq34zjdudq/yUW0T55MxUxg/gy/xS51EScOOk4xE1NcgMbIe44b1w6mnDMfTr03EHT/8NX7223+hfVIcrr/yUtfv9kjvjL7pHfD2K6/hRz+8H089/hT6dmnrlFMVhXkuToRHIL1LKrp1ScFTz7yG7//o1/jeT/+KzJ05qI+MQ71Pnvf7FjZQfj6LnEzVBOyPNpoHHjnmcs+iVH0WBVZSK64c8s/ZHWbWA92LtHuJqL66GqfK2OvCM8bj9U8+xq8feQRvTp6EXj27YdTQwUiUukmUAGWVVfjfW2/hT08+jadefAVVxWW46uyz0atjB5zatz+uuvACfDx/EX756L/wx8cew+YNG3Dp2LFI79hRkgrk+1DHWEca/rjF/VcNo7WQ8dsx2tqPEfj6yLG0HPlIwpUP/PoXN83lvikH2xnSLzsprtrhO8g60aI9N7xl/NxnhPaUJb+wQwUQJ9Xc+JtpUxnEd5Y5seYrHnwVhbLnBJmv6VA7zv1WODmnG/cy4sCCk2XCPPv9fueH+yJwPxV9L5rxHGh5WO/cDPvOO+90CsLWJZAH/jrEZ9ykV1/Foonv41p5uEVLOfnk2/eXo5bhw7JODN/L52CREzO+i++XwUhJVQ2WbluPmrwidE7vim7dM9C+zoeG/9/ee4BXdZ353v9T1AtqCIliBAjTjSkGbGyqbWzjgmM78bjFSZxknHnmyZTkTrsZT+5M8s18yXw3mcxNHN/EPXFcsLHBjg24m2IDpmNEFSChRlUv5xx973/ts8RGkXSEdEDt/YnF2Wev/q7+nrXXrm/CluJDKDlTKxMhSVOozrymOCcjB4NkopaAJtTJoqBS3O3dfwjlVZVISkvFOL4VJiHZTFibueK7QGwJcO5K3/zO8yP48tttsvhuHjMO933t6zKXcsK27rmnJlr7SqgMeOaZZ0x9sY8tdga6t8pN1iWeLcD6RqiEYh3jrzjcAccJI8+5YF3nxIkTJgvDoH/uaKM7Grqz9ZOfVuFp+x76sZ/EHkJIbNxdgYpU7qj6p3/6J5NG5i3aMB82XB4iygWmU/qUI+/B7LD6H9/7R3zvL/+nURLQj9tfd+Cit6a2Gjt3bZP+pdw8zjBx4hTExSaYt499sWePUfalpAxy4uPOB0IFhcj7bNUpnDzFV+I3SBlILaR9SBYm8YnIzh4SVbnxrTwVZ8qxadsG/I9//J6Uq9NPmDjbicJRlPB3aSftpj8QORds34bPVq/GldKf56Rdum3nTCaLuElExR0SMdKt8XFX9lG8x2u6YbL5CzD7O6aZsF9gbgg/zW0Gxn/SJzi137ll179hrxcFI0vEYO2nnyFvxnTMXrwQ8VzI8kwqaY+dxdbnN157FcEjB3HV1Cvgl7LiLk/mzewkEcN8Xcz8tMbGxxcZMA2UqS8sZJ7x0yz9PCXAg6ZNQum6mT2xtA2P0/fZFJs+3RYkA44yPGOEwfJsPtaj96V+50yciMU33Sq23pYx40JoqK/DB++8jfI9BVgsfQDH0JBEwtz6ODCFD3SOJqasw9etxeT0jWKsHJkvc802wrbipMfWPLf/kBSA4/t8ObBf4Lwg2jj1RcYlCToobaGw4iT2lBzHwtuXYQzPd+sErft45sCkX+4//r//HTme07jp6knwBxsoAfmTEvJQLdCMmJCMf6Eg6j3xqG2OQ2FRGfYdOIyUpARMHZ+H7CS/tFWppzJG13oTcaTspMxlDktimzDx8tEYkTvEKD45jm7YUYDJl2UgOytT5BiLQG0l1u0+isuG5SB/aAaag4043eDF9sPlOFZcgsGpCbhiwmhkJMUhQeLgq+zLz9Rg975DZhdq/qhRSE9JQuG+XRg/biwGZ+cgEOQY7sGJ6gbsLDiIirJSpKcmY870aUiOj4Xf1DVnbsC25zxqFkKNzLY+2VOMKn8G7nzgEcTEdu0szUuL5MVUObYhoGDXdjzxrz/EfXPnIs0fI63s/DraWdgGOAp4RC4hyknmuDzMuzoQxM6yIlQdK8Wg9EG4bLSMeb54JAab8UVpMXaWnhDfDYiPAdLTszAsKxeZCXFIkpkymmNRJePugYrjOFB8FHEyHxubPRx5GdlSf3hIuBN3NGBT3iXlXiXrli8/9DUkpqaZsg7bmrx1dqZr56J8KQV/KOQP4ooSDez4orTDK6+8Yh5hUjoHFUvcGuxecLPz4mKMj5FQ0cYOjQtfvi3EvmWMi14ucLkTiAcS8uBgKqi4qLaLYi7AuDODzzTzkzsQ+MgWFUPuyQXd8owfHnR9xx13GIXUhSiG+iKcIPqYPRl5OPhwEs1fJBOliWf5YrFo7BTcOWcepg/LQ7qs0OJEpvExXplAXY7bps/GTZNn4OYZV2Ni7nBkyMTDmXpwAA4iPS4GC8ZPwd0zr8WS8dMwIplb3v0i6CiOmH0I1jUa1lvWWf76yXrN+sW6yjrL+kZDO7YF3iNW4UNYT7lryNZNhmkmhWJox/Dpz953f9r2QEUrdxDZ8HszNm89QTDQjIT4JFw1cw5uuukWTJ82E/FxifB5Y5CeloE5c+ZIGaYYuZ6HJJfKoLRBGRiVl48J4yfj8rETxIzHuHETMXJknnnlOsukJ2iR6SUUq4lKsutE2XIh8ELSE74i59a5MuWlkT7DUTiE67JzJQ6dBS/dcMeELQWnL2OYjhsn9A4IWzv1zJqBga2BNsfu7+dJQi6ccmm5I7ek72JRiqEdF/ssA7owPzbwSj5NGco9loRjy3hsOYa/sXz5hWHxvuMs7Nrc7reck4qDU28pBfPlT/LO75QzTVhk4k7+F2MWjFREh23MnwnDuDJhOt9lvAh/YbmY9sJrJxgD3bmx7Shs3WN0ZzwIS9X02bEiwGRfI64ckYq7rp+FG+dOw5BBiYiN8aMpKPVV+vnE5hqMzU3DzQtm4xYx+TmpSEI1YoM1iJfpzLVXTUNuZrp0M0Epj2bp1+Nw3ZwZ5jFdFoW/OYDMBA+unXQZ7rvhKiydPQYjkyFzJSpIfYj3eTAyMx6L50zGkhsWYFz+SAzNSsE8CSM3OxMhGfvN2C1zqswEL+ZNG497blmE6+fOREocd/Q1wRdqhDdkFa5K29iK7cxxvcFmxElVGOTx4+rh+bhN5rHXjp2InNh4xJu+K2R2dS27chaWid0NV16FaXljkJOSigQpM3hYLkGpCx5ckT0Md82Yi6VTZ2Fcbi7iYmnvjE29ETvv6Kn5h9J/sXMwpR24A4W/0GvjiwwHaTvYtyUvq+SxyiDrht+pPOKbkuxp+9bOasbd4dnvZnHhuib2HrGfpDuTkL6CmShyd4EYs7ySATQYDIl8PYiRa04c+asVf3Pj+UQ0MTIP8fFFqTK7lPFRJkA+83w2510hxIi/WHNPvIhf8R8MyHeZWtKYWAcW7nrGumnrJ2E9JlTU5OfnG0UpoVvbNvhJ3HWWuL/ba3f9be2e1/Y70+C2640w/W5zqTG/xlOm3Kkh9drTLK1ArkPSPrh7KCGBhxxzt5Kkza6oDCJbWSzQu/Rc8il9Fw2vwy56siWck2n4RpRhzs7b5SD1lwqeAPsPRsr+RiRh3rBDWVGBI8LiDiFpGUaWVPZwocv+hm59EqCPv6CLcaTnhE5bnlVjQjLhOWGKbwk/HFe4bJy+zlwafwZ+pzP5k5bJ1JxrF+GPvg6z4ShnrHGUADT8zxOS8pHayV/lTZ0VY8pDLqy7Fvem/BgiHUloxlDWjkxN+CYQGR94Xzw1S90Pef3iNCTjhMjXVDynjPnjBMvKUUzIp5ftRsqPO6yYJlnIyRBj3NBXf4A5O1cWznfnHuVIWdgdWew3WD7W1rGz7mmIkWZYpk7x0C2lRlny0/FHh8a/yJnu+IZDjvoc99mvmWITw086d3CuHOUsQ+LYRf/huhG2c+eH5mJy4eOB45Y7aszOEclvQGTLdm5O9BFZ+5plvh6sE5kERWqUl+SXxit9tvTl3IFkDn1mX+b4MmnwhxpMOYE/fEnYVBF5m+rM7iS+uZK7iSg3fzPfLsbdJiIrcc9HZJv5o4+44fjBc7niQ03ir1FCZwFIvQ+yzjux8RYfA+Q5RVQEcWcQdRRsimy3VMAq7cM6zXrAGk9jDvuW/oil6Q80SrE4bcUv4wtbT5OIk+3O55HyEHmbF7bwe7BJ7rM4eM6TtBzWATE+sfNLOZpZtFHOOnO23khvn/cpfZfeW+uVPgc7qs50Vm2542NfS5cubTlxv7W9/d5W+G3ds1zYxKPvw9xaBZH5Jv/MVFRG1KDc4mSP0uKn8yu9fJcR0vm10SUrc83FsBNWkP7phh5MCEprbD2kkoiPPHIXnFUYtYW7bvKa/turrx3ZKReIXV3xfytSs9LiJ7+cL2frhtNFt98BAcVCE/4alMWV9AKmT6kPNKFevrMfMWJpga4dOZnlqljK+gcBKjGpWAoE0SAT96CPCzsnLIO4k69mQcddiU3iqVEWXU74XAw4kdCNMbzmjfB3+QePhMlXtvPQ/YDcaZbvTv9Hh/0AyYcpj7Ax/Xi436HqoE7kxcVQyCx85YKE3RI6NX55TZkaJR8fthBZy4LKGQcce+svyBWUuONbnBpl4dTEmyJXxu6Ug1NudMZP41suAsGAebSRQ0iDlEmdGCoVJYh+g5FVK2MUavJJGfC6RtpJE2ViFpqUmlOT+eieGU6FljmMqecMA6hvkvYVaDBlRBmGjIAdt8Y170s51MmCt1aMeVup+GfYVIEzbMZhDMcP+hHol295qpfFca0YlokJtx3TG3FUWEyfoyCwmWOdZ/6c/x1EJAL7GZG/kY8jC/rj40g0xPQUNjzBKB6k/PiaeUJF0Dk7thu+1Uz8mghYNgxZ4hCh8XBrKrCMW+PPKRfTEco3UwatysTYmPjtXaV9KCOnrBy50YgU2eak4rPd0YW5L/Wbip6QV+a5TvGJM/HJNmcKgu1Syk7cMiyrPGcI5seiXozpC8Rw9zifxFCUaBFuKorSc1Drz8dzMjIyzCM2itIfsAO3ovQXWJurq6uxddtWrFi1Eqs//hDHKsqMIscsgGQybXYuyB/hfN2hGU2ySD5QeBhvvrsav1u5Ap/vK5DFacAscK0z+grIwqqwuAhvvbsWr6xciR17C1DdyEWy48LEEf7kjJ6x8X4gJP6KjuGdD97D75e/is9370FVg/ijIqN3z/G7jFUqnzx1Ghu2bMZLq97AexvW4VRNtVEQmSWSKROacxM+ypLK/rqmRnxxcD9eW7Mar69dg31HjqCBZRJ2x+UulUjV9fX4Yv8+rHz7bbz+9lvYf/QoGsXO2Q3jyN9ZJDvKQFM28r0hGETBYZb5Gryx+o8S1wGjuGupFv0MloXk3ijAyk5UYO2HH+IPy5dj4+dbTJlQIUpxUT6Uk5UVy9EcwC7+z9ZUYeuuHXjh1eV4c+17OFIm7Uv8UInHQqSY6b6mtk7c7cLvXn0Vy9e+g4Mlxx0FLMvCpMIdh0mdKZO6+jrs2rMXr6xahVfeljI5egRBplvsdLxSlL6D3YnOM1ivvfZac60o0cDOFZR2sIfI6qB58eDuCspXZaz0ZTi5duNM+M+/pyh9mWAgYA6/PHu2EkePF+M3L7yAF19fgRNnzoRdCFxkijG7DZvNQxvmld3FRcdRUlqKmoYGrPzgffzsN09h+xd7EQj3+1REcAFbVFyEQ7JgPVVZhbUfr8Ovnnwa23fvRlPI7AVyFsBsV0b5IT742IbcKykrMcqh6voGvPvJOvz8id/iU1mUU9lEf/0Rjpk1NTXmRRDlZ05h6949+G+R16rV7xi58sk9PvbC7FNtQMPyCQSD8Pp9OHj4kMisCEUVJ/DSG2/iV089i+LycqPAYInwX31TAIXHjuHY8eMoPVGBl15/HT/57/9G6alT5pd2Kha4u8uclBJWSPERm5jYWByTsI+IKT9zGqvWrMUvnviNlO2xfloaDlywlZeVY29BAeqlvWzdsxs/e+L/4t2PP0KTZJyPY1J5ZORkZOx8sh7XSds4KnX4xOlTpk098ezz+O1zv8OJs2dNe6JzTtob6uuxf99+cXcWJ2tq8dRLy/HsSy9L+yo3sjW7yZoZphM+42OZ1jc2ovDIUZRWVKDiTCWe/MMr+PWzz6JMylznYIrSt7BzTB5l4H7TqqJ0F1UOReDhhx82hxuzAerAeXFQuSqKovR+qIjgI5PXXH01rr/xRngT4nGstEwWtY04feYsNn++zSyIm8QtdzsUl5XgcOFhBJoCSE5OwuTJk3HjTUswbfYcHDhyBEeOFsl619n7w+Uy//x+L6ZPm44bb16Kq2Zfg2MlZSg6fty8FfCLvQU4JQtlxtHs8+FMVTV2fbEXlbJA5gSZ4S+64UbxewsOHyvGgYNO3Dwjpz9ilc/DRwzH/AULTJnw0b/Nn39udpbU1NVhx45d5hElPkpEBcPO3Ttx+vRp1EpZJsYnYO4112HJTUsxJHcEjorM6uobTLg8sYNKBiqSUlMHYcbMq3DHsjuRkZWFgkOHjRKuKRBEwf4DRqHU7PejXuR84tRpbGecNfXmzI4ZV83CDTfdhOF5o4wi6kxlVb8d8yk3nlEZag5h8pQrcO2183DDkptQUl6G4xXlRplWJDI+VHTM7LxiG6mTstkrMqTilGfTZGVmYtas2bj19mVIz8rGzr37RKZn4ff5TdkGm/kAITBkSA5mzJiJW269DaMuvxx7JIwTJ0+hStrCrj1foLKu1uxUqpfyO37yBHbt3SPttE7CzzLh337HMozOHyPhH8DxkhKT9o4eg1YUpXfBfpTttrKyEvv37w/fVZTuo8qhCPCg5L7wJiBFURRFuZjwzXujRo0yuxFiY2Mwbvx43LjkRmQOzjY7VdZ/9qnZIVEvC9gjFSV49a2VKJaFZ1xsLIZkDkZqQhIS4uKRlJSKe750JxYvXAwe8G0eQwozfOgw8+Y4vy8WqYMycPeX7sZ1c+ch1h+L47LI/tVvf4uztbU4U1ONjz/diI1bNplHobi1Pik+AUmJKTJp9uOuZXdi6S23GQUI32rTH+HigOf0ccGfGJeAeJHRvGuuxqPf+nMkJCaiuroG6zdsxLqNG1EbCGDzzh14/6OPUFVVhRQpi9EjRiIxNg6x3liMGj4cd91+O3Jzck3YIe64kvCT4xORky2yTUhGnMQxJDsbf/Hn30KWlDnPdzpw9Ajeef9dFJ+sQEXlGby04lWUnzghYcYgP28MEiQer6RrcPZgfGnZMuSPGSPVp/+Vh1V48dF41uG05EFIiI1HYlISZs+ehYULF8mE24vKM5VmZ1fBsSMIxcVg047tWPPuu2ikAjUpGbnZOfIpMhMZ5edfjq89/A2RWb5RcJrHSKTtxcfFIXeIuJOySYpPwkgpxwfuux8TJ0w0L6H4RMr7nfffQ1WgEWW1VXjhjVdx6Ggh4hPijfIpKS4RMZ4YDBsyHF9/+GFMnXqlebyfb9NUFKXvwHZbWFiIFStWhO8oSvdR5VAEKioq0MRf3cIDv6JEE9YqZ0s5F0f29/NzC6V+i2TRtR40nJfvNkQwAKQygOhEaUrj4CNJSg/LwD30ST/FsbCivBzPPPMsdu/eI+NjAMFACOnpGbjjS19CwaFDeHnl61jx1irkjR6NGbNmih8eXtyM2uoqvPriS3j9tddw5nQl6mrrzX1ORJhLc6hocxB1VdV4+60/4pXly1FWcQKNjU1GwXP13Lm4fMJ4PPncs1j9/vsoqSjHjUtvwSBZ8DIdAXH35hsr8exzz6P8xEmzC6ZJ7pnutR/QehZCZQEXB9xVtXXLVrzw/As4eOAwqqprRJ5eZGUNxvyFC8y5Qs+//CI+27IZ8xYsQF5eHkIiL74x7sTxMimPFdiwYSMaRFZ8RI87XBgX5dbMNy3JvVMnT+LpJ5/Etq3bceZspXmcLCYuDrPnXoOk9DS8tWY1lr/xBrKHDsWca+Yilm99kvBrqquxcuUb+Oijj8wv3FSC9EeozGF/xarGHT5UBK1fvx6//b+/QU1dg5EtbSeNn4jps67Ca2+/iRVvv4UP160zO76GDx9hhB4KBHH0cCGeEH8bPtsk9Tdg2gnDk9ZndiUZpFxOStt4/JePi2w/ETcNqJf6npI6CLffuczs0nr59RVYLu1w2Kg8zF+00PmhMyTtt6QMz/z2aXz88ccSXwh1dXUSsrMLgfnoXZxrvK3r/8Ci7+eePwIM7DIk0RuMOBazzRLd9adEE1UORYDa2LKyMtMAbSNUlO7B4dE5BYPGnEHg8csnX3Rql0n92Eh+qQiiQsz9JiIqizjtbf0AiPWpnVV/wZaoNSTcGjzhNyBJZTC29nqgGPnjW3H4Zh2qTHiPMrLt45JjFDdSJlIu5rXZcosvTYrx+pE7OBdl5RV4cflrKDh0QPovL7JzcjFzxkysfG0l6qpqMGvWLPj8fnhjeBBvAF5vM7IyBiE5MRGr3l2D19a+Y96AFRP0IC4obZyHFfsDiAk1YUhiMhLi4vDqmnew6sMPUVvbhPiYeFx//fVyXYsVK1diwqRJyMzMFH+SNpkbe+gvOQU5WVl465MP8PtVryMgi1+vOc23f8CcOG+ikoU8D5IRw7ckpcQnInvwYGwp2Iuf/fbXqKypFnnFInfYMOSMGImPN2xCUkoGRo0cLf4cWfsloIQ4H9IzUlHdUIffy3zns5070Wiao4QaYtnLpY/ybUbOkMHmMbMnfvc7fLDtc0mLF6ki78vHXo4v9u3D4SOFmChlkpSUhFBjo5Q3228Ag9MGwRNsxht/fBsfbtlizjHqD1BMLA++xt8vddAXFHlJPqnGCQabkJqUjEEi882fb8dLK95A+enT4Cuzx4m8YmNj8fLLy82bWi/Ly2sJj4rUuJgYDBs6FNVShk8++7TIdi+CoYDZFeRjgci1x8szuJqQk5uN02fP4Pcvv4TNu7ajUdprmrSJOddcjXXr1mF/wX7MnnEVkmMSzOu948Q+ToIYNnSIeRvgE888g3XbNptX7nOx6ZUy90tCmK+e6XNa/jMYmZheyDnPig889mdDyZs3ozkn8LMByZ1z8ugzUIkpgwXfHMb9aB6zQ5RlyLGAFWugGhFNWA5m7uvcMrB2h9+80CnYXvnjgGm37GwVJUpobYrA8ePH0dDQEP6mKNHHLP3YuYvhNV8t36+NTIDsJycP9j7VQs7rSB25KP2ZcxOl83FPgsXe+TdgDDESMF/cd51lw6XGpMCszkwvBV9MrHl8bPCQXNy+bBmunHolinno8NGjaJLFcHlZGfbs2o0li6/HkLQsfLFrL+rq6hGQhTPPCIpPScLCGxabx4tqG+pRWFwcPqTXZ5RLPIMl4PMjLjERC66bh5uW3GzeblVUWoL6+nrU1dRiy6ZNyEhPx/x51+HIkcOokDi5oOYCJD4pBfPE371fudccYH1A7Hl4L5UpVpJ9GuajJS9SJlIWzV5ZdMX4MXbceNx1911IH5yBPQcOoqquBo2BRpSI7E6fOo3ZM2ehQcri8KHDRsnAt7jx3Ju0zAzcfP0NuHb2HNTV1mH/voNobAwgNiYOHmrcpOJx10pmegZuk/KYP/savlIOmzdtNYqKqjNncKTwMMaMHoW8kSNx8MABVFdVmvJmHImpKVgwfwEWzZ8vCxgftu/5why83F8w7UMwZcGC8fFw7hD8kvfpU6biwXv/DOlp6dh3tBBHykrQIDX10IH98DYF8aWlS1FWchxHjxwRP0FnXShyyx0+Al+6+x6jOKo4cwrHy0oR5OJP5CdrQXP+EFvk4Kws3L3sTsyZPh2npIx5tlFTMIDyinLs21eAuVKmY/PysHf3HtTW1Eti/eJLyjJ7MG65/TbMnjMbpyorzQHwPOjdtvfeMgyHjzeX9hs0r4f3SDvnHSd1/dU4YwDrEsuKSjHH8EcDx75PEE4qxy3TROQ/znGdV/xzrif13TX/GzCGEpEG5tTsVpgbnS9jKoTsxgV9JFSJJqocigAHfEWJLs5Ci3Dy45dFjD/UhJiWCVA/NzIJ5mSPxt7jNScMnPwpAxszKabhtZjw5ogBYZy5oTN5dkxPjz8y8WzmdnXuZPLJ4vMEisorEJTFaUp6OsaPGYOhgwcjOysTNdVVWL9uHYbl5uJeWdjOnT0Xx48W4cD+g6iubZAFaBHOyGfQ75xV5Pf4kJYyCHWBAAqKj+HQiQpUyQJ1V0EhaoJe+BKTMWzYcKQlJolJRIzfhz27duLwgYNYetMSLLvtVqSI3ZbNm80By4VFpThV0yhpi8P4CRORGBOHjKRkWUhL2mWm0x9GcqkiLbC+NMn8pPTUCRwrL0XA1yzyGoq05CRkpqWa82VOnj2N7du3YdTwobh32W2YNmkCdu/cgfJTp3C2sQn7jpeiqjGAQfHJGHfZKAxNz8SInKHmR//tuwtQfqYSdWJfJO4aGprMuUNXTpyCFJHtpJFjEGxswN49e1BbVYUl11+Pm2+8AadPncS27dtRJwLfJWVVI/HESzmNHZ2P3KxsjB42ArH95BxHqxgiIa8HIZ8XDdJuj5QUo6q2xizehubmYNzYMcjISEPSoBTsP3II+/cW4Prr5mPpkiWYKG1h27atKC0vQ/lpKcuyUlSLXFOlfQ0dNgyxsXFISE7BqeoaFBw5itO19Th+4hSOlZQjJJWAZw6NHpaH5NhYaQ+JaJB4t27ehEHi59abb8ZNUiZU2m7dvduU5+GyclRJm0scNAgjLrsMMdI+0qUd+l0LTaPkkry583fpODc/4nyAcwN/c0DmRk3SA3H+0L/hzwDMr6NEkWKQ8nBk0tdgThzDHHjtvI9laOZ9nO+dmwMOGBPlcZ3tNV36CiqSFSVaqHKoE9jtev1dUeTOHzscble0k4WBYoiVw8Urb2fyY2KTOKgg4q8JnOyD5xb0c2P+ZLXWYvgnC0Xn10qRzSVoZ4zDHY/9fqkMaV3netIQuz25p6As+MgFKwL/zKd85W6yAWX4UnAqiGQiaRpFD+I86iZtk79ay/VHGzbiN08/i607d6K0pAyN1dW4ctIk5I8ahVh/DPLHjMZ111yD5IR45OeNwtVXzUZ6WhoOHDyIJ3/3AtZ++DGOlZaL3xJcNmQIrp4+A0eLivDEC7/H06++go1bt+KJJ5/FijffkUVyGc6cPom8nCGYPmkCEhNikZE+CEsWL8ao4SOQlpSM2eJ/rMR55OgRPPv7P2DlO2tQeLwYJcXFyElNw4LZV4u/BEl7z8oxmjg9hiAXNQ11kue38dzLL2FXwR4UFR9DvMxXblm0EMlJifDH+jF+3OWYecUUZCUnGeXQ1ClT4I2JwdGycvzXb5/E+1Km3HFy5uwZjBmdh4mTxmP3/n34j189jt+vWoWdBw/gqRdfxLvr1xmlR5m4nZg/FtfMnGnSMiR7MK6ZNRsjhuRgRO5QU/6Zmek4VVmFX/7mSax9930cLz6OUxUVGCn2M6dcgfjYWCcPfZyWshC4J4A7hvh43guvrsAzr72K/aXHUHaiDDHSnq+dPh152UOQEZeMa6ZfhYlj8pEUE4urpk3D5EkTzVlCH2/YgKd+93ts3rYdpWWlqKuuxJQJ45E3ehQ+k7bxCymvt9d9ghXvvYuf/fYpbN69y7wFjWcGjc/PxyRZIMb7/BgrbW/+3LlIS07GZSLza+bMQaJcb/h8C5547jms37wFpeUVpkzGS/uZNW26aeXsdpmPnibEnYaSHvkQOF9y9hBxfkR4+1IZE7/0H2asFtOWm2gZQgWKj8qhsBKhmbKQuuGXOmR+RHON2b0ZU36m3JwSpMbZ7JzxSRkaReQANSITM6yLCa8CugXrQk5ODubNmxe+oyjdx/cvQvhaaYONGzdiikym0mSCaxdy/RF2MPZ1iMxrRkaGud+f89wWzC8Nz7Q4evQopsuELjExMWwbPShVM2DKKFEgE7zD+/abcxuCsgDjIxaBfmycR0hksRk2AZFEyBuDehHH8bNV8GRkYqpMVo2cLkL9Y10vLy/Htm3bzHVcXFzY5tJg61hvmeBxYcGDSufPn28+L4bMO8LK4ezZs3hXFpJzZs81P1twIuk8djiwtp8DQTQ01aOktAjXXneNrIdaeguKpQOsylmM/OPy6qQsMIsPHkSO9OnJ8fGOswuA4fGPO28kdThWdAzrPv0U6z5Zh8LDhzE4LQNLFi3EZcNzER8Xg+ysLMTFxpuzcPyS7rTUVKSKYX+6a89ufLJ+Pbbv2I6zZ07j5vkLMW/2bGmLZVj78Qc4fOwoZl11FY4fOY6PP/kEu3btEH/VWDD3alx71UwkxvrN2ETDx5l4zktCQhyyJM6ALDwKDuzHBx9/hG1bP8fJijJcN3sWblm8CLE+WfYaGXYRI0sfDhUXI21oLobLQp27kcwEvwttpWDvF2g+exrDcoZwmSDhOPXf7NYQE/7oENqbM9tk4ci3wX2yYSM2b9qMYzJmTbp8HO64ZSnSk5MRHxuDLBnLE+NizTky3CWSmZllDi2ukna/5r33sUn87f1iN7zxPiy6fgHyJX8HDh/EqvfWouhkBUaNuAxf7CvAxxvWY+++vRJ5M+6443aMyRuJBFno8W1pqSkpTplIulJTks1jf9wx8O777+PTzZuwZ9cuqdZBLL7uOkwYm4+EGH9XRGfyTG98TDAkdbJQ6nfy4MEYnc9fzcWuC4EGAwEUHjyAmoqTGD10qIQiLUeCYal4edGBgpY2jNGJlW495g1um7d9jnc3fIr1mz/FqdMnMeXy8bh53gJkxSchIz7RyMfvN+oY+KXPTc9IR0J8HE6ePIlNW7Zi3br1OCRzsdTEJDzwlS+burJLZPjeRx+bHT+Dc7KxffdOfLj+YxTs2yflmYrblizBhFGjkCBlnckyl/ZOZTvLheWTJnHy7XWbtmzBx+vWST3cI22oGfd/+S5MGj0afqmNtn+xOT6Xt7Yx4hHXdMOyOVNbh4rqKowaNx4ZmZmOowuGPQ0VC8DmTzcizhvCqMtGyDxB5g0yT3DmDv5LagLSAXKO4ny27SY6hgenUaHCuVKs5Je7Hv0yIvhwpPQMGr3xmDB1Brx8rLALdb0nsKPSybISfLb+E4zLz4fXG2vKs6354UAwZdIOGxISMOXKKxEbx3HZKcuWEu1k0do6wMOoOY/tK3VC6f3IvKSXrFB6KYdlAsxX5NoFZH9sfHaH0JEjR/D444+bPPOVxbw/0LDlywVzskyuf/SjH2GwTD4vBly8cSG44qWX8H9+8lOMHDwEHpmohn8u69eYM0DCxicLDD5U1iQL41r5vOm++/HgV79qyuJitbedO3fipz/9qVGGmje4XEKYJ/uWIZ6jwlcf9+SbJljX586da+p6PBcU4Z2Slwr7rDyVsXfddTcmjZ8qaeCBnCz7/t8WWhNsbIQv1ocRl+XiX/7XY2bxKLXGLJbaryXsTcIb+GUBQ9EFqTDZvg2frV6NK/PykJM2KOz2QhD5swikTrCUGgMhHCosRMWpk8genI2stEykpiaLNccQ/r4vKaAmiZ8ebqNnGXrQ2BREmSx8i8pLEZOYgNS0ZIwQv4n+eJyuq8GWfXuwafMm3LX0DqTEJOLQ0cOyavaYR3Ky0tKQGOu8ZUkSwhw6hknz8iHVZjQ2B3G6shJHi4qlPgWQK31pdnqmebW9Sb+Rjbm4YIwsEYO1n36GvBnTMXvxQrPzhYdgUy6dhVMtmjdeexXBIwdx1dQr4BdZ8QBgJs08VijG9IthP62xOTD2LGfJf7XUlyPFRaiRhXn6oFRkDkpDqoxd7DpZa6gAoE+zSDPlITKU/ob+Sk+fRGlpCZIS48xZRfSfFCNlcqYK2wsPY8Vbb+FvHv46mgJNKKsoR6KUHV+hzl1bVDTFhMcqE4MEbT9JSCpMhZQ5z8vxSh+fkz0E6ampiJW27ZN0h51dECGOCRIJD39uksbwvtTvnIkTsfimW8VW8tUFJWBDfR0+eOdtlO8pwOIZsvCW0uYhuqa9UQNlFLZtwzKz5cUccedfo7S7s7U12HvsiCnvrNR0DMscjJTYeMRy54C45/vggnJh5MWAJN38rG9sQFFZmVES8aDvwRmZGJQ6yCjCeDbQOqmDdU1N0l/PQVNDHcpLSzFIyjtjUBZyMjIQx1BYn1j47qm9fOWZ7HxEsKTiJE5I+6UyKjszHekpyYj3xbaUh8tXy732YP75+BPHc56JVChh7yk5joW3L8OYsV17zKU5FDBNnYqR38p89N3XnsPwzBT4RQZmB6DYn5fIiwyj9EnkfGsxx2ru5LlYUN7OI/bNCHid3XWxZrLkRUUdsODmO3Hfw4/ImNAHdt5RcJIh/vhHdmzdjH/+679ClqylYqWTGIDLCwNrT4OIZO7NN+PBb3wDSdInsnwJ+wbnIvzZCTiP5A9rxcXFmDx5cviuonQPVQ51Ai5e7ILpYi1WexJbBQKBgEwUS83ExCqM+mN+O4KysGXNX0SHDx9uJgRRpWUAMA+T4WxVJQoPHDa/3HHENGurSzn7ucSwRnEQ5CfnPVxM8K0pzTIB46uRh+YOQ0Z6xkWrgyxjKmVY18+cOdMjdZxp4FsQ+Xrnq6++GiNGjAjb9AzcfTF06FBzfamVQ5QF+x6yc+cuqRuygDJlYsul/7aFP8VjzuIJNAeQnjEIl40cLrdYHs7isf2S4ULT+QU/msohJ1S2Q0mBpCNo1p0Mn32VTPADzfDxTWRoEgtHGcRHRZ2FMh+NkDQxPVzd+virqbR1Ke+GUB0yZPETKzdqxN/2wv04c/os5ky+EkkxcQjIwj/kp18gRuJslr6AB1YzY1SQWeUy80klARe+VBMxzxyvY0WGiRJ+Y4P0K9wNR2UEF5VdwMgSMVgjC/NRPawcOk8ZQbnSn0/kLwUU8kndERuf5NknAmpiuUnAVA5xHUb5mfJhQHLPI+Ma33cV4Jl3FKonBF9IyrBRjMhuy6HD5hG9O+ZeJ85lXJL+WaIU2UuYEiDDCbEu0Kv8x7TTMC4m0Ct1wytx1DU1mMfbjHtp59zJ4pTihcN82vh7g3LI1DvJO/Pm4ZvKJH1U2DGd3AUsRWLSG+Jb+KSuUN4eKscofzEW44+lJXKmFoRvhKNK2BuQOi31wxcfhyoZs3ZLGrkzb/z4sSZd3BkWkPLye/1oDjD+8JhpwjoXPiuYR+oEFS6NrHNSZ9gefMEmxLDMQjxTjOkOOw8TSZqtlUOHK07ii5ISLLz9ji4rhxBqknrklfrrQ+XZSlQcO4zmxlq5x/SZ1u+4u0Ts2r1b5gt1mMZH70RupsJfRCSX5v+Axzl0HJL3pKRE1AZ9GDJ8JLLTU00Z93rYr/HD1HsYGR7df0AuGkz9C7DhDFDYB2ZnDUZG9hCeLi/DiNMftoikk8Vrx5QdO3bggw8+wF/91V+FbRSle6hyKAJcPPK1rFZB0Cc65QuEVcBMTsKfltbfBwq2SVzUvDMKGQn4wV/DuODilIffB0KDpGStdClvm2/K3E6aL6b8e7puM37+0rNixQosWbIEY8fKZL8X0BNyccdprlkzeq5oegVcI9qZYqfLQ2Qnjs/1IRJIwdbt2LhmLaaOGtnFnUNcAFLJwDSIMXEwaTyDSBb/0m/xrBRnvebE7OxOEegvfO0sVsVI+vjQCBU/viZZ9Mr3qrpaVJw5bR4/G5SUYhbFXEhTcU4RGCP3uOBmDEYxxED5RS7M7+zhG1ZUxg9fKW4eyaANdzXRw4XhvF2nGY0+H9757DOMmj4NVy9eLAv0OAkvHFknYd2mMcqhwkOYeeVUWf6K4KgEb5W09kKmM+bVPO4kUK5mN0VYrvzOh5WauW0nvIam1Ch7o1hxbsk9Z9wxV0yCqXD0z51GHtQ1NKJQFvlUWqf4YsUZlSVOPOKYG11MYhxlgvmvhZY0SpCmZw8rbJx27jhw7pzvrzMwfTTMf5PUkQ+2Ocqh+bfcIrZe+KU+Xij8oeC9d95GacEeLJ5xJeKCspSVpPFRHqmlcil/zFQbGGWdfJr6Zt3YSihp5CUVPlS4c4ebrcMc49zKIeL4cnbCeahVolKId8RPfVMTqqqr0VDfiMz0TMTysTwqoajMs382XoGyllstOJcsQ7ZBtlnJmSSYOTQ7YUy6rKvzcQXzJwS9PGSYPlnSfhyuOIE9JaVYcPvtMqZd3qHf9pGaJokwCmiGLWljmTMlTkwXHzsOBaQu/NM//k+Ul1fg8V8/Lu1eeqeuZarT2OCdHPNCSk0uWHaUha3hTnu6yInpDqagpF6YuuXA1LKdmO/y5VKUZW/E9BVUnpnCPL/tXgimnQs8ImHt2rX4/ve/b74rSne58JF0gPHiiy+aHQb9Gdsxte6gevXAcxFhvi963k3wnH7w18Vzz/rzNq/7u3FLl7K2ZyMYu0sg/4tevhHo6fjboyfS5Y7TXPdO0VxSuC6iLC6sPBy3XFSYhYXMG5073DES3jXSBeMP+cwOCp+shH0SDq+5IOTPJdw1wE+/ROgXez/diR9jxJ89dN7uWOGOCXP2TUC+e7g09SIpLhEjhwxDRlKqs3uSfoISHt9YZuJy0s/4GQfTxPDMn3z6xcTI/RhxSz8t/rjLQOKzcbbOV6eNxGOm4CJQytPZ9dH1Skqf9M/8UNHljsvKzn3PbWjnyID+GA4X+E6aYuS736QtZPpT64eyYx4cGVh/4kfumX0YUnZUUkkpy/8xspjzIy4uAfkjRiI5JtbJuwlLwmHc8me2EPGK98LxWNOSRhO+U26m7EwZijF+/tRfZEPZMTVUcrBow/VKDDHp7AL0TdnY9kK1pC/EekNZSfhG3m0b5tMpx3B95F9LWPIfy4NXVKixjQSlnMSwvdiytsaEIV7MNXV7kj/mkWvIWF8s0lPSkDs4GwkxMSJXccPwwqVGWbfEK4bf3ek07UXCYth8JC+W8Ui6+byaxG7srFt3mkxa2jFOXE7YTjs9Z0d/Tql0BUlTeE7EeuyEw2/OtVPzLp4xSjsROhWsVWfPYsf2rfhiz06UlRRL/Oyx2vYXLcM80pi2SeN15GHnR5aeGKsvCJOR88vMpFj+Y9Ld9weaMfnn7j0p1+6Uo50j0FhFkaJEA9ZTpQOOHz+OhoaG8DdFURRF6b1wqmmnm1xEcw3Is1Cce5xA9rwxC7Cw4eLHKDMkhc5i8Hy3PWlkjYuATOCdx6echQ4Xwy1OuoL4cytpzC4SuWliMBP8S2/c5cFH+PgZy93SISdt1l3PGtZnvrDBax6P4mNMzlKdsjx/4XwhsAz4mJpR8oQklGbJtxjujuMU+VK2G8raGFd5GCspE/sDinXb04YpcZR8jnKpRYEbpLIo3Eb6KHbBXVBQgK1bt4LncXJ3xkA8h1Pp3VApxDG0J8+tVPofMgZx9FHa47HHHsP999+P/Pz8lgFDURSluxQVFfW6x8qUPgxHchme7PLFIwuZPdu2Y+2bb2JUVgYGp6aEF7qXHvvLJg1/LWVCqIRwxlNH/eDgLDp7C1QcMH2NMvn+dMcOTLt2Lq5bfD1i4xJMHi4ksTb/K5a/gtLtWzFt0mTepI2JxwQln9Q9XUrOyT4MbzANTJN82rIjRnVnypBl9ic+LzqM01EfUknkw5bdu3HFNVdjwc03mXtdOS+tob4e7696C3u3bsbsyZPgCwakPCR8r88oo7iTqA0pXTTajYkWLA/nW6+Ayjmn7oqMpDyOnzyFksoq3HzPPRh1eX7vSuwFYOv7z3/+c/zDP/yDWXg/+uij+OEPf9jy9lrbDhSlJ2E95EuEqMS86667wncVpXuocigCP/jBD/DQQw9hzJgxZiDQwUBRlGigyiEl2tjBnKMUlS98Rffrr7yCsycrEBfrnJvXE9hRk+njCw94oDPfBmkVD+5xlW56w6SEKTK7SoKy9PV5UVlfh1vvvAvTZ802B+ebdHfyAGT3NGvdJx/jzZdfQEbaIHN4toe7c5h/ccL4zOaVsNtLgcmnc3k+TISx5Nk2IXNI8skTJ5CSkmreWuZ4atPnRYExmUfgmh3lEHdz8ZDmZV/5MqbNmiWWXXtEo6mpEes//ghr3noTqXwdtDl1XcqB+ZYLngJ0KWEO2syF1CEWCc9w6T3w0VEpDZ5ZJemqaQogc9gI3HH3PRgxYnjb+ejl2LZaXV2Nr371q1i1apWpV7Okjj3zzDMYNWqUsSddqW+KEi1sXeW5aVVVVcjOzjbfFaW7qHIoAj/5yU9wzz33YOTIkea7DgaKokQDVQ4p0cQO5HaEonKooaEOpSUlqKmpMou3nobTjbVr1pi34027cprZ6cEDe93jKvdp9BaorOHil4dAeSStucOGITk1zSgizKM+ndypwnzTMJ+VlXzt8FEpHwmX98S+Jfe8JV8u9e6h89LgwtYpiqC6phqrV6/B5EmTMCY/33lz0yWE6eMb4lgmRmqsMyL/4ZeNREJiklHUdWXnEA/jPl15CmXHS8DX8TF8c1+C5yVVUZcSWw720w1TcmlTEwk+VsYWS8WVc+B1Umo6snJykRTHQ9v7Hratfvrpp/jmN7+JvXv3GuUo1wA/+9nPcPvtt7e460p9U5RownpoP7U+KtFClUMR+OKLL8ygkJCQYL6rckhRlGigyiElmnCJxtHJjlDm7Bi5a94yxbuXWuPgIpwC89+LL76EoTlDMW/eteaGmYL0XNI6hOkOIWj0EHzAiOM/36LEJHMa7pwBExnm0W3Mq/WZafPdcWNCkmtTTJ0L9pJg8izpOn36NF56+WXMnjUbV1wxWe5THmFHlwwKS2QWvqLSji90MJc0XUqQtBFpK6Zcmp2wbFPhp1UWKe1BlZBV6bJ9+IzhC9e6Uho9DetBIBDAL3/5S/z4xz9GeXm5eayMOx2/+93v4u///u8RFxdn3LK+6ZpA6SlYVwn7Zs4nr7jiCvNdUbqLqhkjMGHCBDMQ6EF0iqIoSm+Fg7l7mWIWLl4fvB4/fF4xssDpMSPpMGcNyWrbzzR5qVjwMZHw+pzDNHuj8RsTI+mPMennq/vtW74uBLuIpDFhiwxYWl7Kgt/9zqdXPnndOh09aWy6WWa+8C/TJt383ob7i2v8IifWZRopFykPpq1Fw9YlGAbzwrDD5RE2rKvnx6/mT02MyCxWDD/ZVuReH1UMEdYnvoRm0KBBWLp0KebMmYO5c+fitttuMzse6+rqnDqnKL0AKoiKi4vNq+wVJVqocigCZ8+eNYoh3a6nKIqi9BnMAqZ3/LLNJNB4eUYP/xlNVrOTxF6Ol0ocMUYRYf7kniS8s7uGLFbBYsujRRY2GH7a614G02jSCz66wDv87JnEOmXAMnHKgalwy7UrGMUlQ2IQPZOtPo4phfBn3xYhF9tJSUl48MEH8cQTT5iDqL/97W/jqaeewl/8xV8gLS3NuGF96w19q6Lw7DoaRYkWZphX2ufll18220oVRVEURVEURem/UPljd8ZRARQTw52D4UdgBVUKKYrSn1HlUAQKCwvNFlM7KCiKoiiKoiiK0v+wyh+rJLJPD/A+P3U9oPQmVFmpRBtVDkWAjY4DAz+1ASqKoiiKoihK/8PO9WmoCCL2064BrKJIUXoDPCx9xIgR4W+K0n1UORQBbitVFEVRFEVRFGXgocogpbfBHWysl7m5uVi0aFH4rqJ0H1UORSA+Pr7lVwPdSqooiqIoiqIoiqL0FFZhmZCQYN6kpyjRQpVDEbjnnnswZMgQVQwpiqIoiqIoiqIoPQ7XplVVVTh06FD4jqJ0H1UORSAvL8+81lJRFEVRFEVRFEVRehLuHKI5fPgwXn/99fBdRek+qhyKQG1tLQKBQPiboiiKoiiKoiiKovQM9okWfbJFiTaqHIrAihUrUFpaGv6mKIrSfTiY6wGXiqIoiqIoSlfhXFIVREo0UeVQBPbt22d2D+lCTlGU7sDBu7Wxg3ooFGq5pyiKoiiKoijtYeeMOndUoo0qhyLAN5VZxZAqiBRF6SpWEdTY2IhTp07h5MmT5iDBs2fP4syZM2hqajJKIkVRFEVRFEXpCM4rU1JSkJ+fH76jKN1HlUOKoiiXAPvLTmFhIX784x/jn//5n7F8+XL88Ic/NN/Ly8v11x9FURRFURSlQ+wPjkOHDsV1110Xvqso3UeVQxHw+Xy6Y0hRlG5hlT7sS9inHDhwAO+88w62b9+O1atXY//+/UhMTNS+RlEURVEURYkI54yxsbFIT08P31GU7qPKoQg89NBDRivLxZ3+qq8oSlfgAG5NZmYmJk2aZPqTYDCImJgYzJ0712wN5mOsiqIoiqIoihKJuro6lJWVhb8pSvfRlUgERowYgbi4uJaFnaIoSnegEmj69OnIzs42CqJBgwZh4cKFZkeRoiiKoiiKokSC69LDhw/j+eefD99RlO6jyqEI8LDYQCBgrnXnkKIo3YW7g3h44MSJE83APmPGDAwfPlx3DSmKoihKD6FzfKWvwTrLNar+uKhEE12NROCPf/wjTpw4Ya5155Ci9A84oFpzqWE/kpubi/Hjx5tdRLNmzUJycnKPvanMvkZfURRFUQYadi7Ax7ztOGzvub8rSm/C1lHCt90qSrRQ5VAE9u3bh9ra2vA3RVH6Ou4Bldjvl8qQjIwMTJ482SiIpkyZYg4UtMrntvxcTNM6TkVRFEUZaJw6dQq7d+82TwxYRZGOi0pvxc4Zuetcd54r0URrUwTY4HTHkKIo0cTv95tDqefNm4cxY8b06FsRtX9TFEVRBjrFxcX41a9+ZczOnTvR0NDQohjScVLprXAHOueRihItPNLxqUq8A37wgx/g4YcfxujRo813HSAUpW/DLq+i/ATWr9uA48Ul0qbDFpeMZoQkDVWVVeYgwby8PKSlpcEjf6Y7vsTpCTWHMG78OCxYOC+spOJd7eeU6GKnGn/4wx+QlJSEOXPm9NijlErnsXOeyspKvP7667jiiivMrkf2FTp9VPoLrMtHjhzBv/3bv2Hz5s2YNm0alixZYnYQDRs2DF/5yleMO10DKL0JjqFUYtbU1CArKyt8V1G6hyqHIvCjH/0I9913n1nAER0YFKWPIz3ent17sWL5SiQnpiI1OUVuXdpukN0u/zjx5CLL6+m5TZwlJ0oRlxCLRx99BIlJ8XKHsmA/p32dEh3sNIP1ff369XjrrbfMr522/us0pHdiy4XznsbGRhw8eNC8ZZFvWOTuR0XpD7AfItXV1Xj//fexdetWU7/5o/C4cePMGuCuu+7SJwmUXgeVQ7ZOat1UooUqhyLAM4f4Ovv4eC6atPEpSp9Heryd23fj3TUfYOzoccgenCM3L227dve6Pd2lHDp2EMdLj+Lbjz4i/VyMTICZIGsUpfu4pxn2V07e43hqP5XeCcuGi2cuQrh4TkhIMGek8TsVe4rSH2A/VFhYiH/913/F2rVrMXfuXDzyyCMoLS3F4MGDce+99xp32lcpvQXWWRr2yxUVFfpomRI1VDkUAU6KKCI7CdKBQVH6OGHl0NrV72PC5ZMxOGuo3Lu07drd7fZkn8LdS4XFB3FUzJ//+SNISOTB2LThf9rXKdGB9Z3KBP7ybuu+rff81GlI78VdPu6y4+uTdfeQ0h+w/dNnn32GJ554wrxBdNmyZUYp9MILLyAuLg733HOPqfe231KUnoZ1luzatQsffvgh/vIv/9J8V5TuogdSR4DP2XPgsEZRlL4P53c+LxW+cmGaNSd8l854PNye7pi27C+V4V8oGEKzTDI8Hu3flIsDF1T2bSr22r3Qstdqep9pr3yoGGrrvho1fdGwT+LbQ3nm0Le+9S0MHTrU1HH+MKw75JTeiK27XJvysV9FiRaqHIrASy+9hOPHj5trNkJFUfoTVIgM4HYtWWe35uHCPTzRUJSLgZ3Iah3ru7jLT8tR6U9QOZSRkWEOn7Y74mwd5+LbKrcVpbfg7o/tuVmKEg20t4sAFUOqkVWUfoyHW3OpJBrIRlEURVEGHm5Fpyo9lb4G66zublOiiSqHFEVR2lSYdMN4mtHcYkLnGaOMMo9wtW1au3ebttx33yiKoiiKoih9Ce5qS0xMNC9OUpRoocqhCOg5Q4oyEOCvhVE05oBrGmI/HWWM6VFa7HuDURRFURRFUfoKdn3K87Hmz59vrhUlGqhyKAJ8bSu36+lWU0VRLgz2Gexi2zId0ZZ7axRFURRFURQFiI+PN2/WU5RooauNCCxduhTZ2dnmWhVEiqJ0HveuQ+k7mn2O0d06iqIoiqIoShfhmpTm7Nmz2LNnT/iuonQfVQ5FYMqUKWb3UCgU0kfMFEXpHNT/8Lyh5nP9Bl9bz0uP6XbPKYg4uDc1NZm3oVi37jejsO9xfyqKoiiKoigDF84XOS8sKirCmjVrwncVpfuocigClZWVpvHpaywVRekIKnmsAqe5OSjXjQiG6sU0INTsHCbt9RqtkXHjhtuCT58+jerqagmnGcFgEwKBRtTWVqOhoQ5NgQb4fNoHKYqiKIqiKA58jX0gEAh/U5Tuo6uNCCxfvhwVFRXhb4qiKG1DxZDf7zefZ86exNZtn2HN2j/ik3UfoLi4EKHmJjQjaAwVRRa6b2howMaNG7FvfwGCzY04U3kCm7dsxKo3V+CNla9iy+efoarqlLjW3YuKoiiKoiiKokQfVQ5F4NChQ6irq2t53ENRFKUtPF4PQs1BnD5zAm+88Tqef/45fPDBe3K9As888ySOHTtsdgWZZ8uMB6p6QsYUFR/DocOHMXbsWNTUVGLNmtV4+ZWXsGv3LuzcuR3PPvcU3v/wXfMLkaIoiqIoijKwsecOKUo0UeVQBOzjZNr4FEVx40GzdKAupbEnhKbmBuwu2IEt27Zg5oxr8M1HHsVdd92NwiOH8c6at83jZXyZvfMme/Erfhoaa7Fh4zpMm34lkpKTcexoEXZs34XZs67F1776TXzzm3+OMaNH480330BVdZUTl6IoiqIoijKgSZZ5Y15eXvibonQfVQ5FgMohe46IKogURWkPKn1q62qwdfsWpKWlY951izB69OWYPv0qDBs2AnsLClBfx7ODfKYvCYb4iFkIBw8dQH1DPSZMmCj3fUhMTMZ1187DooWLMXJkHi67bCSumDIVJaVlqK2tbemHPG2cXaQoiqIoiqIMDHJzc7Fw4cLwN0XpPqocigDPENHDqBVF6Qw8UPro0aMYPmw4srNz0NzsRVxMAqZeMQ15I8YgFPIAco+wX+EjqwUFBZg+fTqSkpKM4mfE8JGYN28+MjMzxA0QDDSZx1tzc4aaNyfyEVe6ozJKURRFURRFGXhwPhgXF4e0tLTwHUXpPqr1iMCyZctkkZdtrvXcIUVR2oP9Q1V1NWpr65CYlIzYmDj4vH6zG2jJjTfj4Ye/juSkFIRCzutHQ8EQ9hXsMzuJ8vJGIiYmxoTB74mJifD6PPB4Qzh95hT2Fuw1u4lSU1Nb+qFo9Uder8982nQpiqIoinIOjrc6Piq9kZqaGhQWFoa/KUr3UeVQBCZOnGie51QURekIn9eHpsZGNDY1IjY2BnxtfTNfYe9pRlJyonldfag5wOfBWnYN7d27F5dddhlSUlJMGJx8UpnkPDoWkkG/Gn98+48SbgDXX39DyyNpnKjax8u6C9Po8XjhFaOTX0VRFEVx4JjLF0FwzNWnCJTeBOeANEeOHMHKlSvDdxWl+3ikw9PtMB3Ax0S4Zc8uyqK1IFMUpYeQHm/Xjt14b81HuDx/AgZn5cq9C5/08cEuR4UT7hO8Iewq2In//bOf4IbFS3Dv3Q+YM4WamwMoKNiLmpo6TJ50JWJj481Ec+fObSg+fgxXXz0bqalp8HpiJRAnLI8nhECwAZs2f4pXXnkFty69DQvmL4YXfmMfNTzNOHh0Hw4c2ouvPnwfYuP4GC3TQGNlokOEoiiKMvB49dVXMWjQINxzzz2qIFJ6FXb5vn37drz77rv427/9W/NdUbqLKociwIFhzpw5GDJkiBkUVDmkKH2cqCqHPHD22vANZEEUFh3GT//z3zH9yhl48P6vIS4uBoFAI/7z//spDh06gv/3P/4TiQnJOH36DDZt2ojRo/Nw+bjLpW/xoTnId585Cmgqh/YW7MIry180h1nffdeXkZKcBoSiu2uIyqH9hXux9v13MGPGFfD6GLaxEOM8bkb1l6IoiqIMNHgm4I033ogbbrghPDbrGkDpHbiVQ2vXrsX3vvc9811RuosqhyLwL//yL7j//vuRn5+vg4Ki9AeipByiAoU9gjkY2kMFShAnTpfjF7/4mXmE7Bvf+DaysrJQX1+H/+ff/wP1dfX4t3/9sRP/zp0oLy/H1ddcg0GD0iQcid95vz0CoQCOlxzD668vR0NDPe6558sYPnwkvB6/dNjell8vo9J1e5pxoLAAW3duxh3LbkFMDOXAcFU5pCiKogxsAoEAxo4di4yMDPNd1wFKb0GVQ8rFQpVDEXjsscfwwAMPqHJIUfoLVM5ESTnkIAF6gvIZRENjPd5++028/c7buOXW2zBj+kwUHi7EU08/jQXzF+Dee+/DmdOnsWH9evOK+smTp5hdQ+74T545gddeewV7vtiJRYsWYerUKyUmHmztx+CMwYiNjTV9UbSUQ3ysrKjkCB79zjfMTienm+N/VlGkKIqiKAMPjrPuub+uA5Tegp0DHjx4EFu3bjWPPipKNOjKikhRFEU5T3HC7eZexMTEYtZVc3D5uAlYvXo1/vv//Dde+MMfkDcyD9dffyMCTUEcOnTY+Bg9erQ5xNo92eSB0EVFx/D51s2orDyLTZs+xXPPPYNnn3vafHK3Ed3TXbT0+jyI2vKnE1+dCCuKoigDE1UGKb0ZzgOHDRuGefPmhe8oSvfRnUMR4GNl9913n9lWqoOEovQDpMeLzs4hFx52o1TYhBAKBVFxsgI7dm5HUVExMjOyMHPmTOTmDENDQxM++fgjGcxzMGHCROlTGK/0K+H42RtXnCpBwb7dEk5A7HmXbxLzIRT0YOqUGUhLSzPKoaj0R9w5dIQ7hwrx6F88goSEOLlphwT97UBRFEVRFKW3wmU854R8cZKiRANVDkWAh9ENHTrUvM5elUOK0g+4GMohQ7gr9fAUIr5trBHBYMg8NhYbEyfXcl+cVFWdRVJiHOLi4s09r+lX7KAu194ggqEmuQyE70namp1Hz7ziLqr9kKT10NF9OEbl0HfcyiHGof2doiiKoihKb4RL+Pr6elRWVpoXJylKNNCfhiPAs4asYkj1aIqitA+VKecUOT5fDOLjE8Kvrod55IwHSaelpct1THj3D72dr4QJBhmSH15PnBjx44lxjJfnAanCRlEURVEUZSDDNSnnhIcOHcKzzz4bvqso3UeVQxGoqqpCU1NTSyNUFEVxaK0sdvcPRuuDEHcLhfh2MR8CTXxMzOly+UlFkf3uxtPsE59UMDlKpuaQT/ofj3w6YSqKoiiKoigDG65N+UY9v98fvqMo3UeVQxFYs2YNTp48aa5155CiKOdorahh/+AY2vARMJ4VxFfUU0lklEHGGXchehGiskeunVfYW+jOCdkj96ko4mNnjrHhK4qiKIqiKAMV95o0yC3nihIlVDkUgZ07d6K6ujr8TVEUpTOcU/w4fwIHcu5ANLZUFLH7db6dTysFkNEJmf/MV0VRFEVRFGXgYp9moZJIlUNKNFHlUAT0UTJFURRFURRFURSlN5GYmIgRI0aEvylK91HlUATcZw2pokhRFEVRFEVRFEXpKbg+5YtNhg8fjkWLFoXvKkr3UeVQBPhWIZ/PZ671zCFFURRFURRFURSlp3BeauJBQkICsrOzw3cVpfuocigCd999d0ujU+WQoiiKoiiKoiiK0pNQOVRbW4uKiorwHUXpPqocisC4ceMQFxdnrqmlVRSlf+Coegf6o6L6qKyiKIqiKEpfgo+U0Rw6dAjLly8P31WU7qPajghUVVWZHUP22U5FUfogLZv+pA17guZFYmzNQekCm8HHRtkVDkDT7GxLhickn3Kr5e1pFJg1iqIoiqIoSm+BczduWuCbyrh7SFGiBVcISgesWrUK5eXlphGaRZSiKH0YR+Hh/FFBRMWIXAxY40giFArKBMMqgmhBqD5T5ZCiKIqiKEpvgxsXdG2qRBuPVCyd/XfAY489hgceeAD5+fnmuzZCRemDsJczTTckg2kI27fvxup3PsSovHHIzsziCEvLgYenGYVHD6D8ZAm+851HkZgYH+7jrGKI1/obgqIoiqIoSm/BPtWyY8cOrFmzBt///vfDNorSPVQ5FAGrHBozZoyeOaQofR4OpiHs23cIry5/A7U1DUiIizX3BypVNZUYOiwH33jk60hIUOWQoiiKoihKb8Yu3w8cOIANGzbgoYceMt8VpbuocigCVA49+OCDGD16tFk06c4hRenbUDlUU1OHoqJiVFfVYKDrfDkCpGekIS9vpKuPU+WQoiiKoihKb4TLd5q6ujqcPXsWQ4cODdsoSvdQ5VAEfvSjH+Hee+/FqFGjVDmkKP0EZ1ClAkQ6Qc/AVn5QDB4v+zaYQ/edHZKqHFIURVEURemNuJfvPJTa7/eHvylK99BZfwRuueUWDBkyRB8pU5R+gqMY4iF+vOYZRANcPy6CCIV4KLUebKgoiqIoitLbsfO16upqlJSUmGtFiQa6cygCdiFJdOeQovQfqBjyeNi2qfgduO3a6d9a7xyyw4L2d3CoKPgAABHlSURBVIqiKIqiKL0Juz7du3cvPvjgA3znO98J2yhK99DtMBGorKw02/V055Ci9C+cx8l8vDLfByqO0tu5PtfP8YYqhhRFURRFUXorjY2NqKmpCX9TlO6jGo8IrFixAidOnAh/UxRFURRFURRFURRF6V+ocigC+/fvNyfB83ELRVEURVEURVEURelJ9LgT5WKgyqEIsNFZxZA2QEVRFEVRFEVRFKWnSUxMRE5OTvibonQfVQ5FwL4aUBVDiqIoiqIoiqIoSm8gNzcXN9xwQ/ibonQfVQ5FwOfz6bY9RVEURVEURVEUpcfhupRvK0tISMCQIUPCdxWl+6hyKAJLly5FZmZm+HXPiqIoiqIoiqIoitIz2HUpz8U9evSouVaUaKDKoQhMnToVqampLRpaRVEURVEURVEURekJ7FMthw8fxmuvvRa+qyjdR5VDEaipqUEwGDSKIX20TFEURVEURVEURekp7MuSuEZtamoy14oSDVQ5FIG1a9fixIkTumtIURRFURRFURRF6VHcGxZ084ISTVQ5FIFt27ahqqoq/K1jqECyxo37fms70p5de+5JR+7b8uO2a8v+UtNRWtqya+uem7bsOvLTkd2lJlJa2rJz+2ltH+me+z7pyI60d/9i0Zm0XIhdR/ci2bWmI7ueoKP0tGfX0b1Idq3pql20ccfVXnxt2Ue6F8muNR3Zt3f/YuCOq634OmPXmrbu23sdub9Qu4tFR3G2Z9eee9KR+7b8dNXuYtBRfJ21c9u3dc9yofeJtWvPPtq0F5/7fms70p5de+5JR+7b8uO2a8v+YtBefO77re1Ie3btuSeR7Fpj3Xfk71LSUTraSqf7Xkd2Fvc9931LV+0uBh3F1xW7ju61vk+6anex6CjOrti1vud2576vKN1FlUOdwD7XSTpqiNZdaw2u+35rO9KR3YXQUThuu9b2HeWpIzvSGbu27NtLC+nIjnQUp5uOwnHbtQ7Lht9WHBfDzp2WtmjPzu2vLXs3Hbltbdc6jfZ+W3SUr67audPihm7bsyMd2bWmtVt3Otx2rdPntmuNzU9rP5bO2LVl354dv3eUnrbs2gqftOXWcjHs2ssT6YqdO6624iOR7G24bjcXGk9H9u3dJzbu1vGRrti542odH922Z+emrfha01E4bruO0tcam5/24u+MXVv27cVJt+3ZWdoLszUdheO2ax2W2641Nu624u+qXXvx0W17dsRt15a9m/bitnQURkdx2HDbCrurdu3F577f2o50ZNea9uImHYXjtmtt31GeSGfs2rJvLz73/dZ2pCM70lF63HTkzh1H63isv7b8Xgw70lY6LO2lk3Rk58btri23brvWaXTbtaajfHXVrr346LY9O9KRHXHH1ZFbt13r9LntWmPz09qPpTN2bdm3FyfdtmdHOrJrDd0kJSVh6NCh4TuK0n08UknbrvGK4bHHHsMDDzyA/Px80wjd4mrdcFuL0m3flpitfXtF0JF9NPySC7WPhh3pKN627EhH9tHwS1rbu+2I276rdqSjOIm1b8uO0L49O9KRfWfjJq3tO2tH3PZdtbNYNxdqRzpj3xW/1s7S2o3bPlp2pLP2bdmRzth3xa87XcTtpqt2xG1/IXYkkj2xbtrzH8kfudC4O2tH3PYd2ZHOpqkjO0t7Ybfll3Qm7O7ES7pqR7qTrgv1SzoTdqR4idtNV+2I2747aWrLntBNJL8kmnF3FHZX7UhHcRJr35Yd6ci+O2F31i9pbd9ZO3Ihfom1b8uOdGTfnl2kNJGO0tWR/0hhdzbcC01TZ6D/9vx1J+7O2hG3fVftLNbNhdqR7th3xs7S2o3bvqt2pKvpasuOtGXPa76t7MyZMxg2bFj4rqJ0D1UOReAHP/gBvvrVr2LUqFGmATY2NoZtgJiYGCQnJ5sGGwgEUFtb23IomM/nQ2JionHDQ8NoZw+2pvF6vS1vQeP9s2fPmnvWnn7j4uJMWDwU2x0vw2a8dM94ac84GBbv0V9sbKxxx3DtoWX8ZHoSEhKMHeNlnphm2+nQjv4ZDsNtaGgw95km+mW6/H6/8WPjJfRv/ZLWaaZfarfpjmHSMH4L00t7xsM02XjpnnEMGjTIpInx0t765T2mx/qtr683fnlNv25Z0Y99RNDax8fHt6SZ/hg2oT39pqSkGL/8XllZeV689GvlTH/WL7GysulnvAyD8J6tGwynurrayMqdZitn+rVlaNPB9NKe2DrHdNGehuXAsN2yYri0432mm9/pl/Hy2kI50g3rlfXLOOmX6aEs+d3Kitc0TDP98pNpZdgMw8I0057h0S/LycL409LSzDX9su5Yv7Sz+bXx0p73aXiP7cjKhnbMt4V+mV/a2/wSm2bKimVITp482RIOP+mXhtdMry1fppEysnImreu7TTNxy4owPMqC8rT9Bj9tObjza+sz46Q9/dp43XK2sqA92wqvrZzpjtANy4/5ZjkwTfRr/TFMxkt3zAvrJe/bsNkWbJ2knS2j1n55n/Kw8brrM8NxlwNhfpknGy/tW+eXZUS/tg3SjoZ+bRukX8ZLrL1bVja/vGa4TI8tI9rZduT2y/AZr82vtaOx/bctX5tfm2brl3ZMG69pmF6WA+F9t1/CcG07sn4tTDPtGQ7Tw3TxmtAP67qtk/TLtFl4n/WO8L6tV4T5YJrohjKw/ZW1533miXEwXpaDlQOx+SX0yzAsbr/uOmn9u/tg+mX4FneabX/mTjP9MmymlXYM28qDcrbx0i/rBtNl6zT90vAe/dGN9Ut7tiN+usuX9rzHNNk6Sb82Xhu29WvjdYfLvNo027Zg7Vm+DJvh8B7lbO2IjZfhME00FsqK9Zn5pR8uFqysGJ5bzkwv/TIcYtsCP21+bFsgbjmzztHOliHjs/Gy7Gzbp1vGa9NFGK67PtOe4dJN67bAsG0ZEpsuKw/6tXJmemz5Whgn80t7+rN9A2Fa2Z/xk37cfZJNk5WzO7/W3s4pCOXsLiNbr+iXcbIOELphfLRj2DZe2jMsumd6acfv1s7t18rKnV+mi+5tvbL5tXXD+mXdcft1tzOmifKiWytnwu8Mm7JiuPTjLiPCsG2f5I6X0B3LyMrZXUYMj/XNPaegf5sf+rH1ivbutsBPd34pJ3e66N+WEe3Zr1hZ8rvbL+OlrC1WVvTL8Fj+Nly6t+VLGCfrjc0T/dq6wzQyXvqlPf3a/PKaebV9ML8T+mXaKGemyZYRw7V9A90yXvq3/hgGw7X1inbuukO/tox4n2HbNDOfDJduiLvOEls3GIftCy2M346DNCwjm2aGyzDpl9e8b8cNwk8bL9Nl6wavCesq42beW8fL8CgnGobTug3aPsf6teXLPDA+hku/9EM7uiH8ThnaNLfVJ9HOytmWP+/TL+O1crZ+bdnbNDNuG6+7jOiG82Be8771S9zxMi22btAtYT5Z/rYMFaW7qHIoAp9//jnGjh1rOq5Vq1Zh9+7dYRtnEv+d73wHGRkZ5mwivkqQ7gg7ggULFuC2224zHeLLL7+ML774wjRsNvTc3Fw8+OCDGDJkCPbv348nn3zSdCa2k7jzzjsxZ84c00m88MIL2LVrlwmX/vPy8nDvvfciJycHn332mYmXnRv9sfOZN2+eMeyEfvnLX+LQoUPGjmHTL9NEZRfj/c1vfmPiZefCNNPfTTfdZML7wx/+gL1797Z0jNy2ePvtt+Pyyy/Hhg0b8NZbb7Xkl53ijBkzjD3vMb/79u0zdow3PT0d999/P8aMGYPNmzcbv+zQGSftr7rqKpNndnhvvvkmNm7caO4zbg4gjz76qJHZjh07jD0X8rRnZzhr1ix85StfMfdYRtu3bzd2hGXzjW98w8iqoKAAv//97036aE+ZXH/99Sa/lMGaNWvw3nvvGX9MF+P99re/jeHDh+Po0aN46qmnTJqt/bXXXosbb7zRDOjPP/88tm7dauxIVlYW7r77brPjjHJg+dpBk2meO3cuFi1aZMrrueeeM/XKlhH93nrrrZg8eTKOHDli/HKCQmhPOd9xxx0mnBUrVpg6wPRQVpmZmaZ8r7jiCiOrlStXtig9aKZPn27KiHGx3rDe0h8HIZbRl7/8ZYwbN86k+Y033kBpaamxZ/kyL1/72tdMnXz33XdNHeA1/TIfVKJOmDDB1Lfly5cbvxamh/WdkxYe8v7RRx+ZvNBwULPly1dyvvTSS+YQeMZL+5kzZ+Kuu+4y6We8LCfrl4Mlw504cSJKSkrwzDPPoKKiwuSPXHnllVi2bJmZoLJOMs3WL/NLO8qZfn7605+aesC80v6aa67BkiVLzHfWuU8++cSEybA5iN9yyy2mLJhmlr+tG2T8+PGmjFiWlCPjteXPfoN+ma9jx46ZdB0/ftyES8O83HfffSa/q1evxrp161omRqyT99xzD6ZOnWrqxuuvv24+raxGjhyJb37zm6ZufPDBB/jwww9NnmwZsl6xX2K8LCOmnXHSnuVOWbIsmV6GzfuE4bGMRo8ejeLiYpNmhkGs34cfftj4ZRt65513WvLLfoh1jm2cbe+//uu/cPr0aWNH6JdthbL6+OOPTZ22EypOiFifKSv6/fnPf27kbNM1ZcoUI2fWe8ZJQzv6paxuuOEG09bKyspM22fa2dfRnn0g08X2/fbbb+P99983sqId2zT7BrZx9t8vvvii6T8oB4ZPP1//+tdNHEwz5WzbKGXAeNm+3WXEcGmYz0ceecTUSdYpxm0niYRltHDhQtMG2EbZB1v4y+C3vvUtIxe2XZYD08yyZ31h++W4QYUy6+TBgweNP6aZ+X3ooYdM3WW8lDNh3AyP8bKMmEbKmX0eZUW/7PPZVhg/+yr2hVbOjJf9IMcOTlqfffZZU694n+nimEM5s25Sxiwjm2YuOtnOmF+WL8NlO7YwPtZ3ynv9+vXGL90R1uerr77atCX2K6+++qrp82y6WCdYJ9n3f/rpp6bfYd2hHesXy2jp0qWmf+R4RL92Ms5xmeXLMChnyorx2rBtO2KZs2/gmEbon3n667/+ayNnlt0rr7xi4mV+mebrrrvOxEsZsE5ybGeYNOwDWYbML/tgjs+M08KxivHy3tNPP90yxhKmmbJiG+Vcg7Jk2TJclgVlxf6M15xTMG1so7SnjNiOONfh+Mn8Ms0sf6aZbYjyIkyzHa/I4MGDW+KlX9Z3ypT+mM5p06bhz/7sz4ys/vjHP5o5FeVEO7YF2wdTDuwr7dhOmGbWHbpnO2EdoJ2V5d/93d8ZOe/Zs6fFr4V9M+dJrJOcF2zatCls47RRli/ze+DAAdNW2GaYJ4bNdmDHHNt/27rBNHO+wbkMx41f/OIXJm90S+bPn2/aPscmtk9bNxg22zzLl+MkZcix3y5M2bdwfGZbYp5YRlu2bDF2JDs7GzfffLPp8zi2cl7AfpRyZDlxjGU5MB6mmX5ZvswPxzrWOcrEypn9C2G6OV4xXQzHyorh0i/TxfGIYynrG+cUHK9ox7goQ44bzC/HddsHM272/ezrOHdgn8A2WlRUZOKlX4bJeQPHN9YNO07SP8dJzhmZtvLycvz617/GqVOnWvxSVpwzMg7WC4Zt7ZgW7vifNGmS8UO/Nr+0p6zYhjk/ZF1nH25hGVFWTBv7oscff7xl/KVfyp9jEsuIsmBfyrpB2bEfZTthH8x4OR9hGLRjW2Q/Sjmzj+A4SXmx76IsOQ9iX8b+kHNzhk1ZMU7ac5xkfWYcnAexL7WyYlugHdsa6wb9sn3TLw3z+Td/8zemrCljzitsnuj3S1/6EmbPnm3GSY51HK8sHDc4h6Y75pVh27LnPZYfy4j9BfscWzdoWDeYLsbPOsWwmWbCesW2TVmxjbKv45yCaaRfyorlyz6Rcz7WK/qlvR3b2T9QAcd1DsvXtkG2LzsvYNmyf2d/SyhnjlUc39lfvCTzTc5ZCWU5YsQIMx/hJ2VMWVtZsV6xbdMv6yTrju2DmWb3+Mw1DMccpo8wbNYr+qdftjP2W9aO9f273/2uqRvsI2lPudCO9Wfx4sWmfrDNs19hH2/9Mq2cm7NvUpRooMohRVEURVEURVEURVGUAYweSK0oiqIoiqIoiqIoijKAUeWQoiiKoiiKoiiKoijKAEaVQ4qiKIqiKIqiKIqiKAMW4P8HrL1NubM4psAAAAAASUVORK5CYII=;" vertex="1" parent="1">
          <mxGeometry x="760" y="1010" width="1159" height="234" as="geometry" />
        </mxCell>
        <mxCell id="rapPshUDSgQeHGpEtebV-15" value="" style="edgeStyle=orthogonalEdgeStyle;rounded=0;orthogonalLoop=1;jettySize=auto;html=1;" edge="1" parent="1" source="rapPshUDSgQeHGpEtebV-5" target="rapPshUDSgQeHGpEtebV-9">
          <mxGeometry relative="1" as="geometry" />
        </mxCell>
        <mxCell id="rapPshUDSgQeHGpEtebV-5" value="C/2" style="rounded=0;whiteSpace=wrap;html=1;labelBackgroundColor=none;strokeColor=default;fillColor=none;align=center;fontStyle=0;fontSize=18;direction=east;" vertex="1" parent="1">
          <mxGeometry x="420" y="1380" width="70.00000000000004" height="30" as="geometry" />
        </mxCell>
        <mxCell id="rapPshUDSgQeHGpEtebV-20" style="edgeStyle=orthogonalEdgeStyle;rounded=0;orthogonalLoop=1;jettySize=auto;html=1;entryX=0.5;entryY=1;entryDx=0;entryDy=0;" edge="1" parent="1" source="rapPshUDSgQeHGpEtebV-6" target="rapPshUDSgQeHGpEtebV-12">
          <mxGeometry relative="1" as="geometry" />
        </mxCell>
        <mxCell id="rapPshUDSgQeHGpEtebV-6" value="C/2" style="rounded=0;whiteSpace=wrap;html=1;labelBackgroundColor=none;strokeColor=default;fillColor=none;align=center;fontStyle=0;fontSize=18;direction=east;" vertex="1" parent="1">
          <mxGeometry x="270" y="1460" width="70.00000000000004" height="30" as="geometry" />
        </mxCell>
        <mxCell id="rapPshUDSgQeHGpEtebV-16" value="" style="edgeStyle=orthogonalEdgeStyle;rounded=0;orthogonalLoop=1;jettySize=auto;html=1;" edge="1" parent="1" source="rapPshUDSgQeHGpEtebV-9" target="rapPshUDSgQeHGpEtebV-10">
          <mxGeometry relative="1" as="geometry" />
        </mxCell>
        <mxCell id="rapPshUDSgQeHGpEtebV-9" value="WTConv" style="rounded=0;whiteSpace=wrap;html=1;labelBackgroundColor=none;strokeColor=default;fillColor=none;align=center;fontStyle=0;fontSize=18;direction=east;" vertex="1" parent="1">
          <mxGeometry x="549" y="1380" width="80" height="30" as="geometry" />
        </mxCell>
        <mxCell id="rapPshUDSgQeHGpEtebV-17" value="" style="edgeStyle=orthogonalEdgeStyle;rounded=0;orthogonalLoop=1;jettySize=auto;html=1;" edge="1" parent="1" source="rapPshUDSgQeHGpEtebV-10" target="rapPshUDSgQeHGpEtebV-11">
          <mxGeometry relative="1" as="geometry" />
        </mxCell>
        <mxCell id="rapPshUDSgQeHGpEtebV-10" value="WTConv" style="rounded=0;whiteSpace=wrap;html=1;labelBackgroundColor=none;strokeColor=default;fillColor=none;align=center;fontStyle=0;fontSize=18;direction=east;" vertex="1" parent="1">
          <mxGeometry x="680" y="1380" width="76" height="30" as="geometry" />
        </mxCell>
        <mxCell id="rapPshUDSgQeHGpEtebV-18" value="" style="edgeStyle=orthogonalEdgeStyle;rounded=0;orthogonalLoop=1;jettySize=auto;html=1;" edge="1" parent="1" source="rapPshUDSgQeHGpEtebV-11" target="rapPshUDSgQeHGpEtebV-12">
          <mxGeometry relative="1" as="geometry" />
        </mxCell>
        <mxCell id="rapPshUDSgQeHGpEtebV-11" value="WTConv" style="rounded=0;whiteSpace=wrap;html=1;labelBackgroundColor=none;strokeColor=default;fillColor=none;align=center;fontStyle=0;fontSize=18;direction=east;" vertex="1" parent="1">
          <mxGeometry x="788" y="1380" width="82" height="30" as="geometry" />
        </mxCell>
        <mxCell id="rapPshUDSgQeHGpEtebV-19" value="" style="edgeStyle=orthogonalEdgeStyle;rounded=0;orthogonalLoop=1;jettySize=auto;html=1;" edge="1" parent="1" source="rapPshUDSgQeHGpEtebV-12" target="rapPshUDSgQeHGpEtebV-13">
          <mxGeometry relative="1" as="geometry" />
        </mxCell>
        <mxCell id="rapPshUDSgQeHGpEtebV-12" value="Concat" style="rounded=0;whiteSpace=wrap;html=1;labelBackgroundColor=none;strokeColor=default;fillColor=none;align=center;fontStyle=0;fontSize=18;direction=east;" vertex="1" parent="1">
          <mxGeometry x="928" y="1380" width="70.00000000000004" height="30" as="geometry" />
        </mxCell>
        <mxCell id="rapPshUDSgQeHGpEtebV-13" value="Conv" style="rounded=0;whiteSpace=wrap;html=1;labelBackgroundColor=none;strokeColor=default;fillColor=none;align=center;fontStyle=0;fontSize=18;direction=east;" vertex="1" parent="1">
          <mxGeometry x="1057" y="1380" width="70.00000000000004" height="30" as="geometry" />
        </mxCell>
      </root>
    </mxGraphModel>
  </diagram>
</mxfile>
